<svg width="34" height="34" viewBox="0 0 34 34" fill="none" xmlns="http://www.w3.org/2000/svg">
<path fill-rule="evenodd" clip-rule="evenodd" d="M15.5609 3.33068H13.9878V5.18089H20.0113V3.33068H18.4382V3.32902C18.327 3.32901 18.2203 3.28517 18.1412 3.20701C18.0621 3.12884 18.017 3.02265 18.0156 2.91146C18.0043 2.02108 16.9199 1.57848 16.286 2.20363C16.1921 2.29525 16.1172 2.40448 16.0656 2.52509C16.0139 2.64569 15.9866 2.77529 15.9851 2.90648C15.9851 3.01898 15.9404 3.12686 15.8609 3.20641C15.7813 3.28596 15.6734 3.33066 15.5609 3.33068ZM15.9023 8.94081C15.7897 8.94081 15.6818 8.89612 15.6023 8.81657C15.5227 8.73701 15.478 8.62912 15.478 8.51661C15.478 8.4041 15.5227 8.29621 15.6023 8.21665C15.6818 8.1371 15.7897 8.09241 15.9023 8.09241H21.3899C21.5024 8.09241 21.6103 8.1371 21.6898 8.21665C21.7694 8.29621 21.8141 8.4041 21.8141 8.51661C21.8141 8.62912 21.7694 8.73701 21.6898 8.81657C21.6103 8.89612 21.5024 8.94081 21.3899 8.94081H15.9023ZM15.9023 10.877C15.8461 10.8777 15.7904 10.8672 15.7383 10.8462C15.6862 10.8252 15.6388 10.7941 15.5989 10.7546C15.5589 10.7152 15.5272 10.6682 15.5055 10.6163C15.4839 10.5645 15.4727 10.5089 15.4727 10.4528C15.4727 10.3966 15.4839 10.341 15.5055 10.2892C15.5272 10.2374 15.5589 10.1904 15.5989 10.151C15.6388 10.1115 15.6862 10.0804 15.7383 10.0594C15.7904 10.0384 15.8461 10.0279 15.9023 10.0286H21.3899C21.446 10.0279 21.5017 10.0384 21.5538 10.0594C21.6059 10.0804 21.6533 10.1115 21.6932 10.151C21.7332 10.1904 21.7649 10.2374 21.7866 10.2892C21.8082 10.341 21.8194 10.3966 21.8194 10.4528C21.8194 10.5089 21.8082 10.5645 21.7866 10.6163C21.7649 10.6682 21.7332 10.7152 21.6932 10.7546C21.6533 10.7941 21.6059 10.8252 21.5538 10.8462C21.5017 10.8672 21.446 10.8777 21.3899 10.877H15.9023ZM11.3784 10.0254C11.2876 9.96041 11.2262 9.86215 11.2075 9.75206C11.1888 9.64196 11.2143 9.52894 11.2786 9.4376C11.3428 9.34626 11.4406 9.28399 11.5505 9.26437C11.6604 9.24474 11.7737 9.26934 11.8656 9.33281L12.619 9.86306L13.7327 8.27462C13.7969 8.18278 13.8949 8.12018 14.0052 8.1006C14.1155 8.08103 14.2291 8.10607 14.3209 8.17023C14.4128 8.2344 14.4754 8.33241 14.4949 8.44273C14.5145 8.55304 14.4895 8.66661 14.4253 8.75846L13.0677 10.6964C13.0031 10.7882 12.9047 10.8507 12.794 10.8699C12.6834 10.8892 12.5697 10.8637 12.4778 10.7991L11.3784 10.0254ZM11.3784 14.8598C11.3324 14.828 11.2931 14.7875 11.2629 14.7404C11.2327 14.6934 11.212 14.6409 11.2022 14.5858C11.1924 14.5308 11.1936 14.4744 11.2057 14.4198C11.2178 14.3652 11.2405 14.3136 11.2727 14.2678C11.3049 14.2221 11.3458 14.1832 11.393 14.1534C11.4403 14.1235 11.493 14.1034 11.5482 14.094C11.6033 14.0846 11.6597 14.0863 11.7142 14.0988C11.7686 14.1114 11.8201 14.1346 11.8656 14.1672L12.619 14.6974L13.7327 13.109C13.7645 13.0635 13.8049 13.0247 13.8516 12.9949C13.8984 12.965 13.9506 12.9447 14.0052 12.935C14.0598 12.9253 14.1158 12.9264 14.17 12.9384C14.2242 12.9503 14.2754 12.9728 14.3209 13.0046C14.3664 13.0364 14.4052 13.0768 14.435 13.1235C14.4649 13.1703 14.4852 13.2225 14.4949 13.2771C14.5046 13.3317 14.5035 13.3877 14.4915 13.4419C14.4796 13.4961 14.4571 13.5474 14.4253 13.5928L13.0677 15.5308C13.0031 15.6226 12.9047 15.685 12.794 15.7043C12.6834 15.7236 12.5697 15.6981 12.4778 15.6335L11.3784 14.8598ZM14.3756 31.0109C14.5128 31.0901 14.6156 31.1533 14.7959 31.105C14.8509 31.0908 14.9025 31.0658 14.9478 31.0314C14.993 30.9971 15.031 30.9541 15.0595 30.905L15.0588 30.9046L15.9588 29.3459C16.0066 29.2468 16.0156 29.1333 15.9839 29.028C15.9522 28.9226 15.8822 28.8329 15.7877 28.7766L15.7873 28.7773L15.6943 28.7238L15.6947 28.7231C15.595 28.6672 15.4773 28.6525 15.3669 28.6823C15.2565 28.7121 15.1622 28.784 15.1041 28.8825L15.1034 28.8821L14.2171 30.4181C14.1608 30.5179 14.1459 30.6358 14.1756 30.7465C14.2053 30.8572 14.2773 30.9517 14.3761 31.0099L14.3757 31.0106L14.3756 31.0109ZM14.1113 28.9119L13.4846 29.9974C13.4408 30.0732 13.4049 30.1533 13.3775 30.2365C13.3038 30.3822 12.8751 30.6172 12.6756 30.5042L12.676 30.5035L12.5831 30.4501L12.5827 30.4507C12.4881 30.3944 12.4181 30.3047 12.3864 30.1993C12.3548 30.094 12.3638 29.9805 12.4116 29.8814L13.3119 28.3224C13.3404 28.2733 13.3783 28.2304 13.4234 28.196C13.4685 28.1616 13.5199 28.1365 13.5748 28.1221C13.7545 28.0739 13.8595 28.1379 13.9951 28.2162L13.9947 28.2169C14.0438 28.2454 14.0867 28.2832 14.1211 28.3283C14.1555 28.3734 14.1806 28.4249 14.1951 28.4797C14.2534 28.6973 14.1441 28.7873 14.1113 28.9119ZM10.9766 26.9728C11.0058 26.9222 11.0385 26.8736 11.0743 26.8275C11.0827 26.7784 11.0997 26.7311 11.1247 26.688C11.181 26.5882 11.1958 26.4702 11.166 26.3595C11.1362 26.2488 11.0641 26.1543 10.9653 26.0962C10.8294 26.0178 10.7289 25.9522 10.5453 26.0014C10.4904 26.0156 10.4388 26.0406 10.3935 26.0749C10.3483 26.1093 10.3103 26.1522 10.2818 26.2013L10.2825 26.2017L9.38275 27.7599C9.33487 27.859 9.32587 27.9725 9.35754 28.0779C9.38921 28.1833 9.45924 28.273 9.55381 28.3292L9.55421 28.3286L9.64678 28.382L9.64639 28.3828C9.74613 28.4387 9.8638 28.4533 9.97419 28.4235C10.0846 28.3937 10.1789 28.3219 10.237 28.2234C10.2559 28.1907 10.2791 28.1607 10.306 28.1341L10.9767 26.9728H10.9766ZM12.4958 28.0433C12.5169 27.8667 12.6576 27.799 12.5922 27.5544C12.5779 27.4994 12.5529 27.4478 12.5186 27.4026C12.4842 27.3573 12.4413 27.3193 12.3922 27.2908L12.3918 27.2915L12.2992 27.2381L12.2996 27.2373C12.1998 27.1814 12.0821 27.1668 11.9717 27.1967C11.8613 27.2265 11.767 27.2985 11.709 27.397L10.8215 28.9342L10.8208 28.9337C10.7644 29.0333 10.7498 29.1512 10.7801 29.2615C10.8299 29.4475 10.9382 29.4999 11.0731 29.5779L11.0727 29.5785C11.1724 29.6345 11.2901 29.6492 11.4005 29.6194C11.5109 29.5896 11.6052 29.5177 11.6633 29.4192C11.6915 29.3704 11.7291 29.3277 11.774 29.2937L12.4958 28.0436V28.0433ZM15.9025 13.7753C15.7899 13.7753 15.682 13.7306 15.6025 13.651C15.5229 13.5715 15.4782 13.4636 15.4782 13.3511C15.4782 13.2385 15.5229 13.1306 15.6025 13.0511C15.682 12.9715 15.7899 12.9268 15.9025 12.9268H21.3901C21.5026 12.9268 21.6105 12.9715 21.69 13.0511C21.7696 13.1306 21.8143 13.2385 21.8143 13.3511C21.8143 13.4636 21.7696 13.5715 21.69 13.651C21.6105 13.7306 21.5026 13.7753 21.3901 13.7753H15.9025ZM15.9025 15.7114C15.8463 15.7121 15.7906 15.7016 15.7385 15.6806C15.6864 15.6596 15.639 15.6285 15.5991 15.5891C15.5591 15.5496 15.5274 15.5026 15.5057 15.4508C15.4841 15.399 15.4729 15.3434 15.4729 15.2872C15.4729 15.2311 15.4841 15.1755 15.5057 15.1237C15.5274 15.0719 15.5591 15.0249 15.5991 14.9854C15.639 14.9459 15.6864 14.9148 15.7385 14.8938C15.7906 14.8728 15.8463 14.8624 15.9025 14.8631H21.3901C21.4462 14.8624 21.5019 14.8728 21.554 14.8938C21.6061 14.9148 21.6535 14.9459 21.6934 14.9854C21.7334 15.0249 21.7651 15.0719 21.7868 15.1237C21.8084 15.1755 21.8196 15.2311 21.8196 15.2872C21.8196 15.3434 21.8084 15.399 21.7868 15.4508C21.7651 15.5026 21.7334 15.5496 21.6934 15.5891C21.6535 15.6285 21.6061 15.6596 21.554 15.6806C21.5019 15.7016 21.4462 15.7121 21.3901 15.7114H15.9025ZM20.8411 2.7815H23.9407C24.7198 2.78224 25.4668 3.09207 26.0177 3.643C26.5686 4.19392 26.8784 4.94093 26.8791 5.72004V17.6791L30.767 22.522C30.9554 22.7574 31.0429 23.0579 31.0101 23.3576C30.9774 23.6574 30.8272 23.9319 30.5924 24.1211L29.276 25.1779C29.0633 25.3482 28.7966 25.4366 28.5243 25.4272C28.252 25.4178 27.992 25.3111 27.7916 25.1265L25.9064 25.8091C25.8763 25.8282 25.415 26.3282 24.9642 26.597C24.7793 26.7057 24.5834 26.7946 24.3798 26.8622C24.4311 26.9855 24.4675 27.1145 24.4881 27.2465C24.5267 27.4925 24.5092 27.7441 24.4368 27.9825C24.3644 28.2208 24.239 28.4396 24.0701 28.6226C23.9011 28.8056 23.6929 28.948 23.4611 29.0391C23.2293 29.1301 22.9799 29.1676 22.7315 29.1486C22.6537 30.1105 21.8255 30.7059 20.9253 30.6667C20.7404 31.6555 19.8538 32.2259 18.8972 31.9024C18.7101 32.5107 18.2738 32.9699 17.5744 32.9349C16.8159 32.8971 16.0827 32.2841 15.3729 31.7655C15.1759 31.8917 14.9479 31.9612 14.7139 31.9666C14.48 31.9719 14.2491 31.9128 14.0465 31.7957C13.7798 31.6418 13.605 31.5102 13.4566 31.2224C13.4028 31.2482 13.3475 31.2711 13.2912 31.291C12.9469 31.412 12.5657 31.4153 12.2539 31.2354L12.1012 31.1449C11.8501 30.9814 11.6646 30.7347 11.5773 30.4481C11.1903 30.5377 10.8946 30.4515 10.5569 30.2564L10.5573 30.2557C10.3828 30.155 10.2346 30.0145 10.1249 29.8456C10.0151 29.6767 9.94684 29.4843 9.92569 29.284C9.68064 29.2963 9.43727 29.2374 9.22497 29.1144L9.07224 29.0239C8.79835 28.8454 8.60339 28.5686 8.52751 28.2506C8.45162 27.9325 8.50061 27.5975 8.66437 27.3146L8.66364 27.3142L8.96751 26.7878C8.54251 26.3821 8.73217 26.4927 8.31109 26.2216C8.17773 26.1359 8.0446 26.0499 7.91172 25.9635C7.46891 25.9172 7.03456 25.8103 6.62092 25.6456L6.62032 25.647C6.37973 25.5489 6.15526 25.4152 5.95446 25.2503C5.75904 25.3504 5.53884 25.3918 5.32041 25.3697C5.10197 25.3475 4.89461 25.2626 4.72329 25.1253L3.40679 24.0684C3.17203 23.8792 3.02184 23.6047 2.98915 23.3049C2.95645 23.0052 3.0439 22.7047 3.23234 22.4694L7.11166 17.6376V5.71971C7.11238 4.94058 7.42221 4.19357 7.97313 3.64264C8.52406 3.09172 9.27107 2.78189 10.0502 2.78117H13.1584C13.1852 2.6946 13.239 2.61889 13.312 2.56512C13.3849 2.51135 13.4732 2.48234 13.5638 2.48234H15.1919C15.532 1.09259 17.2707 0.579203 18.3063 1.60053C18.5518 1.84234 18.7253 2.14764 18.8074 2.48234H20.4355C20.5261 2.48241 20.6143 2.51145 20.6872 2.56522C20.7601 2.61898 20.8138 2.69465 20.8406 2.78117L20.8411 2.7815ZM9.02416 15.3935V5.71971C9.02467 5.44788 9.13287 5.18734 9.32509 4.99513C9.5173 4.80292 9.77784 4.69471 10.0497 4.6942H13.1394V3.62957H10.0499C9.4958 3.63022 8.96454 3.85064 8.5727 4.24248C8.18087 4.63432 7.96045 5.16557 7.9598 5.71971V16.5805L8.68363 15.6787C8.77715 15.562 8.89295 15.465 9.02429 15.3935H9.02416ZM9.53881 16.1025C9.5007 16.1061 9.46372 16.1174 9.43008 16.1357C9.39643 16.1539 9.36681 16.1788 9.34298 16.2087L3.89182 22.9996C3.84415 23.0601 3.82218 23.137 3.83064 23.2136C3.8391 23.2901 3.87731 23.3603 3.93704 23.409L5.25348 24.4658C5.31402 24.5134 5.39085 24.5354 5.46743 24.5269C5.544 24.5185 5.61419 24.4803 5.66287 24.4206L11.1143 17.6299C11.162 17.5693 11.1839 17.4925 11.1754 17.4159C11.167 17.3393 11.1287 17.2691 11.069 17.2205L9.75257 16.1634C9.69229 16.1156 9.61553 16.0936 9.53907 16.1022L9.53881 16.1025ZM17.0751 23.0144C19.0583 23.1058 21.5725 25.5445 23.3325 26.8472C23.9091 27.2741 23.6894 28.1875 22.9797 28.298C22.8747 28.3148 22.7674 28.3106 22.6641 28.2858C22.5607 28.261 22.4632 28.216 22.3773 28.1534L20.3025 26.638C20.212 26.5721 20.099 26.5448 19.9884 26.5623C19.8778 26.5797 19.7786 26.6403 19.7127 26.7308C19.6468 26.8213 19.6195 26.9343 19.6369 27.045C19.6543 27.1556 19.715 27.2548 19.8055 27.3207L21.8797 28.8357C22.0031 29.8376 20.9262 29.9815 20.5173 29.6829L18.7428 28.3868C18.698 28.3542 18.6472 28.3307 18.5933 28.3177C18.5394 28.3047 18.4835 28.3024 18.4287 28.3111C18.3739 28.3197 18.3214 28.339 18.2741 28.3679C18.2268 28.3968 18.1856 28.4348 18.153 28.4796C18.1204 28.5244 18.0969 28.5753 18.0839 28.6292C18.0709 28.6831 18.0686 28.739 18.0772 28.7938C18.0858 28.8485 18.1052 28.9011 18.1341 28.9484C18.163 28.9957 18.201 29.0368 18.2458 29.0695L20.0202 30.3655C20.0484 30.3861 20.0774 30.4057 20.1072 30.4242C20.0646 30.8074 19.8349 31.1455 19.4343 31.1475C19.2101 31.1487 19.0395 31.0643 18.809 30.9067L17.6171 30.0362C17.5723 30.0035 17.5215 29.98 17.4676 29.967C17.4137 29.954 17.3578 29.9518 17.303 29.9604C17.2482 29.969 17.1957 29.9883 17.1484 30.0173C17.1011 30.0462 17.0599 30.0841 17.0273 30.129C16.9946 30.1738 16.9711 30.2246 16.9581 30.2785C16.9452 30.3324 16.9429 30.3883 16.9515 30.4431C16.9601 30.4979 16.9795 30.5504 17.0084 30.5977C17.0373 30.645 17.0753 30.6862 17.1201 30.7188L18.1356 31.4606C18.1034 31.6525 18.0129 31.9561 17.8225 32.0534C17.5488 32.1928 17.0354 31.9342 16.5879 31.6075L15.9143 31.1154L16.6787 29.7914L16.678 29.791C16.8418 29.508 16.8907 29.173 16.8148 28.855C16.7389 28.5369 16.5439 28.2601 16.27 28.0816L16.1173 27.9912C15.9722 27.9072 15.8119 27.8527 15.6457 27.8308C15.4794 27.8089 15.3105 27.8201 15.1486 27.8636C15.0599 27.8874 14.9739 27.9206 14.8922 27.9626C14.7419 27.6954 14.5776 27.5768 14.3259 27.4314L14.3263 27.4306C14.0458 27.2684 13.7141 27.219 13.3985 27.2925C13.3112 27.0059 13.1257 26.7591 12.8745 26.5956L12.7218 26.5052C12.5095 26.3822 12.2661 26.3233 12.021 26.3356C12 26.1352 11.9319 25.9427 11.8222 25.7737C11.7126 25.6047 11.5645 25.464 11.3901 25.3631L11.2972 25.3097L11.2968 25.3104C11.0138 25.1467 10.6788 25.0977 10.3608 25.1736C10.0427 25.2495 9.76595 25.4444 9.58742 25.7184L9.40334 26.0317C9.30548 25.9246 9.20156 25.8231 9.09209 25.7278C8.95118 25.6179 8.59351 25.3973 8.29163 25.1997C8.22963 25.1591 8.15801 25.1354 8.08398 25.1313C7.69472 25.0965 7.31227 25.0073 6.94783 24.8662L6.94843 24.8648C6.81187 24.809 6.68231 24.7375 6.56241 24.6516L11.1594 18.9253C12.0345 19.2664 13.2234 19.8063 13.934 19.9864C13.8087 20.1265 13.6894 20.2827 13.5596 20.4526C13.2695 20.8322 12.8923 21.3185 12.5839 21.6575C12.2969 21.973 12.0968 22.1171 12.01 22.5051C11.9631 22.7323 11.9642 22.9667 12.0133 23.1935C12.1834 23.9721 12.8616 24.3041 13.5997 24.3024C14.188 24.3012 14.612 24.0411 15.1237 23.7287C15.5582 23.4631 16.2947 23.0127 16.8493 23.0146L17.0751 23.0141L17.0751 23.0144ZM17.0419 22.1673C17.0627 22.1674 17.0835 22.1689 17.1041 22.1719C18.9777 22.2606 21.0902 23.9715 22.699 25.274C23.0009 25.5186 23.6392 26.0377 23.812 26.1501C24.5835 25.938 24.7953 25.7205 25.3764 25.1431C25.4217 25.098 25.4768 25.0637 25.5373 25.0429L27.2195 24.4339L22.6894 18.7909C21.9108 19.0718 21.2949 19.2775 20.6024 19.3855C19.8267 19.5063 18.9872 19.498 17.7675 19.3248C17.0648 19.2252 15.6571 19.8888 14.9464 20.2432C14.6648 20.3836 14.4434 20.6907 14.1862 21.0268C13.8315 21.5044 13.4512 21.9624 13.0471 22.399C12.9271 22.5243 12.8545 22.6 12.8352 22.6872C12.8009 22.8405 12.8286 23.1097 12.9441 23.2427C13.081 23.4005 13.4011 23.4579 13.5997 23.4575C14.2921 23.4562 15.0458 22.5868 16.2166 22.2644C16.4853 22.1908 16.7635 22.158 17.0419 22.1671V22.1673ZM24.1176 15.3496V5.71971C24.1171 5.67287 24.0983 5.62806 24.0652 5.59493C24.0321 5.5618 23.9873 5.54299 23.9405 5.54254H20.8597V5.60483C20.8597 5.71732 20.815 5.82521 20.7355 5.90476C20.6559 5.98431 20.548 6.02901 20.4355 6.02903H13.5636C13.4511 6.02903 13.3432 5.98434 13.2636 5.90479C13.184 5.82523 13.1394 5.71733 13.1394 5.60483V5.54227H10.0499C10.0031 5.54272 9.9583 5.56154 9.92518 5.59467C9.89206 5.6278 9.87326 5.6726 9.87283 5.71945V15.2945C10.0224 15.3356 10.162 15.407 10.2828 15.5042L11.5993 16.561C11.834 16.7502 11.9843 17.0247 12.017 17.3245C12.0497 17.6242 11.9622 17.9247 11.7737 18.1601L11.7147 18.2336C12.0401 18.3633 12.3357 18.4859 12.6051 18.5973C13.661 19.0348 14.288 19.2946 15.0394 19.2559C15.366 19.1026 15.7438 18.9371 16.1304 18.7965C16.7519 18.5707 17.3913 18.4165 17.8836 18.4864C19.0185 18.6475 19.784 18.6577 20.4734 18.5503C21.0119 18.4664 21.5239 18.3068 22.1392 18.0892C21.997 17.8533 21.9451 17.5738 21.9931 17.3026C22.041 17.0313 22.1856 16.7866 22.4001 16.6137L23.7165 15.5569C23.835 15.4615 23.9715 15.3911 24.1178 15.3496H24.1176ZM24.4938 16.1607C24.4511 16.1507 24.4066 16.1505 24.3638 16.1601C24.3209 16.1697 24.2809 16.189 24.2465 16.2163L22.93 17.2731C22.8703 17.3218 22.8321 17.392 22.8237 17.4686C22.8152 17.5452 22.8372 17.622 22.8848 17.6825L28.3362 24.4732C28.3849 24.533 28.4551 24.5712 28.5316 24.5796C28.6082 24.5881 28.685 24.5661 28.7456 24.5185L30.0621 23.4615C30.1218 23.4128 30.16 23.3426 30.1684 23.2661C30.1769 23.1895 30.1549 23.1127 30.1073 23.0521L24.6562 16.2616C24.6152 16.2105 24.5581 16.1749 24.4942 16.1607H24.4938ZM20.8597 4.6942H23.9405C24.2123 4.69473 24.4728 4.80294 24.665 4.99515C24.8572 5.18736 24.9654 5.4479 24.9659 5.71971V15.4416C25.1008 15.5135 25.2197 15.6122 25.3153 15.7314L26.0308 16.6223V5.71971C26.0301 5.16558 25.8097 4.63434 25.4179 4.2425C25.0261 3.85067 24.4949 3.63024 23.9407 3.62957H20.8597V4.6942Z" fill="#1798D5"/>
</svg>
