<svg width="34" height="34" viewBox="0 0 34 34" fill="none" xmlns="http://www.w3.org/2000/svg">
<path d="M9.43716 23.6894C9.24302 23.6894 9.08594 23.5323 9.08594 23.3382V2.63523C9.08594 2.54213 9.12292 2.45283 9.18876 2.387C9.25459 2.32117 9.34388 2.28418 9.43699 2.28418C9.53009 2.28418 9.61938 2.32117 9.68522 2.387C9.75105 2.45283 9.78804 2.54213 9.78804 2.63523V23.3378C9.78804 23.5316 9.63096 23.689 9.43716 23.689V23.6894Z" fill="#00A4D6"/>
<path d="M9.43801 13.6828C9.35894 13.6822 9.28237 13.6551 9.22065 13.6056C9.15893 13.5562 9.11568 13.4874 9.09787 13.4104C9.08007 13.3333 9.08875 13.2526 9.12252 13.1811C9.15629 13.1096 9.21318 13.0515 9.28399 13.0164L18.056 8.74257L9.28399 4.46877C9.241 4.44957 9.20231 4.42192 9.17023 4.38746C9.13814 4.35301 9.1133 4.31245 9.0972 4.26821C9.0811 4.22396 9.07406 4.17693 9.0765 4.12991C9.07893 4.0829 9.0908 4.03685 9.11139 3.9945C9.13198 3.95216 9.16087 3.91439 9.19635 3.88344C9.23183 3.85249 9.27317 3.82898 9.31791 3.81433C9.36265 3.79967 9.40989 3.79416 9.4568 3.79812C9.50372 3.80208 9.54936 3.81544 9.59101 3.83739L19.011 8.42671C19.0703 8.45546 19.1203 8.50032 19.1553 8.55615C19.1902 8.61198 19.2088 8.67653 19.2088 8.7424C19.2088 8.80828 19.1902 8.87282 19.1553 8.92865C19.1203 8.98448 19.0703 9.02934 19.011 9.05809L9.59101 13.6474C9.54171 13.6712 9.48901 13.6828 9.43801 13.6828ZM9.43631 26.1043C5.27301 26.1043 0.849609 25.1346 0.849609 23.3371C0.849609 21.5395 5.27335 20.5702 9.43631 20.5702C10.9721 20.5702 12.4728 20.6922 13.7754 20.9231C13.8671 20.9393 13.9486 20.9914 14.0019 21.0677C14.0553 21.1441 14.0761 21.2385 14.0598 21.3302C14.0435 21.4219 13.9915 21.5034 13.9151 21.5567C13.8388 21.6101 13.7444 21.6309 13.6526 21.6146C12.3899 21.3906 10.9316 21.2722 9.43631 21.2722C4.55119 21.2722 1.55171 22.4748 1.55171 23.3371C1.55171 24.1996 4.55119 25.4022 9.43631 25.4022C11.6269 25.4022 13.6768 25.1506 15.2071 24.6933C15.2513 24.6802 15.2976 24.6758 15.3434 24.6805C15.3893 24.6853 15.4337 24.699 15.4743 24.7209C15.5148 24.7428 15.5506 24.7725 15.5797 24.8082C15.6088 24.844 15.6305 24.8851 15.6437 24.9293C15.6569 24.9734 15.6612 25.0198 15.6565 25.0656C15.6517 25.1114 15.638 25.1559 15.6161 25.1964C15.5942 25.237 15.5645 25.2728 15.5288 25.3019C15.493 25.3309 15.4519 25.3527 15.4077 25.3659C13.8141 25.8419 11.6932 26.1043 9.43631 26.1043Z" fill="#00A4D6"/>
<path d="M21.5917 28.4476C19.4392 28.4476 17.3077 27.6153 15.7131 26.02C14.1474 24.455 13.2852 22.3701 13.2852 20.1499C13.2852 17.9297 14.1474 15.8452 15.7128 14.2801C17.2781 12.7144 19.363 11.8525 21.5832 11.8525C23.8034 11.8525 25.8883 12.7144 27.4533 14.2801C30.0927 16.9192 30.6425 21.0268 28.7912 24.2687C28.4259 24.9101 27.9759 25.4994 27.4533 26.0207C27.4207 26.0533 27.382 26.0791 27.3394 26.0968C27.2968 26.1144 27.2512 26.1235 27.2051 26.1235C27.159 26.1235 27.1134 26.1144 27.0708 26.0968C27.0282 26.0791 26.9895 26.0533 26.9569 26.0207C26.9243 25.9881 26.8984 25.9494 26.8808 25.9068C26.8632 25.8642 26.8541 25.8186 26.8541 25.7725C26.8541 25.7264 26.8632 25.6807 26.8808 25.6382C26.8984 25.5956 26.9243 25.5569 26.9569 25.5243C27.435 25.0473 27.8467 24.5081 28.1809 23.9212C29.8765 20.9526 29.3729 17.1926 26.9569 14.7765C25.5241 13.3438 23.6157 12.5546 21.5832 12.5546C19.5507 12.5546 17.6423 13.3434 16.2095 14.7765C14.7767 16.2096 13.9873 18.1177 13.9873 20.1502C13.9873 22.1828 14.7764 24.0912 16.2095 25.5243C18.6255 27.9403 22.3859 28.4435 25.3531 26.749C25.3931 26.7261 25.4373 26.7113 25.483 26.7055C25.5288 26.6997 25.5752 26.7029 25.6197 26.715C25.6642 26.7271 25.7058 26.7479 25.7423 26.7761C25.7787 26.8044 25.8093 26.8395 25.8322 26.8795C25.8551 26.9195 25.8698 26.9637 25.8757 27.0094C25.8815 27.0552 25.8782 27.1016 25.8661 27.1461C25.854 27.1906 25.8332 27.2322 25.805 27.2687C25.7768 27.3052 25.7416 27.3357 25.7016 27.3586C24.4499 28.0734 23.0332 28.4486 21.5917 28.4476Z" fill="#00A4D6"/>
<path d="M21.599 26.3527C19.9778 26.3527 18.3758 25.724 17.1926 24.5408C16.0216 23.3699 15.377 21.8106 15.377 20.1501C15.377 18.4895 16.0216 16.9303 17.1926 15.7593C18.3635 14.588 19.9228 13.9434 21.5833 13.9434C23.2439 13.9434 24.8031 14.588 25.9744 15.7593C27.7802 17.5654 28.2939 20.3476 27.2528 22.6824C26.9451 23.3755 26.5116 24.0056 25.9744 24.5408C25.9418 24.5734 25.9031 24.5993 25.8605 24.6169C25.818 24.6346 25.7723 24.6436 25.7262 24.6436C25.6801 24.6436 25.6345 24.6346 25.5919 24.6169C25.5493 24.5993 25.5106 24.5734 25.478 24.5408C25.4454 24.5082 25.4196 24.4695 25.4019 24.4269C25.3843 24.3844 25.3752 24.3387 25.3752 24.2926C25.3752 24.2465 25.3843 24.2009 25.4019 24.1583C25.4196 24.1157 25.4454 24.077 25.478 24.0444C25.9542 23.57 26.3384 23.0115 26.6112 22.3971C27.535 20.3255 27.0794 17.8578 25.478 16.2557C24.4393 15.2173 23.0565 14.6455 21.5833 14.6455C20.1101 14.6455 18.7277 15.2173 17.6893 16.2557C16.6506 17.2944 16.0787 18.6775 16.0787 20.1501C16.0787 21.6226 16.6506 23.0061 17.6893 24.0444C19.291 25.6462 21.7584 26.1014 23.8297 25.178C23.8718 25.1592 23.9172 25.1489 23.9633 25.1477C24.0094 25.1464 24.0552 25.1543 24.0983 25.1708C24.1413 25.1873 24.1807 25.2121 24.2142 25.2438C24.2476 25.2755 24.2745 25.3135 24.2933 25.3556C24.3121 25.3977 24.3224 25.4431 24.3236 25.4892C24.3248 25.5353 24.317 25.5812 24.3005 25.6242C24.284 25.6673 24.2592 25.7066 24.2274 25.7401C24.1957 25.7736 24.1577 25.8004 24.1156 25.8192C23.3235 26.1718 22.466 26.3535 21.599 26.3527Z" fill="#00A4D6"/>
<path d="M21.5789 24.2655C20.4977 24.2655 19.4512 23.8405 18.6726 23.0619C17.0675 21.4567 17.0675 18.8445 18.6726 17.239C20.2774 15.6342 22.8896 15.6335 24.4954 17.239C24.9737 17.7175 25.3266 18.3066 25.5227 18.954C25.7188 19.6015 25.7522 20.2873 25.6198 20.9508C25.4644 21.7511 25.0727 22.4865 24.4954 23.0622C24.4291 23.1256 24.3405 23.1604 24.2488 23.1593C24.157 23.1583 24.0694 23.1213 24.0045 23.0564C23.9396 22.9915 23.9027 22.9038 23.9017 22.812C23.9007 22.7203 23.9356 22.6318 23.999 22.5655C24.4773 22.0883 24.8018 21.479 24.9306 20.8158C25.0408 20.2653 25.0134 19.6962 24.8508 19.1589C24.6883 18.6215 24.3958 18.1326 23.999 17.7354C22.6669 16.404 20.5004 16.4047 19.169 17.7354C17.8376 19.0672 17.8376 21.234 19.169 22.5655C19.5659 22.9623 20.0547 23.2549 20.5918 23.4175C21.129 23.5801 21.698 23.6075 22.2484 23.4974C22.3385 23.4823 22.4309 23.503 22.5061 23.555C22.5812 23.6069 22.6331 23.6861 22.6508 23.7758C22.6685 23.8654 22.6506 23.9584 22.6009 24.035C22.5511 24.1117 22.4735 24.1659 22.3844 24.1862C22.1158 24.2393 21.8465 24.2651 21.5789 24.2655Z" fill="#00A4D6"/>
<path d="M21.2666 22.1435C21.2445 22.1435 21.2224 22.1414 21.2003 22.1373C20.8024 22.0621 20.4366 21.8684 20.1507 21.5818C19.7715 21.2018 19.5586 20.6869 19.5586 20.15C19.5586 19.6132 19.7715 19.0983 20.1507 18.7183C20.5335 18.3358 21.0418 18.125 21.5824 18.125C22.123 18.125 22.6317 18.3358 23.0142 18.7183C23.3008 19.0041 23.4945 19.3698 23.5697 19.7675C23.6332 20.0923 23.6158 20.4277 23.5189 20.7442C23.422 21.0606 23.2486 21.3483 23.0142 21.5818C22.9483 21.6476 22.8591 21.6846 22.766 21.6846C22.6729 21.6846 22.5836 21.6476 22.5178 21.5818C22.4519 21.516 22.415 21.4267 22.415 21.3336C22.415 21.2405 22.4519 21.1512 22.5178 21.0854C22.6708 20.933 22.784 20.7452 22.8472 20.5386C22.9104 20.3321 22.9218 20.1131 22.8802 19.9012C22.8314 19.6411 22.7051 19.4019 22.5178 19.215C22.018 18.7149 21.1472 18.7149 20.6471 19.215C20.3995 19.4633 20.2605 19.7996 20.2605 20.1502C20.2605 20.5008 20.3995 20.8371 20.6471 21.0854C20.8344 21.2724 21.0711 21.3978 21.3319 21.4475C21.4174 21.4641 21.4937 21.512 21.546 21.5818C21.5982 21.6515 21.6226 21.7383 21.6145 21.825C21.6064 21.9118 21.5662 21.9925 21.5019 22.0513C21.4376 22.1102 21.3537 22.143 21.2666 22.1435ZM31.0392 27.7868H28.8683C28.7752 27.7868 28.6859 27.7498 28.6201 27.684C28.5542 27.6181 28.5172 27.5288 28.5172 27.4357C28.5172 27.3426 28.5542 27.2533 28.6201 27.1875C28.6859 27.1217 28.7752 27.0847 28.8683 27.0847H31.0392C31.1323 27.0847 31.2216 27.1217 31.2874 27.1875C31.3533 27.2533 31.3902 27.3426 31.3902 27.4357C31.3902 27.5288 31.3533 27.6181 31.2874 27.684C31.2216 27.7498 31.1323 27.7868 31.0392 27.7868ZM31.9188 28.6664H29.7479C29.6547 28.6664 29.5654 28.6294 29.4995 28.5635C29.4337 28.4976 29.3967 28.4083 29.3967 28.3151C29.3967 28.222 29.4337 28.1327 29.4995 28.0668C29.5654 28.0009 29.6547 27.9639 29.7479 27.9639H31.9188C32.0119 27.9639 32.1013 28.0009 32.1671 28.0668C32.233 28.1327 32.27 28.222 32.27 28.3151C32.27 28.4083 32.233 28.4976 32.1671 28.5635C32.1013 28.6294 32.0119 28.6664 31.9188 28.6664ZM32.7977 29.5453H30.6268C30.5337 29.5453 30.4444 29.5083 30.3785 29.4424C30.3127 29.3766 30.2757 29.2873 30.2757 29.1942C30.2757 29.1011 30.3127 29.0118 30.3785 28.946C30.4444 28.8801 30.5337 28.8432 30.6268 28.8432H32.7977C32.8908 28.8432 32.9801 28.8801 33.0459 28.946C33.1117 29.0118 33.1487 29.1011 33.1487 29.1942C33.1487 29.2873 33.1117 29.3766 33.0459 29.4424C32.9801 29.5083 32.8908 29.5453 32.7977 29.5453Z" fill="#00A4D6"/>
<path d="M28.8688 29.958C28.675 29.958 28.5176 29.8009 28.5176 29.6071V27.4362C28.5176 27.343 28.5546 27.2537 28.6204 27.1878C28.6863 27.122 28.7757 27.085 28.8688 27.085C28.9619 27.085 29.0513 27.122 29.1171 27.1878C29.183 27.2537 29.22 27.343 29.22 27.4362V29.6071C29.22 29.8009 29.0629 29.958 28.8688 29.958ZM29.748 30.8375C29.5539 30.8375 29.3968 30.6801 29.3968 30.4863V28.3158C29.3968 28.2227 29.4338 28.1334 29.4996 28.0675C29.5655 28.0017 29.6548 27.9647 29.7479 27.9647C29.841 27.9647 29.9303 28.0017 29.9961 28.0675C30.0619 28.1334 30.0989 28.2227 30.0989 28.3158V30.4867C30.0989 30.6805 29.9418 30.8375 29.748 30.8375ZM30.6273 31.7168C30.4335 31.7168 30.2764 31.5594 30.2764 31.3656V29.1947C30.2764 29.1016 30.3134 29.0123 30.3792 28.9464C30.4451 28.8806 30.5343 28.8436 30.6274 28.8436C30.7206 28.8436 30.8098 28.8806 30.8757 28.9464C30.9415 29.0123 30.9785 29.1016 30.9785 29.1947V31.3656C30.9785 31.5594 30.8214 31.7168 30.6273 31.7168Z" fill="#00A4D6"/>
<path d="M31.2003 30.1176C31.1106 30.1176 31.0208 30.0836 30.9521 30.0149L21.3352 20.398C21.3026 20.3654 21.2768 20.3267 21.2591 20.2842C21.2415 20.2416 21.2324 20.1959 21.2324 20.1498C21.2324 20.1037 21.2415 20.0581 21.2591 20.0155C21.2768 19.9729 21.3026 19.9342 21.3352 19.9016C21.3678 19.869 21.4065 19.8432 21.4491 19.8255C21.4917 19.8079 21.5373 19.7988 21.5834 19.7988C21.6295 19.7988 21.6752 19.8079 21.7178 19.8255C21.7603 19.8432 21.799 19.869 21.8316 19.9016L31.4485 29.5182C31.4978 29.5673 31.5313 29.6298 31.5449 29.698C31.5585 29.7661 31.5516 29.8368 31.525 29.901C31.4985 29.9652 31.4534 30.02 31.3956 30.0586C31.3378 30.0972 31.2698 30.1177 31.2003 30.1176Z" fill="#00A4D6"/>
</svg>
