<svg width="32" height="32" viewBox="0 0 32 32" fill="none" xmlns="http://www.w3.org/2000/svg">
<path d="M17.1098 25.0002H14.8898C13.7498 25.0002 12.8198 24.1052 12.8198 23.0052C12.8198 22.6602 12.6398 22.3552 12.3248 22.1652C11.9748 21.9602 11.5598 21.9552 11.2048 22.1452C10.2248 22.6852 8.95982 22.3602 8.38982 21.4202L7.27982 19.5902C6.99982 19.1302 6.92481 18.6002 7.06481 18.0852C7.20481 17.5602 7.55481 17.1202 8.04481 16.8502C8.37481 16.6702 8.56981 16.3502 8.56981 15.9952C8.56981 15.6402 8.37481 15.3202 8.04481 15.1402C7.55481 14.8702 7.20481 14.4302 7.06481 13.9052C6.92481 13.3902 7.00482 12.8602 7.27982 12.4002L8.38982 10.5702C8.95982 9.63023 10.2198 9.30523 11.2048 9.84523C11.5598 10.0402 11.9748 10.0302 12.3248 9.82523C12.6398 9.64023 12.8198 9.33523 12.8198 8.98523C12.8198 7.88523 13.7498 6.99023 14.8898 6.99023H17.1098C18.2498 6.99023 19.1798 7.88523 19.1798 8.98523C19.1798 9.33023 19.3598 9.63523 19.6748 9.82523C20.0248 10.0302 20.4398 10.0352 20.7948 9.84523C21.7748 9.30523 23.0398 9.63023 23.6098 10.5702L24.7198 12.4002C24.9998 12.8602 25.0748 13.3902 24.9348 13.9052C24.7948 14.4302 24.4448 14.8702 23.9548 15.1402C23.6248 15.3202 23.4298 15.6402 23.4298 15.9952C23.4298 16.3502 23.6248 16.6702 23.9548 16.8502C24.4448 17.1202 24.7948 17.5602 24.9348 18.0852C25.0748 18.6002 24.9948 19.1302 24.7198 19.5902L23.6098 21.4202C23.0398 22.3602 21.7798 22.6852 20.7948 22.1452C20.4398 21.9502 20.0248 21.9552 19.6748 22.1652C19.3598 22.3502 19.1798 22.6552 19.1798 23.0052C19.1798 24.1052 18.2498 25.0002 17.1098 25.0002ZM11.7498 21.0052C12.1248 21.0052 12.4948 21.1052 12.8348 21.3052C13.4498 21.6702 13.8198 22.3052 13.8198 23.0052C13.8198 23.5552 14.2998 24.0002 14.8898 24.0002H17.1098C17.6998 24.0002 18.1798 23.5552 18.1798 23.0052C18.1798 22.3052 18.5498 21.6702 19.1648 21.3052C19.4828 21.1157 19.845 21.0127 20.2152 21.0065C20.5853 21.0004 20.9507 21.0913 21.2748 21.2702C21.7948 21.5552 22.4548 21.3902 22.7498 20.9002L23.8598 19.0702C23.9948 18.8502 24.0298 18.5902 23.9648 18.3402C23.8948 18.0802 23.7198 17.8602 23.4698 17.7252C22.8148 17.3652 22.4248 16.7202 22.4248 15.9902C22.4248 15.2602 22.8148 14.6152 23.4698 14.2602C23.7198 14.1252 23.8948 13.9052 23.9648 13.6452C24.0298 13.4002 23.9948 13.1402 23.8598 12.9152L22.7498 11.0852C22.4548 10.5952 21.7898 10.4302 21.2748 10.7152C20.6048 11.0802 19.8198 11.0702 19.1648 10.6802C18.5498 10.3152 18.1798 9.68023 18.1798 8.98023C18.1798 8.43023 17.6998 7.98523 17.1098 7.98523H14.8898C14.2998 7.98523 13.8198 8.43023 13.8198 8.98023C13.8198 9.68023 13.4498 10.3152 12.8348 10.6802C12.1798 11.0702 11.3898 11.0802 10.7248 10.7152C10.2048 10.4302 9.54481 10.5952 9.24981 11.0852L8.13982 12.9152C8.00482 13.1352 7.96981 13.3952 8.03481 13.6452C8.10481 13.9052 8.27981 14.1252 8.52981 14.2602C9.18481 14.6202 9.57481 15.2652 9.57481 15.9952C9.57481 16.7252 9.18481 17.3702 8.52981 17.7252C8.27981 17.8602 8.10481 18.0802 8.03481 18.3402C7.96981 18.5852 8.00482 18.8452 8.13982 19.0702L9.24981 20.9002C9.54481 21.3902 10.2098 21.5552 10.7248 21.2702C11.0498 21.0902 11.3998 21.0052 11.7498 21.0052Z" fill="#0A0F26"/>
<path d="M16 19.5C14.07 19.5 12.5 17.93 12.5 16C12.5 14.07 14.07 12.5 16 12.5C17.93 12.5 19.5 14.07 19.5 16C19.5 17.93 17.93 19.5 16 19.5ZM16 13.5C14.62 13.5 13.5 14.62 13.5 16C13.5 17.38 14.62 18.5 16 18.5C17.38 18.5 18.5 17.38 18.5 16C18.5 14.62 17.38 13.5 16 13.5Z" fill="#0A0F26"/>
<path d="M17.4 2.57544L18.3 1.90044C18.52 1.73544 18.565 1.42044 18.4 1.20044C18.235 0.980442 17.92 0.935442 17.7 1.10044L15.7 2.60044C15.48 2.76544 15.435 3.08044 15.6 3.30044L17.1 5.30044C17.2 5.43044 17.35 5.50044 17.5 5.50044C17.605 5.50044 17.71 5.46544 17.8 5.40044C18.02 5.23544 18.065 4.92044 17.9 4.70044L17.03 3.54544C20.1596 3.79394 23.0799 5.21505 25.2066 7.5244C27.3334 9.83376 28.5096 12.861 28.5 16.0004C28.5 16.2754 28.725 16.5004 29 16.5004C29.275 16.5004 29.5 16.2754 29.5 16.0004C29.5 9.01044 24.25 3.27544 17.4 2.57544ZM16.4 28.7004L14.9 26.7004C14.735 26.4804 14.42 26.4354 14.2 26.6004C13.98 26.7654 13.935 27.0804 14.1 27.3004L14.97 28.4554C11.8404 28.2069 8.92009 26.7858 6.79337 24.4765C4.66664 22.1671 3.4904 19.1399 3.5 16.0004C3.5 15.7254 3.275 15.5004 3 15.5004C2.725 15.5004 2.5 15.7254 2.5 16.0004C2.5 22.9904 7.75 28.7254 14.6 29.4254L13.7 30.1004C13.48 30.2654 13.435 30.5804 13.6 30.8004C13.7 30.9304 13.85 31.0004 14 31.0004C14.105 31.0004 14.21 30.9654 14.3 30.9004L16.3 29.4004C16.52 29.2354 16.565 28.9204 16.4 28.7004Z" fill="#6B71F2"/>
</svg>
