<svg width="34" height="34" viewBox="0 0 34 34" fill="none" xmlns="http://www.w3.org/2000/svg">
<path fill-rule="evenodd" clip-rule="evenodd" d="M23.8733 3.21368C24.9217 3.21356 25.9564 3.45282 26.8983 3.91323C27.8403 4.37364 28.6647 5.04303 29.3087 5.87039L24.3319 10.8469L20.4737 6.98834C20.3983 6.91705 20.2981 6.87796 20.1943 6.87941C20.0906 6.88085 19.9915 6.9227 19.9181 6.99607C19.8448 7.06943 19.8029 7.16852 19.8015 7.27226C19.8 7.37601 19.8391 7.47622 19.9104 7.5516L24.0509 11.6921C24.0878 11.7291 24.1317 11.7585 24.18 11.7785C24.2283 11.7986 24.2801 11.8089 24.3324 11.8089C24.3847 11.8089 24.4364 11.7986 24.4847 11.7785C24.533 11.7585 24.5769 11.7291 24.6138 11.6921L29.7694 6.53658C30.5589 7.84012 30.8943 9.36851 30.7231 10.8828C30.5519 12.3972 29.8838 13.8121 28.8232 14.9065C27.7626 16.0009 26.3693 16.713 24.8611 16.9316C23.3529 17.1502 21.8147 16.863 20.487 16.1148C19.1594 15.3665 18.117 14.1995 17.5229 12.7961C16.9288 11.3927 16.8164 9.832 17.2033 8.35795C17.5902 6.8839 18.4546 5.57957 19.6614 4.64884C20.8681 3.71811 22.3493 3.21343 23.8733 3.21368ZM23.8733 17.8031C25.2541 17.8038 26.6097 17.4325 27.7976 16.7285C28.9855 16.0244 29.9619 15.0135 30.6242 13.8018C31.2866 12.5901 31.6105 11.2225 31.5618 9.84248C31.5132 8.46247 31.0939 7.12101 30.3479 5.95898L32.3422 3.96453C32.3792 3.92751 32.4085 3.88356 32.4286 3.8352C32.4486 3.78683 32.4589 3.735 32.4589 3.68265C32.4588 3.63031 32.4485 3.57848 32.4285 3.53013C32.4084 3.48178 32.3791 3.43785 32.342 3.40084C32.305 3.36384 32.2611 3.3345 32.2127 3.31448C32.1643 3.29446 32.1125 3.28417 32.0602 3.28418C32.0078 3.2842 31.956 3.29452 31.9076 3.31457C31.8593 3.33461 31.8153 3.36399 31.7783 3.40101L29.8757 5.30362C29.0626 4.28828 28.0053 3.49574 26.8026 3.00012C25.6 2.50449 24.2913 2.32198 22.9989 2.46964C21.7065 2.61731 20.4727 3.09032 19.4129 3.84446C18.353 4.59859 17.5017 5.6092 16.9386 6.78178C16.3755 7.95436 16.119 9.25059 16.1931 10.5493C16.2671 11.8479 16.6693 13.1066 17.3621 14.2076C18.0548 15.3085 19.0155 16.2158 20.1542 16.8446C21.2929 17.4733 22.5725 17.803 23.8733 17.8028V17.8031ZM4.93953 21.8552C4.84146 21.8553 4.74557 21.8264 4.66399 21.772C4.5824 21.7176 4.51878 21.6402 4.48117 21.5496C4.44357 21.4591 4.43367 21.3594 4.45272 21.2632C4.47178 21.167 4.51894 21.0786 4.58823 21.0092C4.65752 20.9398 4.74584 20.8926 4.84201 20.8734C4.93817 20.8542 5.03787 20.864 5.12848 20.9014C5.2191 20.9389 5.29656 21.0024 5.35107 21.084C5.40558 21.1655 5.43469 21.2613 5.43472 21.3594C5.43461 21.4907 5.38243 21.6167 5.2896 21.7097C5.19678 21.8026 5.07089 21.855 4.93953 21.8552ZM4.93953 20.0669C4.68389 20.0669 4.43397 20.1426 4.22138 20.2846C4.00879 20.4266 3.84308 20.6284 3.74521 20.8645C3.64733 21.1007 3.62169 21.3606 3.67152 21.6113C3.72135 21.8621 3.84442 22.0924 4.02517 22.2732C4.20591 22.454 4.4362 22.5771 4.68692 22.627C4.93765 22.6769 5.19754 22.6513 5.43372 22.5535C5.66991 22.4557 5.87178 22.29 6.01382 22.0775C6.15585 21.8649 6.23166 21.615 6.23166 21.3594C6.23127 21.0168 6.09502 20.6883 5.85279 20.446C5.61057 20.2037 5.28213 20.0674 4.93953 20.0669ZM32.3553 21.5466C32.7335 21.3278 33.0115 20.9703 33.1305 20.55C33.2494 20.1296 33.2 19.6794 32.9926 19.2949C32.7852 18.9104 32.4362 18.6218 32.0195 18.4903C31.6029 18.3588 31.1515 18.3948 30.7609 18.5906C30.7488 18.5967 30.7364 18.6023 30.7237 18.6072L21.5622 22.1362C21.187 22.3855 20.7456 22.5164 20.2951 22.5118C20.111 22.5114 19.9275 22.4916 19.7475 22.4526L14.2391 21.2645C14.188 21.2535 14.1395 21.2325 14.0964 21.2027C14.0534 21.1729 14.0166 21.135 13.9883 21.091C13.9599 21.0471 13.9405 20.9979 13.9311 20.9464C13.9217 20.895 13.9225 20.8421 13.9336 20.791C13.9446 20.7398 13.9656 20.6913 13.9953 20.6483C14.0251 20.6053 14.0631 20.5685 14.107 20.5401C14.151 20.5118 14.2001 20.4923 14.2516 20.4829C14.3031 20.4735 14.3559 20.4744 14.4071 20.4854L19.9155 21.6736C20.5338 21.807 21.3113 21.6228 21.5575 20.9032C21.6124 20.7408 21.6343 20.569 21.622 20.3979C21.6096 20.2269 21.5632 20.06 21.4854 19.9071C21.4153 19.7656 21.3173 19.6397 21.1971 19.5371C21.077 19.4344 20.9374 19.3572 20.7866 19.3101L12.9081 16.8872C12.6629 16.8065 12.4037 16.7773 12.1466 16.8016C11.8896 16.8258 11.6404 16.9029 11.4146 17.0281L6.96213 19.3834L11.1411 26.7279L12.8026 25.8488C12.8815 25.807 12.972 25.793 13.0598 25.8089L20.1764 27.0977C20.8973 27.241 21.6456 27.1278 22.292 26.7779L32.3553 21.5466ZM10.8119 28.1249C10.8334 28.0474 10.8394 27.9664 10.8294 27.8866C10.8195 27.8068 10.7938 27.7298 10.7539 27.66L5.83787 19.0178C5.75736 18.8768 5.62424 18.7734 5.46766 18.7303C5.31109 18.6872 5.14381 18.7079 5.00248 18.7879L1.10602 21.0001C0.965243 21.0809 0.862089 21.2141 0.81902 21.3706C0.77595 21.5271 0.796451 21.6943 0.87606 21.8358L5.79278 30.4776C5.87324 30.6186 6.00627 30.7219 6.16274 30.7649C6.31921 30.8079 6.48635 30.7872 6.62757 30.7073L10.5244 28.4954C10.5943 28.4556 10.6557 28.4023 10.705 28.3387C10.7543 28.2752 10.7907 28.2025 10.8119 28.1249ZM30.4189 17.8707L22.3657 20.9728C22.4797 20.4916 22.4193 19.9856 22.1953 19.5447C22.077 19.308 21.9119 19.0977 21.7101 18.9265C21.5084 18.7553 21.274 18.6268 21.0212 18.5486L13.1428 16.1254C12.7975 16.0139 12.4332 15.974 12.072 16.0081C11.7108 16.0422 11.3604 16.1496 11.0421 16.3237L6.5684 18.6905L6.52982 18.6241C6.34488 18.2997 6.03887 18.0619 5.67887 17.9628C5.31887 17.8637 4.93426 17.9114 4.60935 18.0954L0.712568 20.3071C0.38784 20.4922 0.149784 20.7986 0.0506047 21.159C-0.0485741 21.5194 -0.000778578 21.9044 0.183509 22.2296L5.10023 30.8717C5.28511 31.1961 5.59112 31.434 5.95115 31.5331C6.31117 31.6322 6.69581 31.5845 7.0207 31.4004L10.9171 29.1883C11.2152 29.0187 11.4412 28.7463 11.5528 28.4221C11.6645 28.0978 11.6541 27.744 11.5236 27.4269L13.0528 26.6178L20.0343 27.8821C20.2874 27.9287 20.5443 27.9525 20.8017 27.9532C21.4499 27.9513 22.0877 27.7905 22.6593 27.4849L32.7289 22.2502C32.7329 22.248 32.7376 22.2458 32.7417 22.2436C33.301 21.9244 33.7141 21.4 33.8933 20.7814C34.0725 20.1629 34.0038 19.4989 33.7016 18.9301C33.3995 18.3614 32.8878 17.9327 32.2749 17.7349C31.6621 17.5372 30.9963 17.5858 30.4187 17.8707L30.4189 17.8707Z" fill="#0291F7"/>
</svg>
