<svg width="34" height="34" viewBox="0 0 34 34" fill="none" xmlns="http://www.w3.org/2000/svg">
<g clip-path="url(#clip0_338_344)">
<path d="M32.9375 33.2697H1.0625C0.879219 33.2697 0.730469 33.1209 0.730469 32.9376C0.730469 32.7543 0.879219 32.6056 1.0625 32.6056H32.9375C33.1208 32.6056 33.2695 32.7543 33.2695 32.9376C33.2695 33.1209 33.1208 33.2697 32.9375 33.2697ZM3.34621 21.0077C3.19613 21.0077 3.06 20.9048 3.02348 20.7527C3.01337 20.7103 3.01172 20.6663 3.01863 20.6232C3.02555 20.5802 3.04088 20.5389 3.06377 20.5018C3.08665 20.4646 3.11663 20.4324 3.15199 20.4069C3.18735 20.3813 3.2274 20.363 3.26984 20.353C3.29043 20.3483 3.32363 20.3404 3.36812 20.3304C4.6252 20.0455 5.96727 19.6677 7.35648 19.2061C13.0727 17.3076 23.4142 12.6904 29.1736 2.96184L26.6475 3.5854C26.4695 3.62923 26.2896 3.52032 26.2457 3.34235C26.2019 3.16438 26.3108 2.98442 26.4888 2.94059L29.7653 2.13177C29.9432 2.08794 30.1232 2.19684 30.167 2.37481L30.9759 5.6513C31.0197 5.82927 30.9108 6.00923 30.7328 6.05306C30.5548 6.09688 30.3749 5.98864 30.3311 5.81001L29.7208 3.3397C23.8478 13.2269 13.3623 17.9106 7.565 19.8363C6.15453 20.3045 4.79187 20.689 3.51355 20.9785C3.47238 20.9878 3.44184 20.9945 3.42258 20.9991C3.39734 21.0051 3.37145 21.0077 3.34621 21.0077Z" fill="#1A3B70"/>
<path d="M8.69324 32.9375H8.02918V25.15C8.02918 24.9442 7.86184 24.7768 7.65598 24.7768H4.19688C3.99102 24.7768 3.82367 24.9442 3.82367 25.15V32.9375H3.15961V25.15C3.15961 24.5783 3.62512 24.1128 4.19688 24.1128H7.65664C8.2284 24.1128 8.69391 24.5783 8.69391 25.15V32.9375H8.69324ZM16.0756 32.9375H15.4116V21.5555C15.4116 21.3496 15.2442 21.1823 15.0384 21.1823H11.5786C11.3727 21.1823 11.2054 21.3496 11.2054 21.5555V32.9375H10.5413V21.5555C10.5413 20.9837 11.0068 20.5182 11.5786 20.5182H15.0384C15.6101 20.5182 16.0756 20.9837 16.0756 21.5555V32.9375ZM23.458 32.9375H22.7939V17.9616C22.7939 17.7557 22.6266 17.5884 22.4207 17.5884H18.961C18.7551 17.5884 18.5878 17.7557 18.5878 17.9616V32.9375H17.9237V17.9616C17.9237 17.3898 18.3892 16.9243 18.961 16.9243H22.4207C22.9925 16.9243 23.458 17.3898 23.458 17.9616V32.9375ZM30.8404 32.9375H30.1763V14.3677C30.1763 14.1618 30.009 13.9945 29.8031 13.9945H26.3434C26.1375 13.9945 25.9702 14.1618 25.9702 14.3677V32.9375H25.3061V14.3677C25.3061 13.7959 25.7716 13.3304 26.3434 13.3304H29.8031C30.3749 13.3304 30.8404 13.7959 30.8404 14.3677V32.9375ZM10.0127 15.3113C5.99316 15.3113 2.72266 12.0408 2.72266 8.02121C2.72266 4.00098 5.99316 0.730469 10.0127 0.730469C14.0323 0.730469 17.3035 4.00098 17.3035 8.02121C17.3035 12.0408 14.033 15.3113 10.0127 15.3113ZM10.0127 1.39453C6.35906 1.39453 3.38672 4.36688 3.38672 8.02121C3.38672 11.6755 6.35906 14.6472 10.0127 14.6472C13.6664 14.6472 16.6394 11.6749 16.6394 8.02121C16.6394 4.36754 13.6671 1.39453 10.0127 1.39453Z" fill="#1A3B70"/>
<path d="M10.0124 13.7328C6.86273 13.7328 4.30078 11.1702 4.30078 8.02117C4.30078 4.87219 6.8634 2.30957 10.0124 2.30957C13.1614 2.30957 15.724 4.87219 15.724 8.02117C15.724 11.1702 13.162 13.7328 10.0124 13.7328ZM10.0124 2.97297C7.2293 2.97297 4.96484 5.23742 4.96484 8.02051C4.96484 10.8036 7.2293 13.068 10.0124 13.068C12.7955 13.068 15.0599 10.8036 15.0599 8.02051C15.0599 5.23742 12.7961 2.97297 10.0124 2.97297Z" fill="#F88125"/>
<path d="M10.0132 12.5168C9.82996 12.5168 9.68121 12.368 9.68121 12.1847V12.0167C9.68121 11.8334 9.82996 11.6847 10.0132 11.6847C10.1965 11.6847 10.3453 11.8334 10.3453 12.0167V12.1847C10.3453 12.368 10.1965 12.5168 10.0132 12.5168ZM12.957 11.2975C12.872 11.2975 12.787 11.265 12.722 11.2006L12.6031 11.0817C12.4736 10.9522 12.4736 10.7417 12.6031 10.6122C12.7326 10.4827 12.9431 10.4827 13.0726 10.6122L13.1914 10.7311C13.2536 10.7934 13.2886 10.8778 13.2886 10.9658C13.2886 11.0539 13.2536 11.1383 13.1914 11.2006C13.127 11.265 13.042 11.2975 12.957 11.2975ZM7.07078 11.2955C6.98578 11.2955 6.90078 11.263 6.8357 11.1986C6.77351 11.1363 6.73857 11.0519 6.73857 10.9638C6.73857 10.8758 6.77351 10.7914 6.8357 10.7291L6.95457 10.6102C7.08406 10.4807 7.29457 10.4807 7.42406 10.6102C7.55355 10.7397 7.55355 10.9502 7.42406 11.0797L7.3052 11.1986C7.24078 11.263 7.15578 11.2955 7.07078 11.2955ZM14.1762 8.35375H14.0082C13.825 8.35375 13.6762 8.205 13.6762 8.02172C13.6762 7.83844 13.825 7.68969 14.0082 7.68969H14.1762C14.3595 7.68969 14.5083 7.83844 14.5083 8.02172C14.5083 8.205 14.3595 8.35375 14.1762 8.35375ZM6.01957 8.35242H5.85156C5.66828 8.35242 5.51953 8.20367 5.51953 8.02039C5.51953 7.83711 5.66828 7.68836 5.85156 7.68836H6.01957C6.20285 7.68836 6.3516 7.83711 6.3516 8.02039C6.3516 8.20367 6.20285 8.35242 6.01957 8.35242ZM12.8382 5.52883C12.7532 5.52883 12.6682 5.49629 12.6031 5.43188C12.5409 5.36958 12.506 5.28516 12.506 5.19713C12.506 5.1091 12.5409 5.02467 12.6031 4.96238L12.722 4.84352C12.8514 4.71402 13.062 4.71402 13.1914 4.84352C13.3209 4.97301 13.3209 5.18352 13.1914 5.31301L13.0726 5.43188C13.0419 5.46279 13.0054 5.48728 12.9651 5.50393C12.9249 5.52057 12.8817 5.52904 12.8382 5.52883ZM7.18965 5.52883C7.10465 5.52883 7.01965 5.49629 6.95457 5.43188L6.8357 5.31301C6.70621 5.18352 6.70621 4.97301 6.8357 4.84352C6.9652 4.71402 7.1757 4.71402 7.3052 4.84352L7.42406 4.96238C7.48626 5.02467 7.52119 5.1091 7.52119 5.19713C7.52119 5.28516 7.48626 5.36958 7.42406 5.43188C7.35965 5.49629 7.27465 5.52883 7.18965 5.52883ZM10.0132 4.35875C9.82996 4.35875 9.68121 4.21 9.68121 4.02672V3.85937C9.68121 3.67609 9.82996 3.52734 10.0132 3.52734C10.1965 3.52734 10.3453 3.67609 10.3453 3.85937V4.02672C10.3453 4.21066 10.1965 4.35875 10.0132 4.35875ZM11.682 10.0212C11.597 10.0212 11.512 9.98867 11.447 9.92426L9.77816 8.25547C9.74733 8.22459 9.7229 8.18793 9.70626 8.14759C9.68962 8.10725 9.68111 8.06403 9.68121 8.02039V5.2134C9.68121 5.03012 9.82996 4.88137 10.0132 4.88137C10.1965 4.88137 10.3453 5.03012 10.3453 5.2134V7.88359L11.9164 9.45543C11.9786 9.51772 12.0136 9.60215 12.0136 9.69018C12.0136 9.7782 11.9786 9.86263 11.9164 9.92492C11.852 9.98934 11.767 10.0212 11.682 10.0212Z" fill="#1A3B70"/>
<path d="M10.0137 8.61914C10.3437 8.61914 10.6113 8.35156 10.6113 8.02148C10.6113 7.69141 10.3437 7.42383 10.0137 7.42383C9.6836 7.42383 9.41602 7.69141 9.41602 8.02148C9.41602 8.35156 9.6836 8.61914 10.0137 8.61914Z" fill="#1A3B70"/>
</g>
<defs>
<clipPath id="clip0_338_344">
<rect width="34" height="34" fill="white"/>
</clipPath>
</defs>
</svg>
