<svg width="34" height="34" viewBox="0 0 34 34" fill="none" xmlns="http://www.w3.org/2000/svg">
<path fill-rule="evenodd" clip-rule="evenodd" d="M12.1405 10.4903C11.3799 10.4903 10.6404 10.8099 10.0855 11.4146C9.42629 12.1342 8.98118 13.3636 9.711 14.6558C9.76081 14.7445 9.76688 14.8517 9.72669 14.9452C9.68708 15.0394 9.60571 15.109 9.50668 15.1343C8.90727 15.2887 8.37625 15.6381 7.99723 16.1275C7.61822 16.6169 7.41273 17.2185 7.41312 17.8375C7.41312 19.3761 8.6651 20.6281 10.2043 20.6281H23.7958C25.3344 20.6281 26.5864 19.3763 26.5864 17.8375C26.5864 16.2988 25.3344 15.0468 23.7958 15.0468C23.7454 15.0468 23.6957 15.0351 23.6506 15.0127C23.6055 14.9904 23.5662 14.9579 23.5358 14.9178C23.5051 14.8779 23.484 14.8315 23.4743 14.7821C23.4645 14.7328 23.4664 14.6818 23.4797 14.6333C23.856 13.2495 23.1636 12.1717 22.3908 11.6242C21.6216 11.0801 20.3806 10.7873 19.2037 11.6003C19.1609 11.6298 19.1116 11.6486 19.0601 11.6553C19.0085 11.662 18.9561 11.6564 18.9071 11.6388C18.8582 11.6213 18.8141 11.5924 18.7785 11.5544C18.7429 11.5165 18.7169 11.4706 18.7025 11.4207C18.4023 10.3736 17.5441 9.61574 16.4629 9.44378C15.3735 9.27123 14.3166 9.72574 13.705 10.6301C13.6618 10.6944 13.5972 10.7412 13.5227 10.7623C13.4481 10.7833 13.3685 10.7772 13.2981 10.745C12.9349 10.5781 12.5401 10.4914 12.1405 10.4903ZM23.7958 21.2834H10.2045C8.30392 21.2834 6.75781 19.7373 6.75781 17.8375C6.75755 17.1413 6.96813 16.4614 7.36182 15.8872C7.75551 15.313 8.31386 14.8716 8.96334 14.6209C8.43569 13.3854 8.66981 11.9901 9.60296 10.9722C10.5743 9.91202 12.0093 9.56319 13.3213 10.0467C14.0928 9.07318 15.3119 8.59729 16.5658 8.79671C17.76 8.98632 18.7333 9.75516 19.1914 10.8413C20.3375 10.2303 21.6747 10.3142 22.7699 11.0897C23.8579 11.8597 24.3924 13.1329 24.1952 14.4141C25.9079 14.6127 27.2417 16.0723 27.2417 17.8376C27.2417 19.7373 25.6962 21.2834 23.7958 21.2834Z" fill="#DB4437"/>
<path fill-rule="evenodd" clip-rule="evenodd" d="M17.0007 25.3663C16.9138 25.3662 16.8305 25.3317 16.7691 25.2702C16.7076 25.2088 16.6731 25.1255 16.673 25.0386V20.9558C16.673 20.8689 16.7076 20.7856 16.769 20.7241C16.8305 20.6627 16.9138 20.6281 17.0007 20.6281C17.0876 20.6281 17.1709 20.6627 17.2324 20.7241C17.2938 20.7856 17.3284 20.8689 17.3284 20.9558V25.0386C17.3284 25.2194 17.1815 25.3663 17.0007 25.3663ZM7.08602 18.165H4.00596C3.92103 18.162 3.84055 18.1262 3.7815 18.0651C3.72246 18.004 3.68945 17.9223 3.68945 17.8373C3.68945 17.7523 3.72246 17.6707 3.7815 17.6095C3.84055 17.5484 3.92103 17.5126 4.00596 17.5097H7.08602C7.12904 17.5097 7.17163 17.5181 7.21138 17.5346C7.25112 17.5511 7.28722 17.5752 7.31763 17.6056C7.34804 17.6361 7.37216 17.6722 7.3886 17.7119C7.40505 17.7517 7.4135 17.7943 7.41348 17.8373C7.41367 18.0183 7.26759 18.1652 7.08602 18.165ZM29.9954 18.165H26.9148C26.8279 18.165 26.7446 18.1304 26.6831 18.069C26.6217 18.0075 26.5871 17.9242 26.5871 17.8373C26.5871 17.7504 26.6217 17.6671 26.6831 17.6056C26.7446 17.5442 26.8279 17.5097 26.9148 17.5097H29.9954C30.0823 17.5097 30.1657 17.5442 30.2271 17.6056C30.2886 17.6671 30.3231 17.7504 30.3231 17.8373C30.3231 17.9242 30.2886 18.0075 30.2271 18.069C30.1657 18.1304 30.0823 18.165 29.9954 18.165ZM26.4246 12.0205H22.9922C22.9072 12.0176 22.8268 11.9818 22.7677 11.9207C22.7087 11.8595 22.6757 11.7779 22.6757 11.6929C22.6757 11.6079 22.7087 11.5262 22.7677 11.4651C22.8268 11.404 22.9072 11.3682 22.9922 11.3652H26.0969V7.21359C26.0969 7.03202 26.2436 6.88613 26.4244 6.88613C26.4674 6.88608 26.5101 6.89451 26.5498 6.91095C26.5896 6.92738 26.6257 6.95149 26.6562 6.98191C26.6866 7.01232 26.7108 7.04843 26.7273 7.08819C26.7438 7.12794 26.7522 7.17056 26.7522 7.21359V11.6931C26.7522 11.8741 26.6054 12.0205 26.4246 12.0205ZM9.46155 12.0205H6.03012C5.98708 12.0206 5.94446 12.0122 5.90468 11.9957C5.86491 11.9793 5.82877 11.9552 5.79832 11.9248C5.76787 11.8944 5.74371 11.8582 5.72723 11.8185C5.71075 11.7787 5.70227 11.7361 5.70227 11.6931V7.2132C5.70227 7.03163 5.84835 6.88574 6.02992 6.88574C6.21091 6.88574 6.35757 7.03163 6.35757 7.2132V11.365H9.46155C9.54649 11.368 9.62696 11.4038 9.68601 11.4649C9.74506 11.526 9.77806 11.6077 9.77806 11.6927C9.77806 11.7777 9.74506 11.8593 9.68601 11.9205C9.62696 11.9816 9.54649 12.0176 9.46155 12.0205ZM6.78778 27.1143C6.74475 27.1144 6.70214 27.1059 6.66238 27.0895C6.62261 27.073 6.58648 27.0489 6.55604 27.0185C6.52559 26.9881 6.50144 26.952 6.48495 26.9122C6.46846 26.8725 6.45995 26.8299 6.45993 26.7869V23.9209C6.45993 23.7402 6.60679 23.5935 6.78758 23.5935H11.7996V20.9556C11.7996 20.8687 11.8342 20.7854 11.8956 20.7239C11.957 20.6625 12.0404 20.6279 12.1273 20.6279C12.2142 20.6279 12.2975 20.6625 12.359 20.7239C12.4204 20.7854 12.4549 20.8687 12.4549 20.9556V23.9209C12.4549 24.1019 12.3081 24.2486 12.1273 24.2486H7.11543V26.7867C7.11543 26.9677 6.96856 27.1143 6.78778 27.1143ZM27.2136 27.1143C27.1706 27.1144 27.128 27.1059 27.0882 27.0895C27.0485 27.073 27.0124 27.0489 26.9819 27.0185C26.9515 26.9881 26.9274 26.952 26.9109 26.9122C26.8944 26.8725 26.886 26.8299 26.886 26.7869V24.2486H21.8741C21.7872 24.2486 21.7039 24.2141 21.6424 24.1527C21.581 24.0913 21.5464 24.008 21.5463 23.9211V20.9556C21.5463 20.8687 21.5808 20.7854 21.6422 20.7239C21.7037 20.6625 21.787 20.6279 21.8739 20.6279C21.9608 20.6279 22.0442 20.6625 22.1056 20.7239C22.1671 20.7854 22.2016 20.8687 22.2016 20.9556V23.5933H27.2136C27.3946 23.5933 27.5411 23.7402 27.5411 23.9209L27.5413 26.7867C27.5413 26.9677 27.3944 27.1143 27.2136 27.1143Z" fill="#DB4437"/>
<path fill-rule="evenodd" clip-rule="evenodd" d="M26.424 5.8553C26.2873 5.85551 26.1563 5.90989 26.0597 6.00652C25.9631 6.10315 25.9087 6.23415 25.9085 6.3708C25.9087 6.50743 25.9631 6.63837 26.0598 6.73496C26.1564 6.83155 26.2874 6.8859 26.424 6.88611C26.5606 6.88585 26.6915 6.83147 26.7881 6.73489C26.8847 6.63831 26.939 6.50739 26.9393 6.3708C26.9391 6.23418 26.8847 6.10321 26.7881 6.00659C26.6916 5.90996 26.5606 5.85556 26.424 5.8553ZM26.424 7.54161C26.1136 7.54124 25.816 7.41778 25.5965 7.19829C25.377 6.9788 25.2535 6.68121 25.2532 6.3708C25.2535 6.06044 25.3769 5.76287 25.5964 5.5434C25.8158 5.32394 26.1134 5.20051 26.4238 5.2002C27.0691 5.2 27.5946 5.72491 27.5946 6.3708C27.5941 6.68111 27.4706 6.97856 27.2512 7.19798C27.0317 7.4174 26.7343 7.54109 26.424 7.54161ZM6.02951 5.8553C5.89278 5.8553 5.76164 5.90961 5.66493 6.00628C5.56822 6.10295 5.51387 6.23407 5.51382 6.3708C5.51392 6.50751 5.5683 6.63857 5.665 6.7352C5.7617 6.83183 5.89281 6.88611 6.02951 6.88611C6.16319 6.88159 6.28989 6.82531 6.38286 6.72915C6.47582 6.63298 6.52779 6.50446 6.52779 6.37071C6.52779 6.23695 6.47582 6.10843 6.38286 6.01226C6.28989 5.9161 6.16319 5.85982 6.02951 5.8553ZM6.02951 7.54161C5.71907 7.5413 5.42144 7.41785 5.2019 7.19836C4.98237 6.97886 4.85888 6.68124 4.85851 6.3708C4.85882 6.0604 4.98228 5.7628 5.20179 5.54333C5.42129 5.32386 5.71891 5.20045 6.02932 5.2002C6.3396 5.20061 6.63705 5.32409 6.85639 5.54355C7.07574 5.76301 7.19908 6.06052 7.19934 6.3708C7.19934 7.01591 6.67443 7.54141 6.02932 7.54141L6.02951 7.54161ZM3.1624 17.3224C3.06055 17.3224 2.96099 17.3526 2.87632 17.4092C2.79165 17.4659 2.72565 17.5463 2.68668 17.6404C2.64772 17.7345 2.63752 17.838 2.65739 17.9379C2.67725 18.0378 2.72629 18.1296 2.7983 18.2016C2.8703 18.2737 2.96205 18.3227 3.06194 18.3426C3.16183 18.3626 3.26538 18.3524 3.3595 18.3135C3.45362 18.2745 3.53408 18.2086 3.59072 18.1239C3.64736 18.0393 3.67763 17.9397 3.67771 17.8379C3.67771 17.7012 3.62343 17.5701 3.5268 17.4734C3.43018 17.3767 3.29911 17.3225 3.1624 17.3224ZM3.1624 19.0077C2.85221 19.0074 2.5548 18.884 2.33542 18.6647C2.11604 18.4454 1.9926 18.1481 1.99219 17.8379C1.99239 17.5275 2.11571 17.23 2.33506 17.0105C2.55441 16.791 2.85189 16.6675 3.16221 16.6671C3.47258 16.6674 3.77015 16.7908 3.98961 17.0103C4.20907 17.2297 4.3325 17.5273 4.33282 17.8377C4.3324 18.148 4.20892 18.4454 3.98946 18.6647C3.77 18.8841 3.47269 19.0074 3.1624 19.0077ZM30.8372 17.3224C30.7353 17.3224 30.6358 17.3526 30.5511 17.4092C30.4664 17.4659 30.4004 17.5463 30.3615 17.6404C30.3225 17.7345 30.3123 17.838 30.3322 17.9379C30.352 18.0378 30.4011 18.1296 30.4731 18.2016C30.5451 18.2737 30.6368 18.3227 30.7367 18.3426C30.8366 18.3626 30.9402 18.3524 31.0343 18.3135C31.1284 18.2745 31.2089 18.2086 31.2655 18.1239C31.3222 18.0393 31.3524 17.9397 31.3525 17.8379C31.3523 17.7012 31.298 17.5702 31.2014 17.4735C31.1048 17.3769 30.9739 17.3226 30.8372 17.3224ZM30.8372 19.0077C30.527 19.0073 30.2297 18.884 30.0103 18.6647C29.791 18.4454 29.6676 18.148 29.6672 17.8379C29.6674 17.5275 29.7907 17.23 30.01 17.0105C30.2294 16.791 30.5269 16.6675 30.8372 16.6671C31.1476 16.6674 31.4451 16.7908 31.6646 17.0103C31.8841 17.2297 32.0075 17.5273 32.0078 17.8377C32.0074 18.148 31.8839 18.4454 31.6644 18.6647C31.445 18.8841 31.1475 19.0074 30.8372 19.0077ZM17.0001 25.3666C16.8635 25.3667 16.7326 25.4209 16.6359 25.5174C16.5393 25.6139 16.4849 25.7448 16.4846 25.8813C16.4848 26.018 16.5392 26.149 16.6358 26.2456C16.7324 26.3423 16.8634 26.3966 17.0001 26.3968C17.1367 26.3968 17.2677 26.3426 17.3643 26.246C17.4609 26.1494 17.5152 26.0183 17.5152 25.8817C17.5152 25.7451 17.4609 25.6141 17.3643 25.5175C17.2677 25.4209 17.1367 25.3666 17.0001 25.3666ZM17.0001 27.0521C16.6897 27.0518 16.3922 26.9284 16.1727 26.7089C15.9532 26.4895 15.8298 26.1919 15.8295 25.8815C15.8299 25.5712 15.9533 25.2737 16.1728 25.0543C16.3922 24.8349 16.6898 24.7116 17.0001 24.7113C17.3103 24.7117 17.6077 24.8351 17.827 25.0544C18.0464 25.2738 18.1698 25.5711 18.1701 25.8813C18.1699 26.1916 18.0465 26.4891 17.8272 26.7086C17.6078 26.928 17.3104 27.0517 17.0001 27.0521ZM27.213 27.1147C27.0764 27.1146 26.9454 27.1688 26.8487 27.2653C26.7521 27.3619 26.6977 27.4928 26.6975 27.6294C26.6976 27.7661 26.7519 27.8972 26.8486 27.9939C26.9452 28.0905 27.0763 28.1449 27.213 28.1449C27.3496 28.1449 27.4807 28.0906 27.5773 27.994C27.6739 27.8974 27.7281 27.7664 27.7281 27.6298C27.7281 27.4932 27.6739 27.3622 27.5773 27.2656C27.4807 27.169 27.3496 27.1147 27.213 27.1147ZM27.213 28.8002C26.9026 28.7999 26.6051 28.6765 26.3856 28.457C26.1662 28.2375 26.0427 27.94 26.0424 27.6296C26.0428 27.3193 26.1662 27.0218 26.3857 26.8024C26.6052 26.583 26.9027 26.4596 27.213 26.4594C27.5232 26.4598 27.8206 26.5831 28.0399 26.8025C28.2593 27.0218 28.3827 27.3192 28.383 27.6294C28.3828 27.9397 28.2595 28.2372 28.0402 28.4567C27.8208 28.6762 27.5233 28.7997 27.213 28.8V28.8002ZM6.78717 27.1147C6.65056 27.1147 6.51954 27.169 6.42294 27.2656C6.32634 27.3622 6.27207 27.4932 6.27207 27.6298C6.27207 27.7664 6.32634 27.8974 6.42294 27.994C6.51954 28.0906 6.65056 28.1449 6.78717 28.1449C6.92379 28.1446 7.05474 28.0902 7.15133 27.9936C7.24792 27.897 7.30227 27.766 7.30248 27.6294C7.30222 27.4929 7.24782 27.362 7.15123 27.2655C7.05463 27.169 6.92371 27.1148 6.78717 27.1147ZM6.78717 28.8002C6.47686 28.7999 6.17936 28.6764 5.95997 28.4569C5.74058 28.2375 5.61722 27.9399 5.61696 27.6296C5.61727 27.3194 5.74063 27.0219 5.95998 26.8025C6.17933 26.5832 6.47675 26.4598 6.78698 26.4594C7.09729 26.4596 7.39485 26.5829 7.61435 26.8023C7.83386 27.0216 7.95737 27.3191 7.95778 27.6294C7.95752 27.9398 7.83411 28.2374 7.61463 28.4569C7.39516 28.6763 7.09756 28.7998 6.78717 28.8V28.8002Z" fill="#1865C1"/>
</svg>
