<svg width="34" height="34" viewBox="0 0 34 34" fill="none" xmlns="http://www.w3.org/2000/svg">
<path fill-rule="evenodd" clip-rule="evenodd" d="M16.5929 8.91151C16.4839 8.72026 16.5497 8.47721 16.7396 8.36831L28.2471 1.81135L26.8918 1.44745C26.6773 1.391 26.5525 1.17186 26.6096 0.959363C26.6667 0.746863 26.8838 0.620691 27.0957 0.6778L29.388 1.29139C29.4387 1.30469 29.4862 1.32799 29.5277 1.35992C29.5692 1.39186 29.6039 1.43178 29.6297 1.47733C29.6842 1.56897 29.6975 1.67721 29.6702 1.77948L29.0566 4.0705C29.0336 4.15521 28.9833 4.23002 28.9136 4.2834C28.8439 4.33679 28.7586 4.36581 28.6708 4.366C28.6383 4.366 28.6031 4.36135 28.5679 4.35272C28.3561 4.29561 28.2286 4.07714 28.2857 3.86464L28.6522 2.49733L17.1361 9.06026C17.0736 9.09612 17.0059 9.11272 16.9375 9.11272C16.7987 9.11272 16.6659 9.041 16.5929 8.91151ZM31.9055 31.317C31.9055 31.5368 31.7288 31.7154 31.509 31.7154H23.5834C23.3636 31.7154 23.1843 31.5368 23.1843 31.317C23.1843 31.0972 23.3636 30.9185 23.5834 30.9185H31.509C31.7288 30.9185 31.9055 31.0972 31.9055 31.317ZM22.2035 31.317C22.2035 31.5368 22.0269 31.7154 21.8071 31.7154H20.6881C20.4683 31.7154 20.289 31.5368 20.289 31.317C20.289 31.0972 20.4683 30.9185 20.6881 30.9185H21.8071C22.0275 30.9185 22.2035 31.0972 22.2035 31.317ZM22.2035 29.0897C22.2035 29.3102 22.0269 29.4881 21.8071 29.4881H20.6881C20.4683 29.4881 20.289 29.3102 20.289 29.0897C20.289 28.8699 20.4683 28.6913 20.6881 28.6913H21.8071C22.0275 28.6913 22.2035 28.8699 22.2035 29.0897ZM31.9055 29.0897C31.9055 29.3102 31.7288 29.4881 31.509 29.4881H23.5834C23.3636 29.4881 23.1843 29.3102 23.1843 29.0897C23.1843 28.8699 23.3636 28.6913 23.5834 28.6913H31.509C31.7288 28.6913 31.9055 28.8699 31.9055 29.0897ZM22.2035 26.8624C22.2035 27.0829 22.0269 27.2609 21.8071 27.2609H20.6881C20.4683 27.2609 20.289 27.0829 20.289 26.8624C20.289 26.6426 20.4683 26.464 20.6881 26.464H21.8071C22.0275 26.464 22.2035 26.6426 22.2035 26.8624ZM31.9055 26.8624C31.9055 27.0829 31.7288 27.2609 31.509 27.2609H23.5834C23.3636 27.2609 23.1843 27.0829 23.1843 26.8624C23.1843 26.6426 23.3636 26.464 23.5834 26.464H31.509C31.7288 26.464 31.9055 26.6426 31.9055 26.8624ZM11.4948 7.71022C11.4948 7.20155 11.2232 6.94323 10.6907 6.94323C9.71848 6.94323 9.09094 6.32964 9.09094 5.37936C9.09094 4.65155 9.6016 4.03796 10.2916 3.86464V3.39846C10.2916 3.178 10.4709 3.00003 10.6907 3.00003C10.9105 3.00003 11.0898 3.178 11.0898 3.39846V3.86464C11.7797 4.03796 12.2904 4.65155 12.2904 5.37936C12.2904 5.59917 12.1111 5.7778 11.8913 5.7778C11.6715 5.7778 11.4948 5.59917 11.4948 5.37936C11.4948 4.95636 11.1336 4.61237 10.6907 4.61237C10.2477 4.61237 9.88649 4.95636 9.88649 5.37936C9.88649 5.88803 10.1554 6.14636 10.6907 6.14636C11.6629 6.14636 12.2904 6.75995 12.2904 7.71022C12.2904 8.43803 11.7797 9.05163 11.0898 9.22495V9.69112C11.0898 9.91092 10.9105 10.0896 10.6907 10.0896C10.4709 10.0896 10.2916 9.91159 10.2916 9.69112V9.22495C9.6016 9.05163 9.09094 8.43803 9.09094 7.71022C9.09094 7.49042 9.26758 7.31178 9.48738 7.31178C9.70719 7.31178 9.88649 7.49042 9.88649 7.71022C9.88649 8.13323 10.2477 8.47721 10.6907 8.47721C11.1336 8.47655 11.4948 8.13323 11.4948 7.71022ZM7.45336 3.30749C6.58676 4.1721 6.11195 5.32225 6.11195 6.54546C6.11195 7.76866 6.58742 8.91882 7.45336 9.78343C8.3173 10.648 9.46613 11.1248 10.6907 11.1248C11.9125 11.1248 13.062 10.6487 13.928 9.78343C14.7919 8.91882 15.2694 7.76866 15.2694 6.54546C15.2694 5.32225 14.7913 4.17276 13.928 3.30749C13.0341 2.41499 11.8641 1.96807 10.6907 1.96807C9.51727 1.96807 8.34387 2.41432 7.45336 3.30749ZM10.6907 11.921C12.1244 11.921 13.4771 11.3619 14.4904 10.3465C15.5064 9.3312 16.0656 7.98116 16.0656 6.54479C16.0656 5.10909 15.5058 3.75905 14.4904 2.7437C12.3966 0.647253 8.98535 0.647253 6.88824 2.7437C5.87223 3.75905 5.31309 5.10909 5.31309 6.54479C5.31309 7.98116 5.87289 9.3312 6.88824 10.3465C7.90426 11.3619 9.25363 11.921 10.6907 11.921ZM13.2354 24.7414C13.2354 24.9612 13.0561 25.1399 12.8363 25.1399H10.6907C10.4709 25.1399 10.2916 24.9612 10.2916 24.7414V21.5546C10.2916 21.3348 10.4709 21.1562 10.6907 21.1562C10.9105 21.1562 11.0898 21.3348 11.0898 21.5546V24.343H12.8363C13.0561 24.343 13.2354 24.5216 13.2354 24.7414ZM13.8735 29.4596C14.4773 29.0497 14.998 28.5292 15.4082 27.9256L14.9168 27.6414C14.7268 27.5318 14.6618 27.2881 14.77 27.0975C14.8231 27.0059 14.9104 26.939 15.0127 26.9116C15.1151 26.8842 15.2241 26.8985 15.3159 26.9514L15.8073 27.2357C16.1194 26.5948 16.3153 25.8869 16.3697 25.1399H15.7993C15.5795 25.1399 15.4029 24.9612 15.4029 24.7414C15.4029 24.5216 15.5795 24.343 15.7993 24.343H16.3697C16.3153 23.5959 16.12 22.888 15.8073 22.2472L15.3159 22.5314C15.2534 22.568 15.183 22.5852 15.1146 22.5852C14.9785 22.5852 14.843 22.5135 14.77 22.386C14.6611 22.1954 14.7268 21.9517 14.9168 21.8415L15.4082 21.5579C14.998 20.9544 14.4773 20.4339 13.8735 20.0239L13.5913 20.5153C13.5149 20.6435 13.3821 20.7146 13.2433 20.7146C13.1734 20.7143 13.1048 20.6957 13.0444 20.6606C12.984 20.6254 12.934 20.575 12.8992 20.5143C12.8645 20.4537 12.8464 20.385 12.8466 20.3151C12.8469 20.2452 12.8655 20.1766 12.9007 20.1162L13.1829 19.6242C12.5278 19.3036 11.8167 19.1131 11.0891 19.063V19.6315C11.0891 19.8513 10.9098 20.0299 10.69 20.0299C10.4702 20.0299 10.2909 19.8513 10.2909 19.6315V19.063C9.54383 19.1155 8.83527 19.3107 8.19445 19.6242L8.47934 20.1162C8.58824 20.3068 8.5225 20.5505 8.33258 20.6608C8.27016 20.6973 8.20242 20.7146 8.13402 20.7146C7.99523 20.7146 7.86242 20.6428 7.78938 20.5153L7.50449 20.0239C6.90096 20.4332 6.38101 20.9539 5.9725 21.5579L6.46391 21.8415C6.50915 21.8677 6.54877 21.9027 6.5805 21.9443C6.61223 21.9859 6.63545 22.0333 6.64884 22.0839C6.66222 22.1344 6.6655 22.1872 6.6585 22.239C6.65149 22.2908 6.63433 22.3408 6.60801 22.386C6.53496 22.5142 6.40148 22.5852 6.26336 22.5852C6.19357 22.5853 6.12502 22.5667 6.06481 22.5314L5.5734 22.2472C5.25863 22.888 5.06273 23.5959 5.01094 24.343H5.57871C5.79852 24.343 5.97781 24.5216 5.97781 24.7414C5.97781 24.9612 5.79852 25.1399 5.57871 25.1399H5.01094C5.06273 25.8869 5.25797 26.5948 5.5734 27.2357L6.06481 26.9514C6.11004 26.9253 6.16 26.9083 6.21181 26.9014C6.26363 26.8946 6.31628 26.8981 6.36675 26.9117C6.41722 26.9252 6.46451 26.9486 6.50591 26.9805C6.54731 27.0124 6.58201 27.0522 6.60801 27.0975C6.71957 27.2881 6.65449 27.5318 6.46391 27.6414L5.9725 27.9256C6.37957 28.5292 6.90152 29.0505 7.50449 29.4596L7.78938 28.9675C7.89828 28.7776 8.14266 28.7119 8.33258 28.8221C8.5225 28.9323 8.58758 29.1754 8.47934 29.366L8.19445 29.8587C8.85051 30.1793 9.56242 30.3698 10.2909 30.4198V29.8514C10.2909 29.6316 10.4702 29.453 10.69 29.453C10.9098 29.453 11.0891 29.6316 11.0891 29.8514V30.4198C11.8167 30.3699 12.5278 30.1793 13.1829 29.8587L12.9007 29.366C12.8742 29.3209 12.8569 29.2709 12.8498 29.2191C12.8427 29.1673 12.8459 29.1146 12.8593 29.064C12.8727 29.0134 12.896 28.966 12.9278 28.9245C12.9597 28.883 12.9994 28.8482 13.0448 28.8221C13.2347 28.7119 13.4791 28.7769 13.5906 28.9675L13.8735 29.4596ZM10.6907 18.2502C7.1107 18.2502 4.19945 21.1621 4.19945 24.7414C4.19945 28.3207 7.1107 31.232 10.6907 31.232C14.268 31.232 17.1819 28.3207 17.1819 24.7414C17.1819 21.1621 14.268 18.2502 10.6907 18.2502ZM31.1093 24.0282V6.77921H27.872V24.0282H31.1093ZM23.8331 9.84253H27.0731V24.0282H23.8331V9.84253ZM19.7976 12.4217H23.0376V24.0282H19.7976V12.4217ZM10.6907 32.5395C14.9898 32.5395 18.4881 29.0412 18.4881 24.7414C18.4881 20.4416 14.9898 16.9427 10.6907 16.9427C6.3882 16.9427 2.89324 20.441 2.89324 24.7414C2.89324 29.0412 6.3882 32.5395 10.6907 32.5395ZM15.7641 15.6106H19.0014V22.5507C18.4934 20.6216 17.3286 18.9561 15.7641 17.8073V15.6106ZM31.509 5.98233H27.4729C27.253 5.98233 27.0738 6.16096 27.0738 6.38077V9.04565H23.4373C23.2175 9.04565 23.0382 9.22428 23.0382 9.44409V11.6249H19.4018C19.182 11.6249 19.0027 11.8035 19.0027 12.0233V14.8137H15.3663C15.1465 14.8137 14.9672 14.9923 14.9672 15.2121V17.2873C13.7068 16.5615 12.2459 16.1458 10.692 16.1458C5.95258 16.1458 2.0957 20.002 2.0957 24.7414C2.09438 29.4808 5.95125 33.3364 10.6907 33.3364C15.4002 33.3364 19.2378 29.526 19.2843 24.8251H31.509C31.7288 24.8251 31.9055 24.6465 31.9055 24.4267V6.38077C31.9055 6.16096 31.7288 5.98233 31.509 5.98233Z" fill="#1865C1"/>
</svg>
