<svg width="34" height="34" viewBox="0 0 34 34" fill="none" xmlns="http://www.w3.org/2000/svg">
<g clip-path="url(#clip0_338_461)">
<path d="M18.7 24.6951V18.4561C20.3692 19.7805 22.3709 20.6196 24.4856 20.8814H24.4913L24.9843 17.5551C23.324 17.4474 18.7 16.6824 18.7 10.7664V6.23308H20.077C20.2466 6.22914 20.4118 6.1779 20.5539 6.08512C20.6961 5.99234 20.8094 5.86172 20.8813 5.70797C20.9532 5.55423 20.9807 5.38346 20.9607 5.21493C20.9407 5.04639 20.8741 4.88678 20.7683 4.75408L17.6856 0.900743C17.6044 0.796338 17.5004 0.711858 17.3816 0.653748C17.2628 0.595637 17.1322 0.56543 17 0.56543C16.8677 0.56543 16.7372 0.595637 16.6183 0.653748C16.4995 0.711858 16.3955 0.796338 16.3143 0.900743L13.2316 4.75408C13.1258 4.88678 13.0592 5.04639 13.0392 5.21493C13.0193 5.38346 13.0468 5.55423 13.1186 5.70797C13.1905 5.86172 13.3039 5.99234 13.446 6.08512C13.5881 6.1779 13.7533 6.22914 13.923 6.23308H15.3V10.7664C15.3 16.6824 10.676 17.4474 9.01562 17.5551L9.50863 20.8814H9.51429C11.629 20.6196 13.6307 19.7805 15.3 18.4561V24.6951H18.7Z" fill="#DCEDFF"/>
<path d="M17.0001 33.4329C19.5038 33.4329 21.5335 31.4032 21.5335 28.8995C21.5335 26.3959 19.5038 24.3662 17.0001 24.3662C14.4964 24.3662 12.4668 26.3959 12.4668 28.8995C12.4668 31.4032 14.4964 33.4329 17.0001 33.4329Z" fill="#5E72E5"/>
<path d="M5.09974 24.3665C7.60343 24.3665 9.63307 22.3368 9.63307 19.8331C9.63307 17.3294 7.60343 15.2998 5.09974 15.2998C2.59605 15.2998 0.566406 17.3294 0.566406 19.8331C0.566406 22.3368 2.59605 24.3665 5.09974 24.3665Z" fill="#5E72E5"/>
<path d="M28.9005 24.3665C31.4042 24.3665 33.4339 22.3368 33.4339 19.8331C33.4339 17.3294 31.4042 15.2998 28.9005 15.2998C26.3968 15.2998 24.3672 17.3294 24.3672 19.8331C24.3672 22.3368 26.3968 24.3665 28.9005 24.3665Z" fill="#5E72E5"/>
</g>
<defs>
<clipPath id="clip0_338_461">
<rect width="34" height="34" fill="white"/>
</clipPath>
</defs>
</svg>
