<svg width="85" height="85" viewBox="0 0 85 85" fill="none" xmlns="http://www.w3.org/2000/svg">
<g clip-path="url(#clip0_312_2305)">
<path fill-rule="evenodd" clip-rule="evenodd" d="M70.2119 52.1773C69.7637 52.1773 69.3654 51.7789 69.3654 51.3307V43.9611C69.3654 43.5129 69.7637 43.1146 70.2119 43.1146C70.66 43.1146 71.0584 43.5129 71.0584 43.9611V51.3307C71.0584 51.7789 70.66 52.1773 70.2119 52.1773ZM70.2119 23.2962C69.7637 23.2962 69.3654 22.9476 69.3654 22.4995V14.8808C69.3654 14.3829 69.7637 14.0343 70.2119 14.0343C70.66 14.0343 71.0584 14.3829 71.0584 14.8808V22.4995C71.0584 22.9476 70.66 23.2962 70.2119 23.2962ZM55.9705 1.4362H20.9149C20.4169 1.4362 20.0684 1.08764 20.0684 0.639483C20.0684 0.141533 20.4169 -0.207031 20.9149 -0.207031H55.9705C56.4187 -0.207031 56.7672 0.141533 56.7672 0.639483C56.7672 1.08764 56.4187 1.4362 55.9705 1.4362Z" fill="#000A8B"/>
<path fill-rule="evenodd" clip-rule="evenodd" d="M8.76448 72.5434C8.26653 72.5434 7.91797 72.1451 7.91797 71.6969V6.71447C7.91797 2.88026 11.0053 -0.207031 14.8395 -0.207031H20.9145C21.3626 -0.207031 21.7112 0.141533 21.7112 0.639483V65.6219C21.7112 66.0701 21.3626 66.4684 20.9145 66.4684C20.4165 66.4684 20.0679 66.0701 20.0679 65.6219V1.4362H14.8395C11.9514 1.4362 9.5612 3.82636 9.5612 6.71447V71.6969C9.5612 72.1451 9.21264 72.5434 8.76448 72.5434Z" fill="#000A8B"/>
<path fill-rule="evenodd" clip-rule="evenodd" d="M70.2115 79.7139H30.7739C30.2759 79.7139 29.9273 79.3155 29.9273 78.8674C29.9273 78.4192 30.2759 78.0209 30.7739 78.0209H69.365V67.3647C69.365 66.9166 69.7633 66.5182 70.2115 66.5182C70.6596 66.5182 71.058 66.9166 71.058 67.3647V78.8674C71.058 79.3155 70.6596 79.7139 70.2115 79.7139ZM22.2091 79.7139H14.8395C11.0053 79.7139 7.91797 76.5768 7.91797 72.7924V71.6969C7.91797 67.9125 11.0053 64.7754 14.8395 64.7754H55.9701C56.4183 64.7754 56.7668 65.1738 56.7668 65.6219C56.7668 66.0701 56.4183 66.4684 55.9701 66.4684H14.8395C11.9514 66.4684 9.5612 68.8088 9.5612 71.6969V72.7924C9.5612 75.6805 11.9514 78.0209 14.8395 78.0209H22.2091C22.6573 78.0209 23.0058 78.4192 23.0058 78.8674C23.0058 79.3155 22.6573 79.7139 22.2091 79.7139Z" fill="#000A8B"/>
<path fill-rule="evenodd" clip-rule="evenodd" d="M34.3103 72.0954H18.6746C18.1767 72.0954 17.8281 71.697 17.8281 71.2489C17.8281 70.8007 18.1767 70.4023 18.6746 70.4023H34.3103C34.7584 70.4023 35.107 70.8007 35.107 71.2489C35.107 71.697 34.7584 72.0954 34.3103 72.0954Z" fill="#000A8B"/>
<path fill-rule="evenodd" clip-rule="evenodd" d="M30.7745 83.0005C30.6251 83.0005 30.5256 82.9507 30.426 82.9009L26.4922 81.2576L22.5086 82.9009C22.2596 83.0005 21.9608 83.0005 21.7118 82.8511C21.5127 82.7017 21.3633 82.4029 21.3633 82.154V71.2489C21.3633 70.7509 21.7118 70.4023 22.2098 70.4023H30.7745C31.2227 70.4023 31.5712 70.7509 31.5712 71.2489V82.154C31.5712 82.4527 31.4717 82.7017 31.2227 82.8511C31.0733 82.9507 30.9239 83.0005 30.7745 83.0005ZM26.4922 79.5148C26.5918 79.5148 26.6913 79.5646 26.7909 79.6144L29.928 80.9091V72.0954H23.0065V80.9091L26.1436 79.6144C26.2432 79.5646 26.3926 79.5148 26.4922 79.5148ZM58.2613 73.0913H48.5513C48.1032 73.0913 47.7048 72.6929 47.7048 72.2448C47.7048 71.7966 48.1032 71.3982 48.5513 71.3982H58.2613C58.7095 71.3982 59.1079 71.7966 59.1079 72.2448C59.1079 72.6929 58.7095 73.0913 58.2613 73.0913Z" fill="#000A8B"/>
<path fill-rule="evenodd" clip-rule="evenodd" d="M62.4441 76.4271H30.7745C30.2766 76.4271 29.928 76.0287 29.928 75.5806C29.928 75.1324 30.2766 74.734 30.7745 74.734H62.4441C62.8923 74.734 63.2408 75.1324 63.2408 75.5806C63.2408 76.0287 62.8923 76.4271 62.4441 76.4271ZM22.2098 76.4271H14.8401C12.8483 76.4271 11.2051 74.734 11.2051 72.792V71.6965C11.2051 69.7545 12.8483 68.0615 14.8401 68.0615H42.7751C43.2232 68.0615 43.5718 68.4599 43.5718 68.908C43.5718 69.3562 43.2232 69.7545 42.7751 69.7545H14.8401C13.7446 69.7545 12.8483 70.6509 12.8483 71.6965V72.792C12.8483 73.8377 13.7944 74.734 14.8401 74.734H22.2098C22.6579 74.734 23.0065 75.1324 23.0065 75.5806C23.0065 76.0287 22.6579 76.4271 22.2098 76.4271ZM70.2121 15.727C69.515 15.727 68.8676 15.4282 68.3697 14.9303L55.8712 2.43175H55.8214C55.1242 1.63503 54.9251 0.639133 55.2736 -0.356766V-0.406561C55.7218 -1.40246 56.6679 -2 57.7634 -2H70.2121C71.6562 -2 72.8512 -0.804921 72.8512 0.639133V13.0879C72.8512 14.1834 72.2039 15.1295 71.2578 15.5278H71.208C70.8594 15.6772 70.5607 15.727 70.2121 15.727ZM57.0662 1.28647L69.5648 13.785C69.8138 14.034 70.2121 14.1336 70.6105 13.9842C70.959 13.8348 71.1582 13.4862 71.1582 13.0879V0.639133C71.1582 0.0913885 70.7599 -0.306971 70.2121 -0.306971H57.7634C57.3152 -0.306971 57.0164 -0.107791 56.8173 0.240773C56.7177 0.639133 56.7675 0.987698 57.0662 1.28647Z" fill="#000A8B"/>
<path fill-rule="evenodd" clip-rule="evenodd" d="M68.7184 10.1994C68.2703 10.1994 67.8719 9.85087 67.8719 9.40271V2.92937H61.4484C61.0002 2.92937 60.6018 2.5808 60.6018 2.13265C60.6018 1.6347 61.0002 1.28613 61.4484 1.28613H68.7184C69.1666 1.28613 69.5649 1.6347 69.5649 2.13265V9.40271C69.5649 9.85087 69.1666 10.1994 68.7184 10.1994ZM70.2123 68.2106H57.7635C56.668 68.2106 55.7219 67.5632 55.3236 66.6171C55.3236 66.5673 55.3236 66.5673 55.2738 66.5673C54.9252 65.6212 55.1244 64.5257 55.8713 63.7788V63.729L68.3699 51.2305C69.1168 50.4836 70.2123 50.2844 71.2082 50.6827C72.2041 51.0811 72.8514 52.0272 72.8514 53.1227V65.6212C72.8514 67.0155 71.6563 68.2106 70.2123 68.2106ZM56.8174 65.9698C57.0166 66.3184 57.3154 66.5175 57.7635 66.5175H70.2123C70.7102 66.5175 71.1584 66.1192 71.1584 65.6212V53.1227C71.1584 52.7243 70.9592 52.3758 70.6106 52.2762C70.6106 52.2762 70.6106 52.2264 70.5608 52.2264C70.2123 52.077 69.8139 52.1268 69.5649 52.4256L57.0664 64.8743C56.8174 65.2229 56.7178 65.6212 56.8174 65.9698Z" fill="#000A8B"/>
<path fill-rule="evenodd" clip-rule="evenodd" d="M68.7181 64.924H61.4481C60.9999 64.924 60.6016 64.5257 60.6016 64.0775C60.6016 63.6294 60.9999 63.231 61.4481 63.231H67.8716V56.8075C67.8716 56.3593 68.27 55.9609 68.7181 55.9609C69.1663 55.9609 69.5647 56.3593 69.5647 56.8075V64.0775C69.5647 64.5257 69.1663 64.924 68.7181 64.924Z" fill="#000A8B"/>
<path fill-rule="evenodd" clip-rule="evenodd" d="M74.593 44.807H46.8572C46.2597 44.807 45.7119 44.6078 45.2638 44.2593L34.0599 34.8978C34.0599 34.848 34.0101 34.7982 33.9603 34.7982C33.562 34.2505 33.313 33.6031 33.4126 32.9558C33.4624 32.3085 33.7611 31.7109 34.2591 31.3126L45.1642 22.2499C45.6124 21.8515 46.2099 21.6523 46.8572 21.6523H74.593C75.9873 21.6523 77.0828 22.698 77.0828 24.0923V42.3173C77.0828 43.6617 75.9375 44.807 74.593 44.807ZM49.1478 38.9312C48.6996 38.9312 48.3013 38.5826 48.3013 38.1345V28.3249C48.3013 27.8269 48.6996 27.4784 49.1478 27.4784C49.5959 27.4784 49.9943 27.8269 49.9943 28.3249V38.1345C49.9943 38.5826 49.5959 38.9312 49.1478 38.9312ZM63.0904 26.6318V26.3331C63.0904 25.8351 63.4887 25.4866 63.9369 25.4866C64.3851 25.4866 64.7834 25.8351 64.7834 26.3331V26.6318C66.4266 27.0302 67.6715 28.524 67.6715 30.3167C67.6715 30.7648 67.2732 31.1134 66.825 31.1134C66.3769 31.1134 65.9785 30.7648 65.9785 30.3167C65.9785 29.1216 65.0822 28.1755 63.9369 28.1755C62.7418 28.1755 61.8455 29.1216 61.8455 30.3167C61.8455 31.462 62.7418 32.3583 63.9369 32.3583C65.9785 32.3583 67.6715 34.0513 67.6715 36.1427C67.6715 37.9353 66.4266 39.4291 64.7834 39.7777V40.1263C64.7834 40.5744 64.3851 40.923 63.9369 40.923C63.4887 40.923 63.0904 40.5744 63.0904 40.1263V39.7777C61.4471 39.4291 60.1525 37.9353 60.1525 36.1427C60.1525 35.6447 60.5508 35.2962 60.999 35.2962C61.4471 35.2962 61.8455 35.6447 61.8455 36.1427C61.8455 37.288 62.7916 38.2341 63.9369 38.2341C65.0324 38.2341 65.9785 37.288 65.9785 36.1427C65.9785 34.9974 65.0324 34.0015 63.9369 34.0015C61.8455 34.0015 60.1525 32.3583 60.1525 30.3167C60.1525 28.4743 61.3974 26.9804 63.0904 26.6318Z" fill="#B0D0F6"/>
<path fill-rule="evenodd" clip-rule="evenodd" d="M40.9327 34.0512H32.8161C29.3305 34.0512 26.4922 31.2129 26.4922 27.7273C26.4922 24.2914 29.3803 21.4033 32.8161 21.4033C33.2643 21.4033 33.6129 21.7519 33.6129 22.2498C33.6129 22.698 33.2643 23.0466 32.8161 23.0466C30.2766 23.0466 28.1354 25.1877 28.1354 27.7273C28.1354 30.2668 30.2766 32.408 32.8161 32.408H40.9327C41.3809 32.408 41.7294 32.7566 41.7294 33.2545C41.7294 33.7027 41.3809 34.0512 40.9327 34.0512Z" fill="#000A8B"/>
<path fill-rule="evenodd" clip-rule="evenodd" d="M9.56055 6.71381V67.2147C10.8552 65.7208 12.7474 64.7747 14.8388 64.7747H20.0673V1.43555H14.8388C11.9507 1.43555 9.56055 3.82571 9.56055 6.71381Z" fill="#B0D0F6"/>
</g>
<defs>
<clipPath id="clip0_312_2305">
<rect width="85" height="85" fill="white"/>
</clipPath>
</defs>
</svg>
