<svg width="186" height="24" viewBox="0 0 186 24" fill="none" xmlns="http://www.w3.org/2000/svg">
<g clip-path="url(#clip0_338_393)">
<path fill-rule="evenodd" clip-rule="evenodd" d="M179.793 1.55812L174.155 10.0939L168.469 1.56796L162.449 1.56618L171.391 14.7474L171.401 23.1615L176.742 23.1651L176.733 14.8673L185.742 1.5626L179.793 1.55812ZM154.275 19.69C149.474 19.6918 147.677 16.0618 147.669 12.4623C147.668 8.68202 149.465 5.05207 154.267 5.04939C159.063 5.04939 160.862 8.67486 160.871 12.4515C160.873 16.0591 159.067 19.6846 154.275 19.69ZM154.262 1.06154C146.749 1.05439 142.324 6.04523 142.331 12.4605C142.292 14.8288 143.022 17.156 144.429 19.1576L135.443 19.1835L135.37 1.51786L130.034 1.53933L130.106 23.1696L145.55 23.1132L145.53 20.4496C147.573 22.452 150.541 23.6841 154.275 23.6796C161.79 23.6796 166.206 18.6852 166.201 12.456C166.206 6.04075 161.776 1.04991 154.262 1.06154ZM119.971 19.4842L114.255 19.4904L114.253 13.5583L120.067 13.5539C122.346 13.553 123.915 14.4325 123.908 16.6407C123.91 18.8829 122.071 19.4869 119.971 19.4842ZM114.249 5.26949L119.245 5.26681C121.145 5.26949 122.919 5.68823 122.926 7.74791C122.921 9.56423 121.521 10.3248 119.662 10.3212L114.252 10.3292L114.249 5.26949ZM94.5118 14.8405L97.6778 6.91312H97.7455L100.809 14.8405H94.5118ZM124.787 11.4405C126.901 10.5323 128.088 9.04618 128.094 6.92833C128.089 2.90918 124.959 1.57244 120.329 1.57781L108.901 1.58318L108.914 21.5859L100.498 1.58318L95.0151 1.58675L85.8066 23.1929L91.2215 23.1902L93.1183 18.3765L102.204 18.3792L104.042 23.1866L109.586 23.1821L109.585 23.1794L120.687 23.1768C125.072 23.1768 129.251 21.2942 129.254 16.9091C129.251 14.2169 127.749 12.1939 124.787 11.4405ZM66.6556 14.8468L69.8216 6.92475H69.8872L72.9577 14.845L66.6556 14.8468ZM50.7879 20.0246C47.9372 20.0291 45.4198 18.9098 45.4118 16.0439L41.8729 16.0403C41.3437 11.793 36.3883 10.8777 34.7094 10.5046C28.632 9.11775 27.4703 8.90123 27.4673 7.2406C27.4753 5.42428 29.4417 4.78723 31.1406 4.78991C33.6958 4.78991 35.7617 5.44754 35.9368 8.05033H41.0871C41.3397 11.7653 44.8309 12.9553 48.3053 13.7641C51.8791 14.6114 55.5215 15.0006 55.5235 17.3314C55.5215 19.537 52.6678 20.0237 50.7879 20.0246ZM9.4999 14.8638L12.6629 6.94175H12.7345L15.797 14.8655L9.4999 14.8638ZM67.1639 1.5966L60.6907 16.7901C60.6827 11.887 55.2469 10.8884 53.4775 10.501C47.3862 9.10523 46.2324 8.9066 46.2304 7.23254C46.2334 5.41623 48.2048 4.78097 49.9037 4.78544C52.4599 4.78365 54.5298 5.44754 54.7029 8.04586H59.8721C59.8651 3.05323 55.2072 1.09107 50.1454 1.09375C45.8087 1.09018 41.1905 3.1597 41.0751 7.4607C40.7121 2.91007 36.2391 1.09733 31.3703 1.10181C26.9938 1.10181 22.3001 3.22233 22.3041 7.63607C22.3041 11.6946 25.9445 12.9266 29.5461 13.774C33.1199 14.6213 36.7593 15.0132 36.7544 17.3395C36.7544 19.5486 33.9037 20.0309 32.0367 20.0353C29.1731 20.0407 26.6636 18.9169 26.6596 16.0439H21.5541L15.4778 1.6136H10.0112L0.806641 23.2215L6.20959 23.2108L8.11435 18.4051H17.1995L19.0346 23.2099H24.5739L23.7224 21.1878C25.6799 22.9146 28.6887 23.7234 31.8298 23.7181C36.6887 23.7225 39.8676 22.1058 41.2044 19.6685C42.9023 22.4484 46.6532 23.719 50.5979 23.7154C54.4104 23.7154 57.1806 22.7195 58.8446 21.1162L57.9584 23.1982H63.3633L65.2681 18.389L74.3542 18.3828L76.1884 23.1938H81.7355L72.6444 1.5966H67.1639Z" fill="#1A1A1A"/>
</g>
<defs>
<clipPath id="clip0_338_393">
<rect width="186" height="23.2632" fill="white" transform="translate(0 0.526367)"/>
</clipPath>
</defs>
</svg>
