<svg width="85" height="85" viewBox="0 0 85 85" fill="none" xmlns="http://www.w3.org/2000/svg">
<path fill-rule="evenodd" clip-rule="evenodd" d="M47.7195 25.2929C48.9182 25.2929 49.8942 26.2689 49.8942 27.4676C49.8942 28.6662 48.9182 29.6407 47.7195 29.6407C46.5209 29.6407 45.5464 28.6662 45.5464 27.4676C45.5464 26.2689 46.5209 25.2929 47.7195 25.2929ZM47.7195 31.6334C50.0175 31.6334 51.8862 29.7656 51.8862 27.4676C51.8862 25.1702 50.0177 23.3009 47.7195 23.3009C45.423 23.3009 43.5545 25.1702 43.5545 27.4676C43.5544 29.7657 45.423 31.6334 47.7195 31.6334ZM66.1569 30.8168C64.9583 30.8168 63.9823 29.8406 63.9823 28.6413C63.9823 27.4435 64.9583 26.469 66.1569 26.469C67.3555 26.469 68.33 27.4435 68.33 28.6413C68.33 29.8406 67.3555 30.8168 66.1569 30.8168ZM66.1569 24.4761C63.8596 24.4761 61.9902 26.3455 61.9902 28.6411C61.9902 30.9391 63.8596 32.8086 66.1569 32.8086C68.4549 32.8086 70.3227 30.9393 70.3227 28.6411C70.3227 26.3455 68.4551 24.4761 66.1569 24.4761ZM48.8946 48.0789C47.696 48.0789 46.72 47.1029 46.72 45.9034C46.72 44.7056 47.696 43.7311 48.8946 43.7311C50.0932 43.7311 51.0677 44.7056 51.0677 45.9034C51.0677 47.1029 50.0932 48.0789 48.8946 48.0789ZM48.8946 41.7384C46.5973 41.7384 44.7279 43.6078 44.7279 45.9036C44.7279 48.2016 46.5973 50.0709 48.8946 50.0709C51.1911 50.0709 53.0598 48.2016 53.0598 45.9036C53.0598 43.6078 51.1911 41.7384 48.8946 41.7384ZM57.5262 39.4474C56.3276 39.4474 55.3508 38.4714 55.3508 37.2728C55.3508 36.0741 56.3276 35.0996 57.5262 35.0996C58.7249 35.0996 59.6994 36.0741 59.6994 37.2728C59.6992 38.4714 58.7249 39.4474 57.5262 39.4474ZM57.5262 33.1078C55.2283 33.1078 53.3589 34.9771 53.3589 37.2728C53.3589 39.5701 55.2283 41.4403 57.5262 41.4403C59.8236 41.4403 61.6912 39.5701 61.6912 37.2728C61.6912 34.9771 59.8234 33.1078 57.5262 33.1078ZM56.351 16.6621C57.5513 16.6621 58.5257 17.6381 58.5257 18.8367C58.5257 20.0354 57.5511 21.0099 56.351 21.0099C55.1517 21.0099 54.1772 20.0354 54.1772 18.8367C54.177 17.6383 55.1516 16.6621 56.351 16.6621ZM56.351 23.0019C58.6483 23.0019 60.5177 21.1341 60.5177 18.8369C60.5177 16.5389 58.6483 14.6694 56.351 14.6694C54.0545 14.6694 52.1852 16.5388 52.1852 18.8369C52.1852 21.1341 54.0545 23.0019 56.351 23.0019ZM39.0887 38.2722C37.8893 38.2722 36.9147 37.2977 36.9147 36.099C36.9147 34.9004 37.8893 33.9244 39.0887 33.9244C40.2873 33.9244 41.2634 34.9004 41.2634 36.099C41.2634 37.2977 40.2873 38.2722 39.0887 38.2722ZM39.0887 31.9317C36.7922 31.9317 34.9229 33.8011 34.9229 36.0992C34.9229 38.3965 36.7922 40.2642 39.0887 40.2642C41.386 40.2642 43.2554 38.3964 43.2554 36.0992C43.2554 33.8011 41.386 31.9317 39.0887 31.9317ZM83.3395 17.3775C83.3394 17.6416 83.2345 17.8948 83.0478 18.0816C82.8612 18.2684 82.608 18.3735 82.3439 18.3739C82.0797 18.3737 81.8264 18.2687 81.6395 18.0819C81.4527 17.895 81.3477 17.6417 81.3475 17.3775C81.3475 9.8055 75.1881 3.64615 67.6162 3.64615C67.352 3.64615 67.0987 3.54122 66.9119 3.35445C66.7252 3.16768 66.6202 2.91436 66.6202 2.65022C66.6202 2.38609 66.7252 2.13277 66.9119 1.946C67.0987 1.75922 67.352 1.6543 67.6162 1.6543C76.2862 1.6543 83.3395 8.70614 83.3395 17.3775ZM67.6163 10.0726C71.6441 10.0726 74.9212 13.3499 74.9212 17.3775C74.9214 17.6417 75.0264 17.895 75.2132 18.0819C75.4001 18.2687 75.6534 18.3737 75.9176 18.3739C76.1817 18.3735 76.4349 18.2684 76.6215 18.0816C76.8082 17.8948 76.9131 17.6416 76.9132 17.3775C76.9132 12.2512 72.7436 8.0806 67.6163 8.0806C67.4845 8.07889 67.3536 8.1034 67.2312 8.15269C67.1089 8.20198 66.9976 8.27507 66.9037 8.36773C66.8098 8.46039 66.7353 8.57076 66.6844 8.69245C66.6336 8.81414 66.6074 8.94471 66.6074 9.07661C66.6074 9.2085 66.6336 9.33907 66.6844 9.46076C66.7353 9.58245 66.8098 9.69283 66.9037 9.78548C66.9976 9.87814 67.1089 9.95123 67.2312 10.0005C67.3536 10.0498 67.4845 10.0743 67.6163 10.0726ZM30.2213 58.6836C28.0646 58.6836 26.31 56.929 26.31 54.7723C26.31 52.6164 28.0646 50.861 30.2213 50.861C32.378 50.861 34.1326 52.6163 34.1326 54.7723C34.1326 56.929 32.378 58.6836 30.2213 58.6836ZM30.2213 48.8691C26.9659 48.8691 24.3173 51.5169 24.3173 54.7723C24.3173 58.0277 26.9659 60.6755 30.2213 60.6755C33.4767 60.6755 36.1245 58.0277 36.1245 54.7723C36.1247 51.5171 33.4767 48.8691 30.2213 48.8691ZM30.2213 64.2589C35.4506 64.2589 39.7071 60.0018 39.7071 54.7725C39.7071 49.5415 35.4506 45.2867 30.2213 45.2867C24.9905 45.2867 20.7355 49.5415 20.7355 54.7725C20.7355 60.0018 24.9905 64.2589 30.2213 64.2589ZM30.2213 43.2938C23.8926 43.2938 18.7428 48.4443 18.7428 54.7723C18.7428 61.1012 23.8926 66.2508 30.2213 66.2508C36.5502 66.2508 41.6998 61.101 41.6998 54.7723C41.6998 48.4445 36.5502 43.2938 30.2213 43.2938ZM75.3412 33.1272C77.6025 30.8666 77.6025 27.1888 75.3412 24.9282L60.0663 9.65243C58.9357 8.5217 57.4512 7.95559 55.9652 7.95559C54.4809 7.95559 52.9957 8.5217 51.8664 9.65243L8.49319 53.024C2.01991 59.4973 2.01991 70.0278 8.49319 76.5003C14.9642 82.9721 25.4962 82.9721 31.968 76.5003L75.3412 33.1272ZM61.4734 8.24312C58.4375 5.2072 53.4956 5.20554 50.4573 8.24312L7.08405 51.6164C3.58577 55.1146 1.66016 59.7833 1.66016 64.7635C1.66016 69.7421 3.58577 74.4125 7.08405 77.9083C10.708 81.5337 15.4688 83.3453 20.2305 83.3453C24.9922 83.3453 29.753 81.5337 33.3778 77.9083L76.7509 34.5367C79.7876 31.4984 79.7876 26.5563 76.7509 23.5181L61.4734 8.24312Z" fill="#CE99FD"/>
</svg>
