<svg width="85" height="85" viewBox="0 0 85 85" fill="none" xmlns="http://www.w3.org/2000/svg">
<path d="M17.5156 26.7285H19.4248V82.1777H17.5156V26.7285ZM59.7666 32.8711L64.1245 37.229V82.1777H59.7666V32.8711Z" fill="#485EFF" fill-opacity="0.188235"/>
<path d="M13.4455 39.2716C13.3228 39.2716 13.1981 39.2442 13.0804 39.1866C12.8209 39.0592 12.5642 38.9261 12.3106 38.7873C12.2147 38.7351 12.13 38.6645 12.0614 38.5796C11.9928 38.4946 11.9416 38.3969 11.9109 38.2922C11.8801 38.1874 11.8703 38.0776 11.882 37.969C11.8937 37.8604 11.9268 37.7552 11.9792 37.6595C12.0317 37.5637 12.1025 37.4792 12.1876 37.4108C12.2728 37.3425 12.3706 37.2916 12.4755 37.2611C12.5803 37.2306 12.6901 37.2211 12.7987 37.2331C12.9072 37.2452 13.0123 37.2785 13.1079 37.3312C13.3387 37.4575 13.5753 37.5802 13.8117 37.6963C13.9801 37.7789 14.1156 37.9161 14.196 38.0856C14.2765 38.255 14.2971 38.4467 14.2546 38.6295C14.2122 38.8122 14.109 38.9751 13.9621 39.0917C13.8152 39.2083 13.633 39.2717 13.4455 39.2716ZM10.0387 37.1139C9.85097 37.1141 9.66881 37.0504 9.52218 36.9333C9.08509 36.585 8.66297 36.2183 8.25697 35.8342C8.17646 35.7596 8.11154 35.6698 8.06596 35.57C8.02039 35.4701 7.99507 35.3622 7.99148 35.2525C7.98788 35.1428 8.00607 35.0335 8.045 34.9309C8.08393 34.8283 8.14282 34.7344 8.21827 34.6547C8.29372 34.575 8.38423 34.511 8.48456 34.4665C8.58489 34.422 8.69305 34.3979 8.80278 34.3954C8.91251 34.393 9.02163 34.4124 9.12382 34.4524C9.22602 34.4924 9.31927 34.5523 9.39816 34.6286C9.76977 34.9802 10.1562 35.3158 10.5563 35.6345C10.691 35.7418 10.789 35.8883 10.8367 36.0538C10.8844 36.2192 10.8795 36.3954 10.8226 36.5579C10.7658 36.7205 10.6597 36.8613 10.5193 36.9609C10.3788 37.0605 10.2108 37.114 10.0387 37.1139ZM6.69576 33.6662C6.56653 33.6664 6.43906 33.6363 6.3235 33.5785C6.20794 33.5206 6.10751 33.4366 6.0302 33.333C5.69576 32.8854 5.38059 32.4237 5.08557 31.9491C4.97287 31.7623 4.93828 31.5385 4.98929 31.3264C5.0403 31.1142 5.17281 30.9307 5.35813 30.8154C5.54346 30.7002 5.7667 30.6626 5.97954 30.7108C6.19237 30.7589 6.37769 30.889 6.49538 31.0727C6.76399 31.505 7.05485 31.931 7.35999 32.3391C7.4522 32.4624 7.50829 32.609 7.52197 32.7624C7.53566 32.9158 7.5064 33.07 7.43748 33.2077C7.36855 33.3454 7.26267 33.4612 7.13168 33.5422C7.0007 33.6232 6.84976 33.6661 6.69576 33.6662ZM4.3385 29.4823C4.17297 29.4823 4.01121 29.4328 3.87398 29.3402C3.73676 29.2477 3.63033 29.1162 3.56836 28.9627C3.35925 28.4444 3.17259 27.9174 3.00889 27.383C2.94561 27.1729 2.96812 26.9463 3.07149 26.7527C3.17486 26.5591 3.35068 26.4143 3.56049 26.35C3.77031 26.2857 3.99705 26.3071 4.19113 26.4096C4.38521 26.512 4.53084 26.6871 4.59616 26.8966C4.74508 27.3837 4.9174 27.8695 5.10782 28.3409C5.14862 28.442 5.1691 28.5502 5.1681 28.6592C5.1671 28.7682 5.14464 28.8759 5.102 28.9763C5.05936 29.0766 4.99737 29.1675 4.91958 29.2439C4.84179 29.3203 4.74972 29.3806 4.64862 29.4214C4.55017 29.4616 4.44485 29.4823 4.3385 29.4823ZM3.1314 24.8344C2.92926 24.8341 2.73416 24.7601 2.58271 24.6262C2.43126 24.4923 2.33386 24.3078 2.3088 24.1072C2.23972 23.5526 2.19425 22.9954 2.1725 22.4369C2.16827 22.328 2.18555 22.2193 2.22334 22.117C2.26112 22.0148 2.31868 21.921 2.39273 21.841C2.46677 21.761 2.55585 21.6963 2.65488 21.6507C2.7539 21.6052 2.86094 21.5795 2.96987 21.5753C3.42907 21.5561 3.81373 21.9145 3.83133 22.3725C3.85108 22.8825 3.89308 23.3968 3.95617 23.9012C3.9708 24.0181 3.96038 24.1367 3.92561 24.2493C3.89084 24.3619 3.8325 24.4657 3.75449 24.554C3.67647 24.6423 3.58056 24.7129 3.47313 24.7613C3.3657 24.8096 3.24921 24.8345 3.1314 24.8344ZM3.1495 20.0322C3.03125 20.0324 2.91433 20.0073 2.80657 19.9586C2.69881 19.9099 2.6027 19.8387 2.52468 19.7498C2.44666 19.661 2.38854 19.5564 2.3542 19.4433C2.31986 19.3301 2.31009 19.2109 2.32556 19.0937C2.39858 18.5396 2.4954 17.9889 2.61576 17.4432C2.66325 17.2283 2.79412 17.041 2.97962 16.9225C3.16513 16.804 3.39008 16.764 3.60505 16.8113C3.82 16.8588 4.0073 16.9896 4.12579 17.1752C4.24428 17.3607 4.28424 17.5856 4.2369 17.8006C4.12688 18.2998 4.03832 18.8035 3.97144 19.3104C3.94517 19.5098 3.84735 19.693 3.69616 19.8258C3.54497 19.9586 3.35071 20.0319 3.1495 20.0322ZM4.38565 15.3916C4.24931 15.3915 4.11509 15.3578 3.99485 15.2936C3.87461 15.2293 3.77205 15.1364 3.69623 15.0231C3.62042 14.9098 3.57368 14.7795 3.56015 14.6439C3.54662 14.5082 3.56672 14.3713 3.61866 14.2452C3.83033 13.7306 4.0674 13.2187 4.32306 12.7235C4.37309 12.6267 4.4417 12.5406 4.52498 12.4703C4.60826 12.3999 4.70458 12.3467 4.80843 12.3136C4.91229 12.2805 5.02165 12.2681 5.13028 12.2773C5.2389 12.2864 5.34466 12.3169 5.44151 12.3669C5.53837 12.4169 5.62442 12.4856 5.69475 12.5688C5.76509 12.6521 5.81834 12.7484 5.85145 12.8523C5.88456 12.9561 5.8969 13.0655 5.88775 13.1741C5.87859 13.2828 5.84814 13.3885 5.79811 13.4854C5.56341 13.9398 5.34833 14.4042 5.15348 14.8771C5.09091 15.0293 4.98451 15.1595 4.84779 15.2511C4.71108 15.3427 4.55022 15.3916 4.38565 15.3916ZM6.77113 11.2226C6.61666 11.2224 6.4653 11.1792 6.33406 11.0978C6.20282 11.0163 6.09691 10.8998 6.02825 10.7615C5.95959 10.6231 5.9309 10.4683 5.94541 10.3145C5.95993 10.1607 6.01706 10.014 6.11039 9.89096C6.44801 9.44565 6.80455 9.01499 7.17903 8.60019C7.25207 8.51927 7.34033 8.45352 7.43877 8.4067C7.53722 8.35988 7.64392 8.33291 7.75279 8.32733C7.86165 8.32175 7.97055 8.33767 8.07327 8.37417C8.17599 8.41068 8.27051 8.46706 8.35143 8.54009C8.43236 8.61313 8.49811 8.70139 8.54493 8.79983C8.59175 8.89828 8.61871 9.00498 8.62429 9.11385C8.62988 9.22272 8.61396 9.33162 8.57745 9.43433C8.54095 9.53705 8.48457 9.63157 8.41153 9.7125C8.06889 10.0924 7.74254 10.4866 7.43337 10.8942C7.35585 10.9964 7.25572 11.0792 7.14082 11.1362C7.02592 11.1931 6.89938 11.2227 6.77113 11.2226ZM33.8367 8.32992C33.6381 8.33013 33.4461 8.25889 33.2958 8.12921C32.9078 7.79573 32.5059 7.47886 32.0912 7.17943C31.9158 7.04945 31.7987 6.85563 31.7652 6.63995C31.7317 6.42426 31.7846 6.20406 31.9122 6.02703C32.0399 5.85 32.2322 5.73038 32.4474 5.69407C32.6626 5.65777 32.8835 5.70769 33.0622 5.83304C33.5153 6.16011 33.9544 6.50623 34.3782 6.87048C34.5067 6.981 34.5983 7.12823 34.6407 7.29237C34.6831 7.45651 34.6742 7.62968 34.6152 7.78861C34.5562 7.94754 34.45 8.0846 34.3108 8.18137C34.1716 8.27814 34.0062 8.32998 33.8367 8.32992ZM10.1393 7.79784C9.96659 7.79792 9.79819 7.74416 9.65751 7.64403C9.51684 7.5439 9.41089 7.4024 9.35442 7.23922C9.29795 7.07605 9.29378 6.89932 9.34247 6.73366C9.39117 6.568 9.49031 6.42165 9.6261 6.31499C10.0656 5.96989 10.5197 5.64376 10.9871 5.33749C11.0783 5.27665 11.1806 5.23447 11.2881 5.21338C11.3957 5.19229 11.5064 5.19272 11.6138 5.21463C11.7212 5.23653 11.8231 5.27949 11.9139 5.34103C12.0046 5.40256 12.0822 5.48145 12.1422 5.57314C12.2023 5.66482 12.2436 5.7675 12.2638 5.87523C12.2839 5.98297 12.2825 6.09363 12.2597 6.20083C12.2369 6.30803 12.1931 6.40965 12.1308 6.49983C12.0684 6.59 11.9889 6.66694 11.8967 6.72621C11.469 7.00647 11.0536 7.30491 10.6514 7.6207C10.5054 7.73561 10.325 7.79801 10.1393 7.79784ZM29.8236 5.69077C29.6978 5.69073 29.5738 5.66206 29.4608 5.60693C29.001 5.38319 28.5316 5.17946 28.0542 4.99633C27.8506 4.91607 27.6869 4.75867 27.5988 4.55836C27.5107 4.35805 27.5052 4.13105 27.5836 3.92674C27.662 3.72243 27.8179 3.55734 28.0174 3.46738C28.2169 3.37743 28.4438 3.36989 28.6488 3.4464C29.1709 3.64688 29.6842 3.86972 30.1871 4.11428C30.2852 4.16195 30.3729 4.22847 30.4452 4.31004C30.5176 4.39161 30.5731 4.48663 30.6087 4.58967C30.6444 4.69271 30.6593 4.80176 30.6528 4.91059C30.6462 5.01942 30.6183 5.12589 30.5706 5.22393C30.5024 5.36398 30.3962 5.48203 30.2641 5.56458C30.132 5.64713 29.9793 5.69086 29.8236 5.69077ZM14.2641 5.3423C14.0729 5.34256 13.8876 5.27685 13.7393 5.15626C13.591 5.03568 13.4888 4.86761 13.4501 4.68044C13.4114 4.49327 13.4384 4.29847 13.5267 4.12893C13.6149 3.95939 13.759 3.8255 13.9345 3.74988C14.4474 3.52835 14.9697 3.32906 15.4997 3.15256C15.7081 3.0848 15.9349 3.10222 16.1305 3.20099C16.3261 3.29977 16.4748 3.47189 16.544 3.67982C16.6132 3.88775 16.5973 4.11461 16.4999 4.31092C16.4025 4.50723 16.2315 4.65705 16.024 4.72771C15.5393 4.88917 15.0618 5.0714 14.5928 5.2739C14.4891 5.31895 14.3772 5.34223 14.2641 5.3423ZM25.2699 4.16625C25.2171 4.16625 25.1633 4.16127 25.1097 4.15064C24.6075 4.05261 24.1014 3.97612 23.5927 3.92137C23.3738 3.89786 23.1732 3.78836 23.035 3.61695C22.8969 3.44554 22.8325 3.22627 22.856 3.00737C22.8795 2.78848 22.989 2.58789 23.1604 2.44973C23.3318 2.31158 23.5511 2.24717 23.77 2.27068C24.324 2.33011 24.8819 2.41445 25.428 2.5212C25.535 2.54207 25.6368 2.58382 25.7277 2.64406C25.8185 2.70431 25.8966 2.78187 25.9575 2.87231C26.0183 2.96275 26.0608 3.06429 26.0824 3.17115C26.104 3.278 26.1043 3.38806 26.0834 3.49505C26.0466 3.68388 25.9454 3.85408 25.797 3.97651C25.6486 4.09895 25.4623 4.16602 25.2699 4.16625ZM18.8788 4.02464C18.6694 4.02432 18.4679 3.94488 18.3146 3.80225C18.1613 3.65961 18.0676 3.46431 18.0522 3.25549C18.0369 3.04667 18.101 2.83975 18.2317 2.67621C18.3625 2.51267 18.5502 2.40458 18.7573 2.37361C19.3063 2.29143 19.8669 2.23217 20.4233 2.19714C20.8808 2.16692 21.2749 2.51589 21.3038 2.97359C21.3176 3.19332 21.2435 3.40952 21.0979 3.57464C20.9523 3.73977 20.7471 3.84031 20.5274 3.85414C20.018 3.88601 19.505 3.94047 19.0027 4.0155C18.9617 4.02157 18.9203 4.02463 18.8788 4.02464ZM36.6071 11.2885C36.4782 11.2887 36.351 11.2589 36.2357 11.2013C36.1204 11.1438 36.02 11.0601 35.9427 10.957C35.784 10.7456 35.6206 10.5377 35.4527 10.3336C35.3128 10.1636 35.2461 9.94496 35.2674 9.72583C35.2887 9.50671 35.3962 9.30503 35.5662 9.16514C35.7362 9.02526 35.9548 8.95864 36.1739 8.97993C36.3931 9.00123 36.5947 9.1087 36.7346 9.2787C36.9182 9.50181 37.0968 9.72892 37.2704 9.95986C37.3629 10.0831 37.4193 10.2298 37.4332 10.3833C37.4471 10.5368 37.418 10.6911 37.3492 10.8291C37.2803 10.967 37.1744 11.083 37.0434 11.1641C36.9123 11.2453 36.7613 11.2883 36.6071 11.2885Z" fill="#5C77FF"/>
<path d="M47.8125 20.918H55.2832V28.3887H47.8125V20.918ZM47.8125 32.8711H55.2832V40.3418H47.8125V32.8711ZM47.8125 44.8242H55.2832V52.2949H47.8125V44.8242ZM47.8125 56.7773H55.2832V64.248H47.8125V56.7773ZM47.8125 68.7305H55.2832V76.2012H47.8125V68.7305ZM35.8594 20.918H43.3301V28.3887H35.8594V20.918ZM35.8594 32.8711H43.3301V40.3418H35.8594V32.8711ZM35.8594 44.8242H43.3301V52.2949H35.8594V44.8242ZM35.8594 56.7773H43.3301V64.248H35.8594V56.7773ZM35.8594 68.7305H43.3301V76.2012H35.8594V68.7305ZM23.9062 20.918H31.377V28.3887H23.9062V20.918ZM23.9062 32.8711H31.377V40.3418H23.9062V32.8711ZM23.9062 44.8242H31.377V52.2949H23.9062V44.8242ZM23.9062 56.7773H31.377V64.248H23.9062V56.7773ZM23.9062 68.7305H31.377V76.2012H23.9062V68.7305Z" fill="#485EFF" fill-opacity="0.188235"/>
<path d="M77.6953 81.3477H75.5371V80.6836C75.5371 80.4634 75.4497 80.2523 75.294 80.0966C75.1383 79.941 74.9272 79.8535 74.707 79.8535H72.5488V77.6953C72.5488 77.4752 72.4614 77.264 72.3057 77.1084C72.15 76.9527 71.9389 76.8652 71.7188 76.8652H68.8135V41.0889C68.8135 40.9798 68.792 40.8719 68.7503 40.7711C68.7086 40.6704 68.6474 40.5789 68.5703 40.5018L60.5957 32.5273V16.4355C60.5957 16.2154 60.5082 16.0043 60.3526 15.8486C60.1969 15.6929 59.9858 15.6055 59.7656 15.6055H54.6191V10.459C54.6191 10.2388 54.5317 10.0277 54.376 9.87203C54.2203 9.71636 54.0092 9.62891 53.7891 9.62891H45.6543V5.97656C45.6543 5.75641 45.5668 5.54528 45.4112 5.38961C45.2555 5.23394 45.0444 5.14648 44.8242 5.14648C44.6041 5.14648 44.3929 5.23394 44.2373 5.38961C44.0816 5.54528 43.9941 5.75641 43.9941 5.97656V9.62891H39.6777V2.98828C39.6777 2.76813 39.5903 2.557 39.4346 2.40133C39.2789 2.24566 39.0678 2.1582 38.8477 2.1582C38.6275 2.1582 38.4164 2.24566 38.2607 2.40133C38.105 2.557 38.0176 2.76813 38.0176 2.98828V9.62891H32.8711C32.6509 9.62891 32.4398 9.71636 32.2841 9.87203C32.1285 10.0277 32.041 10.2388 32.041 10.459V15.6055H19.4238C19.2037 15.6055 18.9925 15.6929 18.8369 15.8486C18.6812 16.0043 18.5938 16.2154 18.5938 16.4355V25.149L12.7566 33.9047C12.6657 34.0411 12.6172 34.2013 12.6172 34.3652V73.877H8.96484C8.74469 73.877 8.53356 73.9644 8.37789 74.1201C8.22222 74.2757 8.13477 74.4869 8.13477 74.707V79.8535H5.97656C5.75641 79.8535 5.54528 79.941 5.38961 80.0966C5.23394 80.2523 5.14648 80.4634 5.14648 80.6836V81.3477H2.98828C2.76813 81.3477 2.557 81.4351 2.40133 81.5908C2.24566 81.7465 2.1582 81.9576 2.1582 82.1777C2.1582 82.3979 2.24566 82.609 2.40133 82.7647C2.557 82.9204 2.76813 83.0078 2.98828 83.0078H77.6953C77.9155 83.0078 78.1266 82.9204 78.2823 82.7647C78.4379 82.609 78.5254 82.3979 78.5254 82.1777C78.5254 81.9576 78.4379 81.7465 78.2823 81.5908C78.1266 81.4351 77.9155 81.3477 77.6953 81.3477ZM33.7012 11.2891H52.959V15.6055H33.7012V11.2891ZM9.79492 80.6836V75.5371H13.4473C13.6674 75.5371 13.8786 75.4497 14.0342 75.294C14.1899 75.1383 14.2773 74.9272 14.2773 74.707V34.6166L18.5938 28.142V81.3477H9.46289C9.56608 81.2704 9.64982 81.1702 9.70746 81.0549C9.7651 80.9396 9.79505 80.8125 9.79492 80.6836ZM20.2539 25.4004V17.2656H58.9355V81.3477H20.2539V25.4004ZM60.5957 81.3477V34.8751L67.1533 41.4327V77.6953C67.1533 77.9155 67.2408 78.1266 67.3964 78.2823C67.5521 78.4379 67.7632 78.5254 67.9834 78.5254H70.8887V80.6836C70.8885 80.8125 70.9185 80.9396 70.9761 81.0549C71.0338 81.1702 71.1175 81.2704 71.2207 81.3477H60.5957ZM82.1777 81.3477H80.6836C80.2251 81.3477 79.8535 81.7192 79.8535 82.1777C79.8535 82.6363 80.2251 83.0078 80.6836 83.0078H82.1777C82.3979 83.0078 82.609 82.9204 82.7647 82.7647C82.9204 82.609 83.0078 82.3979 83.0078 82.1777C83.0078 81.9576 82.9204 81.7465 82.7647 81.5908C82.609 81.4351 82.3979 81.3477 82.1777 81.3477Z" fill="#354B87"/>
<path d="M77.6953 14.2773H68.7305C68.6215 14.2773 68.5135 14.2559 68.4128 14.2142C68.3121 14.1724 68.2206 14.1113 68.1435 14.0342C68.0664 13.9571 68.0053 13.8656 67.9636 13.7649C67.9219 13.6642 67.9004 13.5563 67.9004 13.4473C67.9004 13.3383 67.9219 13.2303 67.9636 13.1296C68.0053 13.0289 68.0664 12.9374 68.1435 12.8603C68.2206 12.7832 68.3121 12.7221 68.4128 12.6804C68.5135 12.6387 68.6215 12.6172 68.7305 12.6172H77.6953C77.8043 12.6172 77.9123 12.6387 78.013 12.6804C78.1137 12.7221 78.2052 12.7832 78.2823 12.8603C78.3593 12.9374 78.4205 13.0289 78.4622 13.1296C78.5039 13.2303 78.5254 13.3383 78.5254 13.4473C78.5254 13.5563 78.5039 13.6642 78.4622 13.7649C78.4205 13.8656 78.3593 13.9571 78.2823 14.0342C78.2052 14.1113 78.1137 14.1724 78.013 14.2142C77.9123 14.2559 77.8043 14.2773 77.6953 14.2773Z" fill="#5C77FF"/>
<path d="M82.1777 14.2773H80.6836C80.5746 14.2773 80.4666 14.2559 80.3659 14.2142C80.2652 14.1724 80.1737 14.1113 80.0966 14.0342C80.0196 13.9571 79.9584 13.8656 79.9167 13.7649C79.875 13.6642 79.8535 13.5563 79.8535 13.4473C79.8535 13.3383 79.875 13.2303 79.9167 13.1296C79.9584 13.0289 80.0196 12.9374 80.0966 12.8603C80.1737 12.7832 80.2652 12.7221 80.3659 12.6804C80.4666 12.6387 80.5746 12.6172 80.6836 12.6172H82.1777C82.2867 12.6172 82.3947 12.6387 82.4954 12.6804C82.5961 12.7221 82.6876 12.7832 82.7647 12.8603C82.8418 12.9374 82.9029 13.0289 82.9446 13.1296C82.9863 13.2303 83.0078 13.3383 83.0078 13.4473C83.0078 13.5563 82.9863 13.6642 82.9446 13.7649C82.9029 13.8656 82.8418 13.9571 82.7647 14.0342C82.6876 14.1113 82.5961 14.1724 82.4954 14.2142C82.3947 14.2559 82.2867 14.2773 82.1777 14.2773Z" fill="#485EFF" fill-opacity="0.188235"/>
<path d="M73.2129 18.7598H64.248C64.0279 18.7598 63.8168 18.6723 63.6611 18.5166C63.5054 18.361 63.418 18.1498 63.418 17.9297C63.418 17.7095 63.5054 17.4984 63.6611 17.3427C63.8168 17.1871 64.0279 17.0996 64.248 17.0996H73.2129C73.433 17.0996 73.6442 17.1871 73.7998 17.3427C73.9555 17.4984 74.043 17.7095 74.043 17.9297C74.043 18.1498 73.9555 18.361 73.7998 18.5166C73.6442 18.6723 73.433 18.7598 73.2129 18.7598ZM8.96484 44.1602H4.48242C4.26227 44.1602 4.05114 44.0727 3.89547 43.917C3.7398 43.7614 3.65234 43.5502 3.65234 43.3301C3.65234 43.1099 3.7398 42.8988 3.89547 42.7431C4.05114 42.5875 4.26227 42.5 4.48242 42.5H8.96484C9.18499 42.5 9.39613 42.5875 9.5518 42.7431C9.70747 42.8988 9.79492 43.1099 9.79492 43.3301C9.79492 43.5502 9.70747 43.7614 9.5518 43.917C9.39613 44.0727 9.18499 44.1602 8.96484 44.1602Z" fill="#5C77FF"/>
<path d="M10.459 47.1484H7.4707C7.25055 47.1484 7.03942 47.061 6.88375 46.9053C6.72808 46.7496 6.64062 46.5385 6.64062 46.3184C6.64062 46.0982 6.72808 45.8871 6.88375 45.7314C7.03942 45.5757 7.25055 45.4883 7.4707 45.4883H10.459C10.6791 45.4883 10.8903 45.5757 11.0459 45.7314C11.2016 45.8871 11.2891 46.0982 11.2891 46.3184C11.2891 46.5385 11.2016 46.7496 11.0459 46.9053C10.8903 47.061 10.6791 47.1484 10.459 47.1484Z" fill="#485EFF" fill-opacity="0.188235"/>
<path d="M59.7656 5.3125H53.7891C53.5689 5.3125 53.3578 5.22505 53.2021 5.06938C53.0464 4.91371 52.959 4.70257 52.959 4.48242C52.959 4.26227 53.0464 4.05114 53.2021 3.89547C53.3578 3.7398 53.5689 3.65234 53.7891 3.65234H59.7656C59.9858 3.65234 60.1969 3.7398 60.3526 3.89547C60.5082 4.05114 60.5957 4.26227 60.5957 4.48242C60.5957 4.70257 60.5082 4.91371 60.3526 5.06938C60.1969 5.22505 59.9858 5.3125 59.7656 5.3125Z" fill="#5C77FF"/>
<path d="M64.248 5.3125H62.7539C62.5338 5.3125 62.3226 5.22505 62.167 5.06938C62.0113 4.91371 61.9238 4.70257 61.9238 4.48242C61.9238 4.26227 62.0113 4.05114 62.167 3.89547C62.3226 3.7398 62.5338 3.65234 62.7539 3.65234H64.248C64.4682 3.65234 64.6793 3.7398 64.835 3.89547C64.9907 4.05114 65.0781 4.26227 65.0781 4.48242C65.0781 4.70257 64.9907 4.91371 64.835 5.06938C64.6793 5.22505 64.4682 5.3125 64.248 5.3125Z" fill="#485EFF" fill-opacity="0.188235"/>
</svg>
