<svg width="85" height="85" viewBox="0 0 85 85" fill="none" xmlns="http://www.w3.org/2000/svg">
<path fill-rule="evenodd" clip-rule="evenodd" d="M77.6151 31.4576C77.4767 31.4576 77.3384 31.423 77.2 31.3538C76.8023 31.129 76.6639 30.6102 76.906 30.2124L78.3933 27.6183C79.1542 26.304 78.8602 25.249 78.4798 24.6091C77.8572 23.5369 76.612 22.8279 75.3841 22.8279C74.6232 22.8279 73.5683 23.1046 72.8073 24.4016L71.3028 26.9957C71.0779 27.3935 70.5591 27.5318 70.1614 27.307C69.7636 27.0822 69.6252 26.5634 69.8501 26.1656L71.3546 23.5715C72.9284 20.8563 75.8684 20.6661 77.9782 21.8767C79.0678 22.4993 79.8806 23.4677 80.2611 24.5746C80.7107 25.837 80.5551 27.186 79.8114 28.4657L78.3068 31.0598C78.1858 31.3019 77.9091 31.4576 77.6151 31.4576ZM56.4818 59.9581C56.3435 59.9581 56.1878 59.9235 56.0668 59.8543C55.7901 59.6987 55.6344 59.3874 55.6517 59.0761L56.3435 49.7719C56.378 49.3223 56.7758 48.9764 57.2254 49.011C57.6751 49.0456 58.021 49.4433 57.9864 49.893L57.433 57.485L63.728 53.1961C64.1085 52.9367 64.6273 53.0405 64.8867 53.4209C65.1461 53.8014 65.0423 54.3202 64.6619 54.5796L56.9487 59.8197C56.8104 59.9062 56.6375 59.9581 56.4818 59.9581Z" fill="#F9A12A"/>
<path fill-rule="evenodd" clip-rule="evenodd" d="M65.2665 36.6113C64.7996 36.6113 64.4364 36.2481 64.4364 35.7812V22.5859C64.4364 22.119 64.8169 21.7558 65.2665 21.7558C65.7334 21.7558 66.0966 22.119 66.0966 22.5859V35.7812C66.0966 36.2481 65.7162 36.6113 65.2665 36.6113ZM63.4506 67.2736H17.0681C15.6154 67.2736 14.4395 66.0976 14.4395 64.6449V10.4109C14.4395 8.95822 15.6154 7.78223 17.0681 7.78223H51.2757C51.7426 7.78223 52.1058 8.16269 52.1058 8.61234C52.1058 9.06198 51.7426 9.44245 51.2757 9.44245H17.0854C16.5493 9.44245 16.117 9.8748 16.117 10.4109V64.6276C16.117 65.1637 16.5493 65.5961 17.0854 65.5961H63.4679C64.004 65.5961 64.4364 65.1637 64.4364 64.6276V52.003C64.4364 51.536 64.8169 51.1729 65.2665 51.1729C65.7334 51.1729 66.0966 51.536 66.0966 52.003V64.6276C66.0966 66.0803 64.9033 67.2736 63.4506 67.2736Z" fill="#4D81C2"/>
<path fill-rule="evenodd" clip-rule="evenodd" d="M52.1055 10.6014V20.5108C52.1055 21.1853 52.6589 21.756 53.3507 21.756H63.2602L52.1055 10.6014ZM65.2663 23.4162H53.3507C51.7597 23.4162 50.4453 22.1192 50.4453 20.5108V8.59527C50.4453 8.26668 50.6528 7.95539 50.9641 7.83433C51.2754 7.71328 51.6386 7.78245 51.8634 8.00727L65.8543 21.9981C66.0964 22.2402 66.1656 22.5861 66.0272 22.8974C65.9061 23.226 65.5949 23.4162 65.2663 23.4162Z" fill="#4D81C2"/>
<path fill-rule="evenodd" clip-rule="evenodd" d="M57.8649 30.7315H22.6543C22.1874 30.7315 21.8242 30.3683 21.8242 29.9014C21.8242 29.4345 22.2047 29.0713 22.6543 29.0713H57.8649C58.3319 29.0713 58.695 29.4518 58.695 29.9014C58.695 30.3683 58.3319 30.7315 57.8649 30.7315ZM57.8649 40.468H22.6543C22.1874 40.468 21.8242 40.1049 21.8242 39.6379C21.8242 39.171 22.2047 38.8078 22.6543 38.8078H57.8649C58.3319 38.8078 58.695 39.1883 58.695 39.6379C58.695 40.1049 58.3319 40.468 57.8649 40.468ZM52.1579 50.2218H22.6543C22.1874 50.2218 21.8242 49.8587 21.8242 49.3917C21.8242 48.9248 22.2047 48.5616 22.6543 48.5616H52.1579C52.6248 48.5616 52.988 48.9248 52.988 49.3917C52.988 49.8414 52.6248 50.2218 52.1579 50.2218ZM52.1579 59.9584H22.6543C22.1874 59.9584 21.8242 59.5952 21.8242 59.1283C21.8242 58.6613 22.2047 58.2981 22.6543 58.2981H52.1579C52.6248 58.2981 52.988 58.6613 52.988 59.1283C52.988 59.5779 52.6248 59.9584 52.1579 59.9584Z" fill="#F9A12A"/>
<path fill-rule="evenodd" clip-rule="evenodd" d="M53.4897 77.2348H7.1072C5.65451 77.2348 4.47852 76.0588 4.47852 74.6061V20.3894C4.47852 18.9367 5.65451 17.7607 7.1072 17.7607H15.27C15.7196 17.7607 16.1001 18.1239 16.1001 18.5909C16.1001 19.0405 15.7196 19.421 15.27 19.421H7.1072C6.57109 19.421 6.13874 19.8533 6.13874 20.3894V74.6061C6.13874 75.1422 6.57109 75.5746 7.1072 75.5746H53.4897C54.0258 75.5746 54.4582 75.1422 54.4582 74.6061V66.4433C54.4582 65.9764 54.8214 65.6132 55.2883 65.6132C55.7552 65.6132 56.1184 65.9764 56.1184 66.4433V74.6061C56.1357 76.0415 54.9424 77.2348 53.4897 77.2348Z" fill="#4D81C2"/>
<path fill-rule="evenodd" clip-rule="evenodd" d="M58.298 49.5127L63.8839 52.7466L76.474 30.9389L70.888 27.7049L58.298 49.5127ZM64.1952 54.7009C64.0569 54.7009 63.9012 54.6663 63.7802 54.5971L56.7588 50.533C56.3611 50.3082 56.2227 49.7894 56.4475 49.3916L69.8677 26.1485C70.0925 25.7507 70.6113 25.6124 71.0091 25.8372L78.0304 29.9013C78.2207 30.005 78.359 30.1953 78.4109 30.4028C78.4628 30.6103 78.4455 30.8351 78.3244 31.0254L64.9043 54.2858C64.8005 54.476 64.6103 54.6144 64.4028 54.6663C64.3336 54.7009 64.2644 54.7009 64.1952 54.7009Z" fill="#F9A12A"/>
</svg>
