<svg width="85" height="85" viewBox="0 0 85 85" fill="none" xmlns="http://www.w3.org/2000/svg">
<path fill-rule="evenodd" clip-rule="evenodd" d="M53.0682 3.54883V12.256C53.0687 12.4984 53.1653 12.7308 53.3367 12.9022C53.5081 13.0736 53.7404 13.1701 53.9829 13.1707H62.69C62.6022 12.9767 62.4729 12.7965 62.3112 12.6348L53.604 3.92766C53.4484 3.77163 53.2672 3.64349 53.0682 3.54883ZM8.81836 58.3923C8.81836 58.1713 8.90616 57.9594 9.06244 57.8031C9.21872 57.6468 9.43068 57.559 9.65169 57.559H19.9842C20.2052 57.559 20.4172 57.6468 20.5734 57.8031C20.7297 57.9594 20.8175 58.1713 20.8175 58.3923V68.7248C20.8175 68.9458 20.7297 69.1578 20.5734 69.3141C20.4172 69.4704 20.2052 69.5582 19.9842 69.5582H9.65169C9.43068 69.5582 9.21872 69.4704 9.06244 69.3141C8.90616 69.1578 8.81836 68.9458 8.81836 68.7248V58.3923ZM8.81836 19.2847C8.81836 19.0637 8.90616 18.8517 9.06244 18.6954C9.21872 18.5391 9.43068 18.4513 9.65169 18.4513H19.9842C20.2052 18.4513 20.4172 18.5391 20.5734 18.6954C20.7297 18.8517 20.8175 19.0637 20.8175 19.2847V29.6172C20.8175 29.8382 20.7297 30.0501 20.5734 30.2064C20.4172 30.3627 20.2052 30.4505 19.9842 30.4505H9.65169C9.43068 30.4505 9.21872 30.3627 9.06244 30.2064C8.90616 30.0501 8.81836 29.8382 8.81836 29.6172V19.2847ZM8.81836 38.8385C8.81836 38.6175 8.90616 38.4055 9.06244 38.2492C9.21872 38.093 9.43068 38.0052 9.65169 38.0052H19.9842C20.2052 38.0052 20.4172 38.093 20.5734 38.2492C20.7297 38.4055 20.8175 38.6175 20.8175 38.8385V49.171C20.8175 49.392 20.7297 49.604 20.5734 49.7603C20.4172 49.9165 20.2052 50.0043 19.9842 50.0043H9.65169C9.43068 50.0043 9.21872 49.9165 9.06244 49.7603C8.90616 49.604 8.81836 49.392 8.81836 49.171V38.8385ZM62.8477 74.7387C52.0217 74.7387 43.1899 65.9127 43.1899 55.0867C43.1899 44.2608 52.0217 35.4288 62.8477 35.4288C73.6735 35.4288 82.4997 44.2608 82.4997 55.0867C82.4997 65.9127 73.6735 74.7387 62.8477 74.7387ZM60.2674 56.8168L55.8747 52.4242C54.737 51.2865 52.8897 51.2865 51.752 52.4242C50.6144 53.5678 50.6144 55.4093 51.752 56.547L58.2089 63.0097C59.3465 64.1473 61.1939 64.1473 62.3315 63.0097C66.2257 59.1157 70.0727 55.1805 73.9492 51.269C75.081 50.1253 75.0752 48.2838 73.9375 47.152C72.7997 46.0202 70.9524 46.026 69.8205 47.1638L60.2674 56.8168Z" fill="#9BC9FF"/>
<path fill-rule="evenodd" clip-rule="evenodd" d="M51.734 4.72721H4.07602C3.94202 4.72721 3.83268 4.83655 3.83268 4.97071V80.0301C3.83268 80.1641 3.94202 80.2736 4.07602 80.2736H61.2677C61.4018 80.2736 61.511 80.1641 61.511 80.0301V79.7389C61.511 79.0031 62.1085 78.4056 62.8444 78.4056C63.5804 78.4056 64.1777 79.0031 64.1777 79.7389V80.0301C64.1777 81.6329 62.8703 82.9402 61.2677 82.9402H4.07602C2.47335 82.9402 1.16602 81.6329 1.16602 80.0301V4.97071C1.16602 3.36771 2.47335 2.06055 4.07602 2.06055H52.4142C52.8505 2.06055 53.2528 2.14955 53.6213 2.31788C53.9383 2.46351 54.2263 2.665 54.4718 2.91271L63.3253 11.7662C63.5834 12.0242 63.7802 12.3094 63.9208 12.6177V12.618C64.0888 12.986 64.1777 13.388 64.1777 13.824V30.4291C64.1777 31.1649 63.5804 31.7624 62.8444 31.7624C62.1085 31.7624 61.511 31.1649 61.511 30.4291V14.5044H53.856C52.687 14.5044 51.734 13.551 51.734 12.3825V4.72721ZM59.6257 11.8377L54.4007 6.61288V11.8377H59.6257ZM27.233 68.1512C26.497 68.1512 25.8997 67.5537 25.8997 66.8179C25.8997 66.0821 26.497 65.4846 27.233 65.4846H41.171C41.9068 65.4846 42.5043 66.0821 42.5043 66.8179C42.5043 67.5537 41.9068 68.1512 41.171 68.1512H27.233ZM27.233 61.6332C26.497 61.6332 25.8997 61.0359 25.8997 60.2999C25.8997 59.5641 26.497 58.9666 27.233 58.9666H38.7458C39.4817 58.9666 40.0792 59.5641 40.0792 60.2999C40.0792 61.0359 39.4817 61.6332 38.7458 61.6332H27.233ZM27.233 48.597C26.497 48.597 25.8997 47.9997 25.8997 47.2637C25.8999 46.9102 26.0404 46.5712 26.2904 46.3212C26.5404 46.0712 26.8795 45.9307 27.233 45.9306H39.465C40.201 45.9306 40.7984 46.5279 40.7984 47.2637C40.7984 47.9997 40.201 48.597 39.465 48.597H27.233ZM27.233 42.0792C26.497 42.0792 25.8997 41.4817 25.8997 40.7459C25.8997 40.0101 26.497 39.4126 27.233 39.4126H42.8095C43.5453 39.4126 44.1427 40.0101 44.1427 40.7459C44.1427 41.4817 43.5453 42.0792 42.8095 42.0792H27.233ZM27.233 22.5254C26.497 22.5254 25.8997 21.9279 25.8997 21.192C25.8997 20.4562 26.497 19.8587 27.233 19.8587H52.9015C53.6373 19.8587 54.2348 20.4562 54.2348 21.192C54.2348 21.9279 53.6373 22.5254 52.9015 22.5254H27.233ZM27.233 29.0432C26.497 29.0432 25.8997 28.4459 25.8997 27.7099C25.8999 27.3563 26.0404 27.0173 26.2904 26.7673C26.5404 26.5173 26.8795 26.3769 27.233 26.3767H52.9015C53.6373 26.3767 54.2348 26.974 54.2348 27.7099C54.2348 28.4459 53.6373 29.0432 52.9015 29.0432H27.233ZM8.81802 56.2259H20.8172C21.1708 56.2259 21.5099 56.3664 21.76 56.6164C22.01 56.8665 22.1505 57.2056 22.1505 57.5592V69.5584C22.1505 69.912 22.01 70.2512 21.76 70.5012C21.5099 70.7512 21.1708 70.8917 20.8172 70.8917H8.81802C8.46439 70.8917 8.12526 70.7512 7.87521 70.5012C7.62516 70.2512 7.48468 69.912 7.48468 69.5584V57.5592C7.48468 57.2056 7.62516 56.8665 7.87521 56.6164C8.12526 56.3664 8.46439 56.2259 8.81802 56.2259ZM10.1513 58.8926V68.2251H19.4838V58.8926H10.1513ZM11.4735 64.5506C10.9532 64.0301 10.9532 63.1852 11.4735 62.6649C11.9938 62.1446 12.8388 62.1446 13.3592 62.6649L14.0365 63.3421L16.8408 60.9472C17.1098 60.7178 17.4589 60.6045 17.8114 60.6322C18.1639 60.66 18.491 60.8266 18.7207 61.0954C19.1987 61.6549 19.1322 62.4972 18.5727 62.9752L14.831 66.1704C14.5759 66.3883 14.248 66.5019 13.9128 66.4887C13.5775 66.4755 13.2596 66.3365 13.0223 66.0992L11.4735 64.5506ZM8.81802 17.1182H20.8172C21.1708 17.1182 21.5099 17.2587 21.76 17.5087C22.01 17.7588 22.1505 18.0979 22.1505 18.4515V30.4507C22.1505 30.8043 22.01 31.1435 21.76 31.3935C21.5099 31.6436 21.1708 31.7841 20.8172 31.7841H8.81802C8.46439 31.7841 8.12526 31.6436 7.87521 31.3935C7.62516 31.1435 7.48468 30.8043 7.48468 30.4507V18.4515C7.48468 18.0979 7.62516 17.7588 7.87521 17.5087C8.12526 17.2587 8.46439 17.1182 8.81802 17.1182ZM10.1513 19.7847V29.1174H19.4838V19.7847H10.1513ZM11.4735 25.6807C11.2236 25.4306 11.0833 25.0915 11.0833 24.738C11.0833 24.3844 11.2236 24.0453 11.4735 23.7952C11.7236 23.5453 12.0628 23.4049 12.4163 23.4049C12.7699 23.4049 13.1091 23.5453 13.3592 23.7952L14.0365 24.4724L16.8408 22.0775C17.1098 21.8481 17.4589 21.7348 17.8114 21.7626C18.1639 21.7903 18.4909 21.9568 18.7207 22.2255C18.9502 22.4945 19.0635 22.8436 19.0357 23.1961C19.008 23.5486 18.8414 23.8756 18.5727 24.1054L14.831 27.3006C14.5759 27.5184 14.248 27.6321 13.9128 27.619C13.5776 27.6058 13.2596 27.4668 13.0223 27.2296L11.4735 25.6807ZM8.81802 36.6721H20.8172C21.1708 36.6721 21.5099 36.8125 21.76 37.0626C22.01 37.3126 22.1505 37.6518 22.1505 38.0054V50.0046C22.1505 50.3582 22.01 50.6973 21.76 50.9474C21.5099 51.1974 21.1708 51.3379 20.8172 51.3379H8.81802C8.46439 51.3379 8.12526 51.1974 7.87521 50.9474C7.62516 50.6973 7.48468 50.3582 7.48468 50.0046V38.0054C7.48468 37.6518 7.62516 37.3126 7.87521 37.0626C8.12526 36.8125 8.46439 36.6721 8.81802 36.6721ZM10.1513 39.3387V48.6712H19.4838V39.3387H10.1513ZM11.4735 44.9967C10.9532 44.4762 10.9532 43.6314 11.4735 43.1111C11.9938 42.5907 12.8388 42.5907 13.3592 43.1111L14.0365 43.7882L16.8408 41.3934C17.1098 41.1639 17.4589 41.0506 17.8114 41.0784C18.1639 41.1062 18.491 41.2728 18.7207 41.5415C19.1987 42.101 19.1322 42.9434 18.5727 43.4214L14.831 46.6166C14.5759 46.8344 14.248 46.9481 13.9128 46.9349C13.5775 46.9217 13.2596 46.7826 13.0223 46.5454L11.4735 44.9967ZM62.8474 76.0722C51.287 76.0722 41.8562 66.6472 41.8562 55.0869C41.8562 43.5267 51.2872 34.0957 62.8474 34.0957C74.4077 34.0957 83.8327 43.5267 83.8327 55.0869C83.8327 66.6474 74.4077 76.0722 62.8474 76.0722ZM62.8474 73.4056C72.9387 73.4056 81.166 65.1784 81.166 55.0869C81.166 44.9954 72.9389 36.7624 62.8474 36.7624C52.7557 36.7624 44.5229 44.9954 44.5229 55.0869C44.5229 65.1784 52.7559 73.4056 62.8474 73.4056ZM60.262 54.9264L68.8725 46.2261L68.875 46.2236C70.5254 44.5647 73.2187 44.5567 74.8775 46.2071C76.5357 47.8566 76.5462 50.5404 74.8965 52.2071L74.896 52.2077C71.018 56.1207 67.1695 60.0572 63.274 63.9527C61.616 65.6107 58.9239 65.6107 57.2657 63.9527L50.8088 57.4901C49.1515 55.8326 49.149 53.1501 50.8065 51.4841L50.8088 51.4817C52.467 49.8236 55.1592 49.8236 56.8172 51.4817L60.262 54.9264ZM59.3242 57.7597L54.9317 53.3672C54.3147 52.7502 53.3132 52.7499 52.6957 53.3661C52.0789 53.9874 52.0768 54.9867 52.6945 55.6044L59.1513 62.0671C59.7687 62.6844 60.7712 62.6844 61.3885 62.0671C65.2809 58.1747 69.1264 54.2412 73.0012 50.3312C73.6153 49.7107 73.614 48.7116 72.9968 48.0976C72.3803 47.4842 71.3795 47.4877 70.766 48.1037L61.2147 57.7549C61.0911 57.8797 60.9441 57.979 60.782 58.0468C60.62 58.1147 60.4461 58.1498 60.2704 58.1503C60.0948 58.1507 59.9207 58.1165 59.7583 58.0494C59.5959 57.9824 59.4484 57.8839 59.3242 57.7597Z" fill="#6699FF"/>
</svg>
