<svg width="16" height="16" viewBox="0 0 16 16" fill="none" xmlns="http://www.w3.org/2000/svg">
<path d="M8.45061 7.07436H15.733C15.8133 7.52302 15.8535 7.95159 15.8535 8.36007C15.8535 9.8132 15.5488 11.1106 14.9395 12.2524C14.3301 13.3941 13.4612 14.2864 12.3329 14.9293C11.2045 15.5721 9.91043 15.8936 8.45061 15.8936C7.39927 15.8936 6.39816 15.691 5.44727 15.2859C4.49637 14.8807 3.67606 14.3333 2.98633 13.6436C2.2966 12.9538 1.74916 12.1335 1.34403 11.1826C0.938895 10.2317 0.736328 9.23061 0.736328 8.17927C0.736328 7.12793 0.938895 6.12681 1.34403 5.17592C1.74916 4.22503 2.2966 3.40472 2.98633 2.71498C3.67606 2.02525 4.49637 1.47782 5.44727 1.07268C6.39816 0.66755 7.39927 0.464983 8.45061 0.464983C10.4595 0.464983 12.1839 1.13797 13.6236 2.48396L11.5243 4.50293C10.7006 3.70605 9.67606 3.30762 8.45061 3.30762C7.58677 3.30762 6.78823 3.52525 6.05497 3.96052C5.32171 4.39579 4.74079 4.98675 4.31222 5.7334C3.88365 6.48005 3.66936 7.29534 3.66936 8.17927C3.66936 9.0632 3.88365 9.87849 4.31222 10.6251C4.74079 11.3718 5.32171 11.9628 6.05497 12.398C6.78823 12.8333 7.58677 13.0509 8.45061 13.0509C9.0332 13.0509 9.56892 12.9706 10.0578 12.8098C10.5466 12.6491 10.9484 12.4482 11.2631 12.2072C11.5778 11.9661 11.8524 11.6915 12.0868 11.3835C12.3211 11.0755 12.4936 10.7842 12.6041 10.5096C12.7146 10.2351 12.7899 9.97391 12.8301 9.72614H8.45061V7.07436Z" fill="#4C4C4C"/>
</svg>
