<svg width="16" height="16" viewBox="0 0 16 16" fill="none" xmlns="http://www.w3.org/2000/svg">
<path d="M14.0773 13.5029V6.994H12.7213C12.8552 7.41588 12.9222 7.85449 12.9222 8.30985C12.9222 9.1536 12.7079 9.93206 12.2793 10.6452C11.8507 11.3584 11.2681 11.9226 10.5315 12.3378C9.79492 12.7529 8.99135 12.9605 8.12081 12.9605C6.80162 12.9605 5.67327 12.5068 4.73577 11.5995C3.79827 10.6921 3.32952 9.59556 3.32952 8.30985C3.32952 7.85449 3.39648 7.41588 3.53041 6.994H2.11412V13.5029C2.11412 13.677 2.17271 13.8227 2.2899 13.9399C2.40709 14.0571 2.55273 14.1157 2.72684 14.1157H13.4646C13.632 14.1157 13.7759 14.0571 13.8965 13.9399C14.017 13.8227 14.0773 13.677 14.0773 13.5029ZM10.3156 10.2736C10.3156 10.2736 10.4671 10.1271 10.7701 9.83412C11.0731 9.54116 11.2246 8.97949 11.2246 8.14914C11.2246 7.31878 10.9216 6.61063 10.3156 6.02469C9.70954 5.43876 8.97796 5.14579 8.12081 5.14579C7.27037 5.14579 6.54213 5.43876 5.9361 6.02469C5.33008 6.61063 5.02706 7.31878 5.02706 8.14914C5.02706 8.97949 5.33008 9.68764 5.9361 10.2736C6.54213 10.8595 7.27037 11.1525 8.12081 11.1525C8.97796 11.1525 9.70954 10.8595 10.3156 10.2736ZM14.0773 4.53306V2.8757C14.0773 2.6882 14.0103 2.52581 13.8764 2.38853C13.7425 2.25126 13.5784 2.18262 13.3842 2.18262H11.6364C11.4422 2.18262 11.2782 2.25126 11.1443 2.38853C11.0103 2.52581 10.9434 2.6882 10.9434 2.8757V4.53306C10.9434 4.72726 11.0103 4.89132 11.1443 5.02525C11.2782 5.15918 11.4422 5.22614 11.6364 5.22614H13.3842C13.5784 5.22614 13.7425 5.15918 13.8764 5.02525C14.0103 4.89132 14.0773 4.72726 14.0773 4.53306ZM15.8251 2.44378V13.9148C15.8251 14.4572 15.6309 14.9226 15.2425 15.311C14.8541 15.6994 14.3887 15.8936 13.8463 15.8936H2.37528C1.83287 15.8936 1.36747 15.6994 0.979074 15.311C0.590681 14.9226 0.396484 14.4572 0.396484 13.9148V2.44378C0.396484 1.90137 0.590681 1.43597 0.979074 1.04757C1.36747 0.65918 1.83287 0.464983 2.37528 0.464983H13.8463C14.3887 0.464983 14.8541 0.65918 15.2425 1.04757C15.6309 1.43597 15.8251 1.90137 15.8251 2.44378Z" fill="#4C4C4C"/>
</svg>
