<svg width="85" height="85" viewBox="0 0 85 85" fill="none" xmlns="http://www.w3.org/2000/svg">
<path d="M60.4989 73.6945H30.095V72.0343H60.4989V73.6945ZM69.8025 56.4986H68.1423V44.5237H69.8025V56.4986ZM16.8574 41.1616H15.1973V14.7809C15.1973 14.5608 15.2847 14.3497 15.4403 14.194L27.5649 2.06938C27.642 1.99228 27.7335 1.93111 27.8343 1.88938C27.935 1.84765 28.0429 1.82617 28.152 1.82617H65.4177C67.8355 1.82617 69.8026 3.79329 69.8026 6.21098V35.1126H68.1425V6.21098C68.1425 4.70853 66.9201 3.48633 65.4177 3.48633H28.4958L16.8574 15.1247V41.1616Z" fill="#1A3B70"/>
<path d="M24.5971 15.6109H16.0273V13.9508H24.5972C26.0997 13.9508 27.322 12.7286 27.322 11.2261V2.65625H28.9822V11.2261C28.982 13.644 27.0149 15.6109 24.5971 15.6109ZM42.4999 58.0454H33.4518C33.2317 58.0454 33.0206 57.9579 32.8649 57.8022C32.7092 57.6466 32.6218 57.4354 32.6218 57.2153C32.6218 56.9951 32.7092 56.784 32.8649 56.6283C33.0206 56.4727 33.2317 56.3852 33.4518 56.3852H42.4999C42.72 56.3852 42.9311 56.4727 43.0868 56.6283C43.2425 56.784 43.3299 56.9951 43.3299 57.2153C43.3299 57.4354 43.2425 57.6466 43.0868 57.8022C42.9311 57.9579 42.72 58.0454 42.4999 58.0454ZM59.9908 53.1247H33.4631C33.243 53.1247 33.0319 53.0372 32.8762 52.8815C32.7205 52.7259 32.6331 52.5147 32.6331 52.2946C32.6331 52.0744 32.7205 51.8633 32.8762 51.7076C33.0319 51.552 33.243 51.4645 33.4631 51.4645H59.9908C60.2109 51.4645 60.4221 51.552 60.5777 51.7076C60.7334 51.8633 60.8208 52.0744 60.8208 52.2946C60.8208 52.5147 60.7334 52.7259 60.5777 52.8815C60.4221 53.0372 60.2109 53.1247 59.9908 53.1247ZM59.9908 48.2041H33.4748C33.2546 48.2041 33.0435 48.1167 32.8878 47.961C32.7321 47.8053 32.6447 47.5942 32.6447 47.3741C32.6447 47.1539 32.7321 46.9428 32.8878 46.7871C33.0435 46.6314 33.2546 46.544 33.4748 46.544H59.9909C60.0999 46.544 60.2079 46.5655 60.3086 46.6072C60.4093 46.6489 60.5008 46.7101 60.5779 46.7872C60.6549 46.8642 60.7161 46.9558 60.7578 47.0565C60.7995 47.1572 60.8209 47.2651 60.8209 47.3741C60.8209 47.4831 60.7994 47.5911 60.7577 47.6918C60.716 47.7925 60.6548 47.884 60.5777 47.9611C60.5007 48.0381 60.4091 48.0993 60.3084 48.141C60.2077 48.1827 60.0998 48.2041 59.9908 48.2041ZM59.9908 43.2838H33.1663C32.9461 43.2838 32.735 43.1963 32.5793 43.0406C32.4237 42.885 32.3362 42.6738 32.3362 42.4537C32.3362 42.2335 32.4237 42.0224 32.5793 41.8667C32.735 41.7111 32.9461 41.6236 33.1663 41.6236H59.9909C60.0999 41.6236 60.2079 41.6451 60.3086 41.6868C60.4093 41.7285 60.5008 41.7897 60.5779 41.8668C60.6549 41.9439 60.7161 42.0354 60.7578 42.1361C60.7995 42.2368 60.8209 42.3448 60.8209 42.4538C60.8209 42.5628 60.7994 42.6707 60.7577 42.7714C60.716 42.8721 60.6548 42.9636 60.5777 43.0407C60.5007 43.1178 60.4091 43.1789 60.3084 43.2206C60.2077 43.2623 60.0998 43.2838 59.9908 43.2838ZM59.9908 38.3632H25.0086C24.5501 38.3632 24.1785 37.9917 24.1785 37.5331C24.1785 37.0746 24.5501 36.7031 25.0086 36.7031H59.9908C60.2109 36.7031 60.4221 36.7905 60.5777 36.9462C60.7334 37.1019 60.8208 37.313 60.8208 37.5331C60.8208 37.7533 60.7334 37.9644 60.5777 38.1201C60.4221 38.2758 60.2109 38.3632 59.9908 38.3632ZM63.5775 49.9923C63.4613 49.9923 63.3464 49.9679 63.2402 49.9207C63.134 49.8735 63.0389 49.8045 62.9611 49.7182C62.8833 49.6319 62.8244 49.5302 62.7883 49.4198C62.7523 49.3093 62.7398 49.1925 62.7518 49.0769L63.3433 43.3467C63.3553 43.2305 63.3917 43.1181 63.4502 43.017L77.236 19.1394C78.1135 17.6196 80.0639 17.0966 81.5839 17.9743C83.1038 18.8519 83.6264 20.8024 82.7488 22.3221L68.9632 46.1998C68.9048 46.301 68.8257 46.3887 68.7312 46.4573L64.0645 49.8347C63.9197 49.9393 63.749 49.9923 63.5775 49.9923ZM64.9767 43.6935L64.5939 47.4021L67.614 45.2162L81.3112 21.4922C81.731 20.7651 81.481 19.8321 80.7538 19.4122C80.0265 18.9924 79.0937 19.2425 78.6737 19.9695L64.9767 43.6935Z" fill="#1A3B70"/>
<path d="M63.7539 44.1529L64.584 42.7152L68.659 45.068L67.8289 46.5057L63.7539 44.1529ZM76.3482 22.3371L77.1783 20.8994L81.2533 23.2524L80.4232 24.6901L76.3482 22.3371Z" fill="#1A3B70"/>
<path d="M77.7261 70.2508V68.5906C77.9463 68.5904 78.1574 68.5029 78.3131 68.3472C78.4688 68.1915 78.5564 67.9804 78.5566 67.7602V66.7739C78.5564 66.5537 78.4688 66.3426 78.3131 66.1869C78.1574 66.0312 77.9463 65.9436 77.7261 65.9434H60.2953C60.0751 65.9436 59.864 66.0312 59.7083 66.1869C59.5526 66.3426 59.4651 66.5538 59.4648 66.7739V67.7602C59.4651 67.9804 59.5527 68.1915 59.7084 68.3471C59.864 68.5028 60.0751 68.5904 60.2953 68.5906H61.9554V70.2508H60.2953C58.922 70.2508 57.8047 69.1337 57.8047 67.7602V66.7739C57.8047 65.4007 58.922 64.2832 60.2953 64.2832H77.7261C79.0993 64.2832 80.2168 65.4005 80.2168 66.7739V67.7602C80.2168 69.1337 79.0995 70.2508 77.7261 70.2508Z" fill="#F88125"/>
<path d="M80.6831 65.9442H77.726V64.284H80.6831C80.9033 64.2838 81.1144 64.1962 81.2701 64.0406C81.4258 63.8849 81.5134 63.6738 81.5137 63.4536V62.4673C81.5135 62.2471 81.4259 62.0359 81.2702 61.8802C81.1144 61.7245 80.9033 61.6369 80.6831 61.6367H63.2523C63.0321 61.637 62.821 61.7246 62.6653 61.8803C62.5096 62.036 62.4221 62.2471 62.4219 62.4673V63.4536C62.4221 63.6738 62.5097 63.8848 62.6654 64.0405C62.8211 64.1962 63.0321 64.2837 63.2523 64.284V65.9442C61.879 65.9442 60.7617 64.827 60.7617 63.4536V62.4673C60.7617 61.094 61.879 59.9766 63.2523 59.9766H80.6831C82.0564 59.9766 83.1738 61.0938 83.1738 62.4673V63.4536C83.1738 64.8269 82.0564 65.9442 80.6831 65.9442Z" fill="#F88125"/>
<path d="M79.3864 61.6365V59.9764C79.6065 59.9761 79.8176 59.8886 79.9733 59.7329C80.129 59.5772 80.2165 59.3661 80.2168 59.146V58.1597C80.2166 57.9395 80.129 57.7284 79.9733 57.5727C79.8177 57.417 79.6066 57.3294 79.3864 57.3291H61.9554C61.7352 57.3294 61.5241 57.417 61.3685 57.5727C61.2128 57.7284 61.1252 57.9395 61.125 58.1597V59.146C61.1253 59.3661 61.2128 59.5772 61.3685 59.7329C61.5242 59.8886 61.7353 59.9761 61.9554 59.9764H63.2523V61.6365H61.9554C60.5821 61.6365 59.4648 60.5194 59.4648 59.146V58.1597C59.4648 56.7864 60.5821 55.6689 61.9554 55.6689H79.3862C80.7595 55.6689 81.8768 56.7862 81.8768 58.1597V59.146C81.877 60.5193 80.7597 61.6365 79.3864 61.6365ZM77.7261 83.1741H60.2953C58.922 83.1741 57.8047 82.0568 57.8047 80.6834V79.6971C57.8047 78.3238 58.922 77.2065 60.2953 77.2065H77.7261C79.0993 77.2065 80.2168 78.3236 80.2168 79.6971V80.6834C80.2168 82.0568 79.0995 83.1741 77.7261 83.1741ZM60.2953 78.8666C60.0751 78.8669 59.864 78.9545 59.7084 79.1102C59.5527 79.2658 59.4651 79.4769 59.4648 79.6971V80.6834C59.4651 80.9035 59.5526 81.1146 59.7083 81.2704C59.864 81.4261 60.0751 81.5137 60.2953 81.5139H77.7261C77.9463 81.5137 78.1574 81.4261 78.3131 81.2704C78.4688 81.1147 78.5564 80.9036 78.5566 80.6834V79.6971C78.5564 79.4769 78.4688 79.2658 78.3131 79.1101C78.1574 78.9544 77.9463 78.8669 77.7261 78.8666H60.2953Z" fill="#F88125"/>
<path d="M80.6831 78.866H77.726V77.2059H80.6831C80.9033 77.2057 81.1144 77.1181 81.2702 76.9624C81.4259 76.8066 81.5135 76.5955 81.5137 76.3753V75.389C81.5134 75.1688 81.4258 74.9577 81.2701 74.802C81.1144 74.6464 80.9033 74.5588 80.6831 74.5586H63.2523C63.0321 74.5589 62.8211 74.6464 62.6654 74.8021C62.5097 74.9578 62.4221 75.1688 62.4219 75.389V76.3753C62.4221 76.5955 62.5096 76.8066 62.6653 76.9623C62.821 77.118 63.0321 77.2056 63.2523 77.2059V78.866C61.879 78.866 60.7617 77.7487 60.7617 76.3753V75.389C60.7617 74.0157 61.879 72.8984 63.2523 72.8984H80.6831C82.0564 72.8984 83.1738 74.0156 83.1738 75.389V76.3753C83.1738 77.7486 82.0564 78.866 80.6831 78.866Z" fill="#F88125"/>
<path d="M79.3864 74.5586V72.8984C79.6066 72.8982 79.8177 72.8106 79.9733 72.6549C80.129 72.4991 80.2166 72.288 80.2168 72.0679V71.0816C80.2166 70.8614 80.129 70.6503 79.9733 70.4945C79.8177 70.3388 79.6066 70.2512 79.3864 70.251H61.9554C61.7352 70.2512 61.5241 70.3388 61.3685 70.4945C61.2128 70.6503 61.1252 70.8614 61.125 71.0816V72.0679C61.1252 72.288 61.2128 72.4991 61.3685 72.6549C61.5241 72.8106 61.7352 72.8982 61.9554 72.8984H63.2523V74.5586H61.9554C60.5821 74.5586 59.4648 73.4413 59.4648 72.0679V71.0816C59.4648 69.7083 60.5821 68.5908 61.9554 68.5908H79.3862C80.7595 68.5908 81.8768 69.7081 81.8768 71.0816V72.0679C81.877 73.4413 80.7597 74.5586 79.3864 74.5586Z" fill="#F88125"/>
<path d="M26.7604 83.174H5.97657C4.86759 83.174 3.82401 82.7401 3.03776 81.9522C2.25384 81.1666 1.82369 80.1258 1.82618 79.0218L1.9067 44.4803C1.91201 42.1929 3.77388 40.332 6.05709 40.332H26.8411C27.9501 40.332 28.9936 40.766 29.7801 41.5541C30.5638 42.3397 30.994 43.3802 30.9915 44.4841L30.911 79.0256C30.9055 81.313 29.0436 83.174 26.7604 83.174ZM6.05709 41.9919C4.68713 41.9919 3.57001 43.1096 3.56686 44.4839L3.48634 79.0255C3.48484 79.6854 3.74283 80.3083 4.21299 80.7793C4.68547 81.2531 5.31168 81.5139 5.97657 81.5139H26.7606C28.1304 81.5139 29.2475 80.3959 29.2508 79.0216L29.3313 44.4801C29.3328 43.8204 29.0748 43.1976 28.6048 42.7266C28.1324 42.2528 27.506 41.992 26.8413 41.992L6.05709 41.9919Z" fill="#1A3B70"/>
<path d="M25.5026 55.3889H7.39648C6.48107 55.3889 5.73633 54.6442 5.73633 53.7288V45.8213C5.73633 44.9059 6.48107 44.1611 7.39648 44.1611H25.5026C26.4181 44.1611 27.1628 44.9059 27.1628 45.8213V53.7288C27.1628 54.644 26.4181 55.3889 25.5026 55.3889ZM25.5026 45.8213H7.39599L7.39648 53.7288H25.5026V45.8213ZM10.1054 63.9454H7.39648C6.48107 63.9454 5.73633 63.2006 5.73633 62.2852V59.5765C5.73633 58.6611 6.48107 57.9164 7.39648 57.9164H10.1054C11.0208 57.9164 11.7655 58.6611 11.7655 59.5765V62.2852C11.7654 63.2006 11.0206 63.9454 10.1054 63.9454ZM10.1052 59.5763H7.39599L7.39648 62.2851H10.1052V59.5763ZM25.5026 63.9454H22.7938C21.8784 63.9454 21.1336 63.2006 21.1336 62.2852V59.5765C21.1336 58.6611 21.8784 57.9164 22.7938 57.9164H25.5026C26.4181 57.9164 27.1628 58.6611 27.1628 59.5765V62.2852C27.1628 63.2006 26.4181 63.9454 25.5026 63.9454ZM25.5026 59.5763H22.7933L22.7938 62.2851H25.5025V59.5763H25.5026ZM17.804 63.9454H15.0951C14.1797 63.9454 13.435 63.2006 13.435 62.2852V59.5765C13.435 58.6611 14.1797 57.9164 15.0951 57.9164H17.804C18.7194 57.9164 19.4642 58.6611 19.4642 59.5765V62.2852C19.464 63.2006 18.7192 63.9454 17.804 63.9454ZM17.8038 59.5763H15.0946L15.0951 62.2851H17.8038V59.5763ZM10.1054 71.644H7.39648C6.48107 71.644 5.73633 70.8993 5.73633 69.9839V67.275C5.73633 66.3596 6.48107 65.6148 7.39648 65.6148H10.1054C11.0208 65.6148 11.7655 66.3596 11.7655 67.275V69.9837C11.7654 70.8993 11.0206 71.644 10.1054 71.644ZM10.1052 67.275H7.39599L7.39648 69.9837H10.1052V67.275ZM10.1054 79.3427H7.39648C6.48107 79.3427 5.73633 78.5979 5.73633 77.6825V74.9738C5.73633 74.0584 6.48107 73.3136 7.39648 73.3136H10.1054C11.0208 73.3136 11.7655 74.0584 11.7655 74.9738V77.6825C11.7654 78.5979 11.0206 79.3427 10.1054 79.3427ZM10.1052 74.9738H7.39599L7.39648 77.6825H10.1052V74.9738ZM17.804 71.644H15.0951C14.1797 71.644 13.435 70.8993 13.435 69.9839V67.275C13.435 66.3596 14.1797 65.6148 15.0951 65.6148H17.804C18.7194 65.6148 19.4642 66.3596 19.4642 67.275V69.9837C19.464 70.8993 18.7192 71.644 17.804 71.644ZM17.8038 67.275H15.0946L15.0951 69.9837H17.8038V67.275ZM25.5026 79.3427H22.7938C21.8784 79.3427 21.1336 78.5979 21.1336 77.6825V67.275C21.1336 66.3596 21.8784 65.6148 22.7938 65.6148H25.5026C26.4181 65.6148 27.1628 66.3596 27.1628 67.275V77.6823C27.1628 78.5979 26.4181 79.3427 25.5026 79.3427ZM25.5026 67.275H22.7933L22.7938 77.6823H25.5025V67.275H25.5026ZM17.804 79.3427H15.0951C14.1797 79.3427 13.435 78.5979 13.435 77.6825V74.9738C13.435 74.0584 14.1797 73.3136 15.0951 73.3136H17.804C18.7194 73.3136 19.4642 74.0584 19.4642 74.9738V77.6825C19.464 78.5979 18.7192 79.3427 17.804 79.3427ZM17.8038 74.9738H15.0946L15.0951 77.6825H17.8038V74.9738Z" fill="#1A3B70"/>
<path d="M42.4992 31.1868C36.1101 31.1868 30.9121 25.9889 30.9121 19.5998C30.9121 13.2106 36.1101 8.0127 42.4992 8.0127C48.8883 8.0127 54.0862 13.2106 54.0862 19.5998C54.0862 25.9889 48.8881 31.1868 42.4992 31.1868ZM42.4992 9.67302C37.0255 9.67302 32.5723 14.1262 32.5723 19.5999C32.5723 25.0736 37.0255 29.5268 42.4992 29.5268C47.9729 29.5268 52.4261 25.0736 52.4261 19.5999C52.4261 14.1262 47.9729 9.67302 42.4992 9.67302Z" fill="#F88125"/>
<path d="M42.4993 27.0122C42.2791 27.0122 42.068 26.9247 41.9123 26.7691C41.7567 26.6134 41.6692 26.4023 41.6692 26.1821V25.5699C40.8234 25.3608 40.0882 24.8389 39.612 24.1092C39.5516 24.0181 39.5099 23.9159 39.4891 23.8085C39.4684 23.7012 39.469 23.5908 39.4911 23.4837C39.5131 23.3766 39.5561 23.275 39.6176 23.1845C39.679 23.0941 39.7577 23.0167 39.8492 22.9568C39.9406 22.8969 40.043 22.8556 40.1504 22.8353C40.2579 22.8151 40.3682 22.8163 40.4752 22.8388C40.5822 22.8614 40.6837 22.9048 40.7738 22.9667C40.864 23.0285 40.941 23.1076 41.0005 23.1993C41.1631 23.4485 41.3853 23.6532 41.647 23.7948C41.9087 23.9364 42.2016 24.0104 42.4991 24.0101C43.4863 24.0101 44.2894 23.2071 44.2894 22.22C44.2894 21.2329 43.4864 20.4298 42.4991 20.4298C40.5966 20.4298 39.0488 18.8821 39.0488 16.9795C39.0488 15.363 40.1663 14.0025 41.6691 13.63V13.0176C41.6691 12.9086 41.6905 12.8006 41.7322 12.6999C41.774 12.5992 41.8351 12.5077 41.9122 12.4306C41.9893 12.3535 42.0808 12.2924 42.1815 12.2507C42.2822 12.209 42.3901 12.1875 42.4991 12.1875C42.6081 12.1875 42.7161 12.209 42.8168 12.2507C42.9175 12.2924 43.009 12.3535 43.0861 12.4306C43.1632 12.5077 43.2243 12.5992 43.266 12.6999C43.3077 12.8006 43.3292 12.9086 43.3292 13.0176V13.6297C44.175 13.8388 44.9102 14.3607 45.3865 15.0903C45.5072 15.2744 45.5498 15.499 45.505 15.7145C45.4601 15.9301 45.3315 16.119 45.1473 16.2397C44.9632 16.3604 44.7387 16.403 44.5231 16.3582C44.3075 16.3133 44.1186 16.1847 43.9979 16.0005C43.8354 15.7512 43.6132 15.5464 43.3515 15.4048C43.0897 15.2631 42.7967 15.1891 42.4991 15.1894C41.512 15.1894 40.709 15.9926 40.709 16.9797C40.709 17.9668 41.512 18.7699 42.4991 18.7699C44.4017 18.7699 45.9496 20.3176 45.9496 22.2202C45.9496 23.8366 44.8323 25.1971 43.3292 25.5697V26.1821C43.3293 26.2911 43.3078 26.3991 43.2661 26.4998C43.2244 26.6005 43.1633 26.692 43.0862 26.7691C43.0092 26.8462 42.9177 26.9073 42.817 26.9491C42.7162 26.9908 42.6083 27.0122 42.4993 27.0122Z" fill="#F88125"/>
</svg>
