<svg width="28" height="26" viewBox="0 0 28 26" fill="none" xmlns="http://www.w3.org/2000/svg">
<path d="M26.8333 13.9579H1.16667C0.522667 13.9579 0 13.4903 0 12.9141C0 12.3378 0.522667 11.8702 1.16667 11.8702H26.8333C27.4773 11.8702 28 12.3378 28 12.9141C28 13.4903 27.4773 13.9579 26.8333 13.9579ZM26.8333 5.95491H1.16667C0.522667 5.95491 0 5.48726 0 4.91105C0 4.33484 0.522667 3.86719 1.16667 3.86719H26.8333C27.4773 3.86719 28 4.33484 28 4.91105C28 5.48726 27.4773 5.95491 26.8333 5.95491ZM26.8333 21.9607H1.16667C0.522667 21.9607 0 21.493 0 20.9168C0 20.3406 0.522667 19.8729 1.16667 19.8729H26.8333C27.4773 19.8729 28 20.3406 28 20.9168C28 21.493 27.4773 21.9607 26.8333 21.9607Z" fill="black"/>
</svg>
