<svg width="14" height="17" viewBox="0 0 14 17" fill="none" xmlns="http://www.w3.org/2000/svg">
<path d="M0.271484 6.17592C0.271484 5.45271 0.397042 4.77135 0.648158 4.13184C0.899275 3.49233 1.24581 2.93485 1.68778 2.4594C2.12974 1.98396 2.63867 1.57213 3.21456 1.22391C3.79046 0.875698 4.40988 0.614536 5.07282 0.44043C5.73577 0.266323 6.41211 0.17927 7.10184 0.17927C8.15988 0.17927 9.14425 0.401926 10.055 0.847239C10.9657 1.29255 11.7056 1.94043 12.2748 2.79088C12.844 3.64132 13.1286 4.60226 13.1286 5.67369C13.1286 6.31655 13.065 6.94601 12.9378 7.56208C12.8105 8.17815 12.6097 8.77079 12.3351 9.33998C12.0605 9.90918 11.7257 10.4097 11.3306 10.8417C10.9355 11.2736 10.4501 11.6184 9.87416 11.8763C9.29827 12.1341 8.66546 12.263 7.97573 12.263C7.52037 12.263 7.06836 12.1558 6.6197 11.9415C6.17104 11.7273 5.84961 11.4326 5.65541 11.0576C5.58845 11.3188 5.4947 11.6955 5.37416 12.1876C5.25363 12.6798 5.17494 12.9979 5.13811 13.1419C5.10128 13.2859 5.03265 13.5236 4.9322 13.8551C4.83175 14.1865 4.7447 14.4242 4.67104 14.5682C4.59738 14.7122 4.49023 14.9215 4.34961 15.196C4.20898 15.4706 4.05497 15.7301 3.88756 15.9745C3.72014 16.2189 3.51256 16.5085 3.26479 16.8433L3.12416 16.8936L3.03376 16.7931C2.93331 15.7418 2.88309 15.1123 2.88309 14.9047C2.88309 14.2886 2.95508 13.5972 3.09905 12.8305C3.24302 12.0638 3.46568 11.1011 3.76702 9.94266C4.06836 8.78418 4.24247 8.10449 4.28934 7.9036C4.07506 7.46833 3.96791 6.90248 3.96791 6.20605C3.96791 5.65025 4.14202 5.12793 4.49023 4.63909C4.83845 4.15025 5.28041 3.90583 5.81613 3.90583C6.22461 3.90583 6.54269 4.04143 6.77037 4.31264C6.99805 4.58385 7.11189 4.92704 7.11189 5.34222C7.11189 5.78418 6.96456 6.42369 6.66992 7.26074C6.37528 8.0978 6.22796 8.72391 6.22796 9.13909C6.22796 9.56097 6.37863 9.91085 6.67997 10.1888C6.98131 10.4667 7.34626 10.6056 7.77483 10.6056C8.14314 10.6056 8.48465 10.5219 8.79939 10.3545C9.11412 10.1871 9.37695 9.9594 9.58789 9.67146C9.79883 9.38351 9.98633 9.06543 10.1504 8.71722C10.3145 8.369 10.4417 7.99902 10.5321 7.60728C10.6225 7.21554 10.6895 6.84389 10.733 6.49233C10.7765 6.14076 10.7983 5.80762 10.7983 5.49289C10.7983 4.3344 10.4316 3.43206 9.69838 2.78585C8.96512 2.13965 8.00921 1.81655 6.83064 1.81655C5.49135 1.81655 4.37305 2.25014 3.47573 3.11733C2.5784 3.98451 2.12974 5.0844 2.12974 6.41699C2.12974 6.71164 2.1716 6.99623 2.2553 7.27079C2.33901 7.54534 2.42941 7.76297 2.52651 7.92369C2.6236 8.0844 2.71401 8.23675 2.79771 8.38072C2.88142 8.52469 2.92327 8.62681 2.92327 8.68708C2.92327 8.87458 2.87305 9.119 2.7726 9.42034C2.67215 9.72168 2.54827 9.87235 2.40095 9.87235C2.38756 9.87235 2.33064 9.8623 2.23019 9.84222C1.88867 9.74177 1.58566 9.55427 1.32115 9.27972C1.05664 9.00516 0.8524 8.68876 0.708426 8.3305C0.564453 7.97224 0.455636 7.61063 0.381975 7.24568C0.308315 6.88072 0.271484 6.52414 0.271484 6.17592Z" fill="#4C4C4C"/>
</svg>
