<svg width="24" height="22" viewBox="0 0 24 22" fill="none" xmlns="http://www.w3.org/2000/svg">
<path d="M14.4351 13.1156H13.7124L13.4563 12.8686C14.3528 11.8257 14.8925 10.4718 14.8925 8.99899C14.8925 5.71483 12.2304 3.05273 8.94625 3.05273C5.66209 3.05273 3 5.71483 3 8.99899C3 12.2832 5.66209 14.9452 8.94625 14.9452C10.4191 14.9452 11.773 14.4055 12.8159 13.509L13.0629 13.7651V14.4878L17.6369 19.0527L19 17.6897L14.4351 13.1156ZM8.94625 13.1156C6.66838 13.1156 4.82962 11.2769 4.82962 8.99899C4.82962 6.72112 6.66838 4.88235 8.94625 4.88235C11.2241 4.88235 13.0629 6.72112 13.0629 8.99899C13.0629 11.2769 11.2241 13.1156 8.94625 13.1156Z" fill="black"/>
</svg>
