<svg width="85" height="85" viewBox="0 0 85 85" fill="none" xmlns="http://www.w3.org/2000/svg">
<path fill-rule="evenodd" clip-rule="evenodd" d="M23.3867 16.9668L41.7148 22.0032V33.2654L23.3867 28.2298V16.9668ZM43.2852 22.0032L61.6133 16.9668V28.23L43.2852 33.2655V22.0032ZM68.2523 69.7693C69.8601 69.7693 71.5438 70.0847 73.0016 70.7769C74.1305 71.3131 75.2933 72.17 75.8018 73.3505L75.9737 73.7499H9.03516L9.20703 73.3505C9.7155 72.1702 10.8783 71.3131 12.0073 70.7769C13.465 70.0847 15.1487 69.7693 16.7566 69.7693H68.2523Z" fill="#9BC9FF"/>
<path fill-rule="evenodd" clip-rule="evenodd" d="M75.5384 73.4637C74.7066 71.5326 71.7051 70.0553 68.2517 70.0553H16.7561C13.3026 70.0553 10.3011 71.5326 9.46942 73.4637H75.5384ZM33.5989 67.9099H51.3999L50.6405 65.5757C50.4236 64.913 49.863 64.5026 49.167 64.5026H35.841C35.1449 64.5026 34.5754 64.9132 34.3583 65.5757L33.5989 67.9099ZM77.9072 74.5367C77.9071 74.6778 77.8792 74.8175 77.8251 74.9478C77.771 75.0781 77.6917 75.1965 77.5917 75.2961C77.4918 75.3957 77.3731 75.4746 77.2427 75.5283C77.1122 75.5819 76.9723 75.6094 76.8312 75.6089H8.16756C7.57987 75.6089 7.0918 75.1297 7.0918 74.5367C7.0918 72.6825 8.16756 70.9701 10.1113 69.7135C11.9014 68.5508 14.261 67.9099 16.7563 67.9099H31.3479L32.3242 64.912C32.8215 63.3597 34.2048 62.3562 35.841 62.3562H49.167C50.7942 62.3562 52.1775 63.3597 52.6838 64.912L53.6601 67.9099H68.2517C70.7379 67.9099 73.0975 68.551 74.8966 69.7135C76.8402 70.9703 77.9072 72.6825 77.9072 74.5367ZM29.5938 52.8655C29.5514 52.5842 29.399 52.3313 29.1701 52.1623C28.9413 51.9933 28.6548 51.922 28.3734 51.9641C26.4568 52.2497 24.9471 52.5889 23.8621 52.9712C23.2382 53.1927 21.5748 53.7848 21.5748 55.1562C21.5748 56.695 23.5186 57.6171 28.301 58.3395C36.1594 59.5255 48.8445 59.5272 56.7068 58.3395C61.4802 57.6171 63.433 56.695 63.433 55.1562C63.433 53.5677 61.2181 52.8716 59.0574 52.3997C52.4191 50.9497 41.0772 50.8542 33.7888 51.3844C33.2011 51.4269 32.7581 51.9405 32.7943 52.5316C32.8395 53.122 33.3548 53.5677 33.9424 53.5242C38.933 53.1558 44.7422 53.1395 49.7093 53.4338C55.9925 53.8071 59.5365 54.5828 60.8473 55.1479C60.1694 55.4481 58.6594 55.9217 55.4772 56.3448C48.0698 57.3302 36.9338 57.3286 29.5304 56.3448C26.3752 55.9263 24.8655 55.4569 24.1693 55.156C24.8022 54.8849 26.0949 54.4726 28.6896 54.0847C29.2775 53.9982 29.6843 53.4513 29.5938 52.8655ZM10.1294 43.6295C10.1294 44.954 11.3498 46.3308 20.2369 47.4294C32.5447 48.9504 52.4556 48.9502 64.7711 47.4294C73.658 46.331 74.8785 44.954 74.8785 43.6295C74.8785 42.3051 73.658 40.9272 64.7711 39.8297C54.0055 38.4993 38.2018 38.3757 26.4568 39.2321C25.8691 39.2746 25.4261 39.7882 25.4713 40.3795C25.5166 40.9716 26.0318 41.4146 26.6195 41.3721C37.8844 40.5515 52.8444 40.6479 63.3878 41.8268C69.2824 42.4868 71.5334 43.23 72.3562 43.6295C71.5335 44.0273 69.2824 44.7712 63.3878 45.4303C51.5577 46.7543 33.4459 46.7538 21.62 45.4303C15.7254 44.7712 13.4744 44.0272 12.6426 43.6295C13.4653 43.2361 15.6804 42.504 21.4211 41.8495C22.0088 41.7825 22.4336 41.25 22.3704 40.6623C22.298 40.073 21.7737 39.6498 21.177 39.7166C11.4673 40.8223 10.1294 42.2508 10.1294 43.6295ZM26.6466 15.9343L42.5038 20.2901L58.3521 15.9343L42.5038 11.5794L26.6466 15.9343ZM61.3266 28.0118L43.5707 32.8901V22.2213L61.3266 17.3419V28.0118ZM23.6722 28.0118V17.3421L41.4281 22.2214V32.8903L23.6722 28.0118ZM21.5296 28.83V15.9343C21.5296 15.4515 21.8459 15.0284 22.3161 14.9L42.2146 9.4313C42.4006 9.37707 42.5982 9.37707 42.7841 9.4313L62.6917 14.9C62.9175 14.9632 63.1166 15.0985 63.2586 15.2852C63.4005 15.4718 63.4777 15.6998 63.4783 15.9343V28.8298C63.4776 29.0644 63.4004 29.2924 63.2585 29.4792C63.1165 29.666 62.9175 29.8015 62.6917 29.865L42.7841 35.3318C42.5955 35.385 42.403 35.3825 42.2146 35.3318L22.3161 29.865C22.0894 29.803 21.8895 29.6681 21.7472 29.481C21.605 29.2938 21.5285 29.065 21.5296 28.83ZM9.01739 23.2158L14.5592 27.7063C15.0135 28.073 15.6911 28.0143 16.069 27.5472C16.4488 27.087 16.3763 26.4116 15.9153 26.0383L11.404 22.3831L15.9153 18.7261C16.0253 18.6376 16.1165 18.5282 16.1839 18.4042C16.2512 18.2802 16.2932 18.1441 16.3075 18.0037C16.3218 17.8633 16.3081 17.7215 16.2672 17.5865C16.2262 17.4515 16.1588 17.3259 16.069 17.2171C15.6984 16.7561 15.0203 16.6864 14.5592 17.0599L9.01739 21.5486C8.50501 21.9695 8.49498 22.7804 9.01739 23.2158ZM69.0925 26.0383L73.6038 22.3831L69.0925 18.7261C68.8712 18.5473 68.7298 18.2881 68.6993 18.0052C68.6688 17.7224 68.7517 17.439 68.9298 17.2171C69.3096 16.7561 69.9785 16.6864 70.4396 17.0599L75.9814 21.5486C76.5113 21.9761 76.5122 22.7874 75.9814 23.2156L70.4396 27.7061C69.9758 28.0805 69.303 28.0041 68.9298 27.547C68.559 27.087 68.6315 26.4116 69.0925 26.0383Z" fill="#1E81CE"/>
</svg>
