<svg width="85" height="85" viewBox="0 0 85 85" fill="none" xmlns="http://www.w3.org/2000/svg">
<path d="M57.235 17.5357V53.832C57.2351 54.3143 57.1403 54.7918 56.9558 55.2374C56.7714 55.683 56.501 56.0879 56.16 56.429C55.8191 56.77 55.4143 57.0406 54.9688 57.2252C54.5233 57.4098 54.0457 57.5048 53.5635 57.5048H17.2672C16.2935 57.5048 15.3596 57.118 14.6711 56.4294C13.9825 55.7409 13.5957 54.807 13.5957 53.8333V17.537C13.5955 17.0548 13.6904 16.5772 13.8748 16.1316C14.0593 15.686 14.3297 15.2811 14.6706 14.9401C15.0116 14.599 15.4164 14.3284 15.8619 14.1439C16.3074 13.9593 16.7849 13.8643 17.2672 13.8643H53.5635C54.5372 13.8643 55.4711 14.2511 56.1596 14.9396C56.8481 15.6282 57.235 16.562 57.235 17.5357Z" fill="white"/>
<path d="M42.817 24.9815L39.124 21.2897L35.4195 24.9815H35.4119L31.7201 21.2897L28.0156 24.9815V13.8643H42.8158L42.817 24.9815Z" fill="#8F9FFF"/>
<path d="M42.817 24.9815L39.124 21.2897L35.4195 24.9815H35.4119L31.7201 21.2897L28.0156 24.9815V13.8643H42.8158L42.817 24.9815Z" fill="#8F9FFF"/>
<path d="M48.454 64.2459C56.6783 64.2459 63.3455 57.5787 63.3455 49.3544C63.3455 41.13 56.6783 34.4629 48.454 34.4629C40.2296 34.4629 33.5625 41.13 33.5625 49.3544C33.5625 57.5787 40.2296 64.2459 48.454 64.2459Z" fill="white"/>
<path d="M70.43 72.7029C69.6457 73.4848 68.5834 73.9238 67.4759 73.9238C66.3685 73.9238 65.3062 73.4848 64.5219 72.7029C63.4841 71.6651 59.0882 66.1794 56.4608 61.9256C57.3578 61.3484 58.2039 60.6696 58.9854 59.8869C59.3064 59.5672 59.6134 59.2335 59.9078 58.8872C64.1248 61.5273 69.4049 65.7823 70.43 66.8074C71.2118 67.5892 71.6509 68.6495 71.6509 69.7551C71.6509 70.8607 71.2118 71.9211 70.43 72.7029ZM54.9334 47.0608C54.9334 50.6384 48.4543 58.126 48.4543 58.126C48.4543 58.126 41.9766 50.6384 41.9766 47.0608C41.9766 46.2101 42.1441 45.3678 42.4696 44.5818C42.7952 43.7959 43.2723 43.0818 43.8739 42.4803C44.4754 41.8788 45.1895 41.4016 45.9754 41.0761C46.7613 40.7506 47.6037 40.583 48.4543 40.583C49.305 40.583 50.1473 40.7506 50.9333 41.0761C51.7192 41.4016 52.4333 41.8788 53.0348 42.4803C53.6363 43.0818 54.1135 43.7959 54.439 44.5818C54.7645 45.3678 54.9334 46.2101 54.9334 47.0608Z" fill="white"/>
<path d="M48.4539 49.0094C49.6787 49.0094 50.6716 48.0166 50.6716 46.7918C50.6716 45.5671 49.6787 44.5742 48.4539 44.5742C47.2292 44.5742 46.2363 45.5671 46.2363 46.7918C46.2363 48.0166 47.2292 49.0094 48.4539 49.0094Z" fill="#8F9FFF"/>
<path d="M53.4264 3.06151C55.2076 3.55755 56.9749 4.19061 58.6812 4.94039C58.7575 4.97387 58.8396 4.992 58.923 4.99374C59.0063 4.99548 59.0891 4.98079 59.1667 4.95052C59.2444 4.92024 59.3153 4.87497 59.3754 4.81729C59.4356 4.75961 59.4838 4.69065 59.5172 4.61434C59.5507 4.53804 59.5689 4.45589 59.5706 4.37258C59.5723 4.28927 59.5576 4.20643 59.5274 4.12879C59.4971 4.05116 59.4518 3.98025 59.3941 3.92011C59.3365 3.85997 59.2675 3.81179 59.1912 3.7783C57.4312 3.00529 55.6189 2.35751 53.7677 1.83979C53.6875 1.81738 53.6036 1.81099 53.5209 1.82099C53.4382 1.83099 53.3583 1.85717 53.2858 1.89805C53.2132 1.93893 53.1494 1.9937 53.098 2.05924C53.0466 2.12478 53.0086 2.1998 52.9862 2.28001C52.9638 2.36023 52.9574 2.44408 52.9674 2.52677C52.9774 2.60946 53.0036 2.68937 53.0445 2.76193C53.0853 2.8345 53.1401 2.89831 53.2056 2.94971C53.2712 3.00111 53.3462 3.0391 53.4264 3.06151ZM63.9372 6.24457C63.8659 6.20142 63.7868 6.17273 63.7044 6.16016C63.622 6.14758 63.538 6.15135 63.4571 6.17126C63.3761 6.19117 63.2999 6.22682 63.2327 6.27619C63.1656 6.32555 63.1088 6.38766 63.0657 6.45897C63.0225 6.53028 62.9938 6.60938 62.9813 6.69177C62.9687 6.77416 62.9725 6.85822 62.9924 6.93916C63.0123 7.02009 63.0479 7.09631 63.0973 7.16346C63.1467 7.23061 63.2088 7.28739 63.2801 7.33054C73.461 13.4861 80.6353 24.0616 82.4723 35.6203C82.5037 35.7817 82.5966 35.9247 82.7313 36.0189C82.8661 36.1132 83.0322 36.1515 83.1946 36.1256C83.357 36.0998 83.5031 36.0119 83.6019 35.8805C83.7008 35.749 83.7447 35.5843 83.7245 35.4211C81.8316 23.4996 74.4328 12.5917 63.9372 6.24457ZM54.1584 80.3062C44.7654 82.9913 34.7282 82.2977 25.7938 78.3461C25.6408 78.2827 25.4691 78.2816 25.3154 78.3431C25.1616 78.4046 25.038 78.5237 24.9709 78.6751C24.9038 78.8265 24.8986 78.9981 24.9564 79.1533C25.0141 79.3085 25.1303 79.435 25.28 79.5057C30.7656 81.9322 36.6978 83.1854 42.6961 83.1848C46.6683 83.1848 50.6481 82.6342 54.5073 81.5254C54.6689 81.4791 54.8056 81.3704 54.8872 81.2234C54.9688 81.0764 54.9887 80.903 54.9425 80.7414C54.9203 80.6607 54.8822 80.5853 54.8305 80.5196C54.7788 80.4539 54.7145 80.3991 54.6413 80.3586C54.5682 80.3181 54.4877 80.2926 54.4045 80.2836C54.3214 80.2746 54.2386 80.2823 54.1584 80.3062ZM20.8689 75.7467C19.2117 74.7193 17.6326 73.571 16.1444 72.3111C16.0809 72.2573 16.0075 72.2165 15.9282 72.1911C15.849 72.1657 15.7655 72.1561 15.6826 72.1629C15.5997 72.1698 15.5189 72.1929 15.4449 72.2309C15.3709 72.269 15.3051 72.3212 15.2513 72.3847C15.1975 72.4482 15.1567 72.5216 15.1313 72.6009C15.1058 72.6801 15.0963 72.7636 15.1031 72.8465C15.1099 72.9295 15.133 73.0102 15.1711 73.0842C15.2091 73.1582 15.2614 73.224 15.3249 73.2778C16.8597 74.5796 18.4894 75.7653 20.2003 76.825C20.2709 76.8692 20.3496 76.8989 20.4318 76.9126C20.514 76.9262 20.5981 76.9235 20.6792 76.9045C20.7603 76.8855 20.8369 76.8507 20.9045 76.802C20.9721 76.7533 21.0294 76.6917 21.0731 76.6208C21.1171 76.5499 21.1467 76.471 21.1602 76.3887C21.1736 76.3064 21.1707 76.2223 21.1517 76.1411C21.1326 76.0599 21.0977 75.9833 21.0489 75.9156C21.0002 75.8479 20.9386 75.7905 20.8676 75.7467H20.8689ZM7.82963 21.8237C7.87086 21.7512 7.89742 21.6713 7.90778 21.5886C7.91814 21.5058 7.91211 21.4219 7.89002 21.3415C7.86793 21.2611 7.83022 21.1858 7.77905 21.12C7.72787 21.0542 7.66423 20.999 7.59176 20.9578C7.51929 20.9166 7.4394 20.89 7.35667 20.8797C7.27393 20.8693 7.18997 20.8753 7.10956 20.8974C7.02916 20.9195 6.9539 20.9572 6.88807 21.0084C6.82224 21.0596 6.76713 21.1232 6.7259 21.1957C2.06739 29.4014 0.306497 39.1561 1.76926 48.6608C1.79885 48.8234 1.8907 48.968 2.02526 49.0638C2.15982 49.1597 2.32648 49.1993 2.48978 49.1742C2.65308 49.1491 2.80014 49.0612 2.89966 48.9293C2.99919 48.7974 3.04333 48.6319 3.02269 48.468C1.60306 39.2449 3.30941 29.7807 7.82963 21.8237Z" fill="#2A44E2"/>
<path d="M42.5932 5.42969C34.1084 5.42969 26.3074 8.35775 20.0999 13.2294H17.267C16.1252 13.2307 15.0306 13.685 14.2234 14.4925C13.4161 15.2999 12.9622 16.3947 12.9612 17.5365V20.6954C8.64774 26.6898 6.07617 34.0151 6.07617 41.9467C6.07617 62.0816 22.4571 78.4624 42.5932 78.4624C50.2089 78.4624 57.2627 76.0863 63.1201 72.0811C63.5349 72.5733 63.866 72.9451 64.0715 73.1519C64.9746 74.053 66.1983 74.5591 67.4741 74.5591C68.7499 74.5591 69.9735 74.053 70.8766 73.1519C72.7555 71.273 72.7517 68.2168 70.8766 66.3595C70.6671 66.1558 70.4513 65.9586 70.2296 65.7683C75.7533 59.3679 79.1102 51.0455 79.1102 41.9467C79.1102 21.8106 62.7293 5.42969 42.5932 5.42969ZM14.2298 17.5365C14.2305 16.7311 14.5507 15.9588 15.1201 15.3892C15.6895 14.8195 16.4616 14.4991 17.267 14.498H27.3807V24.981C27.3808 25.1063 27.4179 25.2289 27.4875 25.3331C27.5572 25.4374 27.6561 25.5186 27.7719 25.5667C27.8877 25.6148 28.0151 25.6274 28.1381 25.6031C28.2611 25.5788 28.3741 25.5186 28.4629 25.4301L31.7183 22.1848L34.9635 25.4288C35.0862 25.5427 35.2474 25.6062 35.4149 25.6064C35.5823 25.6066 35.7437 25.5437 35.8668 25.4301L39.1221 22.1848L42.3674 25.4288C42.4561 25.5172 42.569 25.5774 42.6918 25.6018C42.8147 25.6261 42.942 25.6136 43.0578 25.5657C43.1735 25.5178 43.2725 25.4367 43.3422 25.3326C43.4119 25.2286 43.4493 25.1062 43.4495 24.981V14.498H53.5633C54.3687 14.4991 55.1408 14.8195 55.7102 15.3892C56.2796 15.9588 56.5998 16.7311 56.6004 17.5365V36.1515C50.6098 32.4394 42.6795 33.1701 37.4742 38.3767C36.028 39.8152 34.8815 41.5262 34.101 43.4107C33.3205 45.2953 32.9216 47.3159 32.9273 49.3557C32.9273 52.0287 33.6073 54.5952 34.8696 56.8699H17.267C16.4618 56.8689 15.6899 56.5486 15.1205 55.9792C14.5511 55.4099 14.2308 54.6379 14.2298 53.8327V17.5365ZM28.6494 14.498H42.1809V23.4497L39.5712 20.8401C39.4523 20.7211 39.291 20.6543 39.1228 20.6543C38.9546 20.6543 38.7933 20.7211 38.6743 20.8401L35.4164 24.0878L32.1674 20.8401C32.1086 20.781 32.0387 20.7342 31.9617 20.7022C31.8847 20.6703 31.8022 20.6538 31.7189 20.6538C31.6356 20.6538 31.5531 20.6703 31.4761 20.7022C31.3991 20.7342 31.3292 20.781 31.2704 20.8401L28.6494 23.4535V14.498ZM48.4531 63.6128C40.5748 63.6128 34.1959 57.2353 34.1959 49.3557C34.1959 45.5471 35.679 41.967 38.3711 39.2724C43.9443 33.703 52.9606 33.7017 58.5351 39.2724C59.8631 40.5936 60.9159 42.1651 61.6326 43.8958C62.3493 45.6266 62.7156 47.4824 62.7103 49.3557C62.7103 57.1972 56.3543 63.6128 48.4531 63.6128ZM42.5919 77.1938C23.1574 77.1938 7.34483 61.3813 7.34483 41.9467C7.34483 34.9437 9.42416 28.4279 12.9612 22.9371V53.8327C12.9625 54.9743 13.4166 56.0687 14.2238 56.8759C15.031 57.6832 16.1254 58.1372 17.267 58.1386H35.6562C38.5525 62.3404 43.2478 64.8815 48.4531 64.8815C51.2378 64.8815 53.902 64.138 56.2439 62.7717C58.0784 65.6604 60.5777 68.9653 62.3081 71.1004C56.6753 74.9254 49.8994 77.1938 42.5919 77.1938ZM69.9822 72.2524C68.6349 73.5883 66.3044 73.5883 64.9698 72.2549C64.0741 71.3605 59.9839 66.2935 57.3236 62.1095C58.3064 61.4088 59.2122 60.6059 60.0258 59.7142C64.0969 62.3277 69.0053 66.2821 69.9822 67.2577C70.6442 67.9202 71.0161 68.8185 71.0161 69.755C71.0161 70.6916 70.6442 71.5899 69.9822 72.2524ZM60.8187 58.7183C62.8722 56.0295 63.9829 52.739 63.9789 49.3557C63.9789 45.2071 62.3639 41.3086 59.4321 38.3767C58.9412 37.8933 58.4191 37.4428 57.8691 37.0281V17.5365C57.8681 16.3947 57.4141 15.2999 56.6069 14.4925C55.7997 13.685 54.705 13.2307 53.5633 13.2294H22.2148C27.9732 9.12909 34.999 6.69834 42.5919 6.69834C62.0277 6.69834 77.8403 22.5109 77.8403 41.9467C77.8403 50.7334 74.6001 58.7729 69.2616 64.9525C67.2292 63.2754 63.8127 60.6518 60.8187 58.7183Z" fill="#2A44E2"/>
<path d="M62.3102 17.7412C62.1419 17.7412 61.9806 17.808 61.8616 17.927C61.7427 18.046 61.6758 18.2073 61.6758 18.3755V19.8852C61.6758 20.0535 61.7427 20.2148 61.8616 20.3338C61.9806 20.4527 62.1419 20.5196 62.3102 20.5196C62.4784 20.5196 62.6397 20.4527 62.7587 20.3338C62.8777 20.2148 62.9445 20.0535 62.9445 19.8852V18.3755C62.9445 18.2073 62.8777 18.046 62.7587 17.927C62.6397 17.808 62.4784 17.7412 62.3102 17.7412ZM62.3102 23.4108C62.1419 23.4108 61.9806 23.4777 61.8616 23.5966C61.7427 23.7156 61.6758 23.8769 61.6758 24.0452V34.5052C61.6758 34.6735 61.7427 34.8348 61.8616 34.9538C61.9806 35.0727 62.1419 35.1396 62.3102 35.1396C62.4784 35.1396 62.6397 35.0727 62.7587 34.9538C62.8777 34.8348 62.9445 34.6735 62.9445 34.5052V24.0452C62.9445 23.8769 62.8777 23.7156 62.7587 23.5966C62.6397 23.4777 62.4784 23.4108 62.3102 23.4108ZM48.4539 39.949C46.5683 39.9511 44.7604 40.701 43.4271 42.0344C42.0938 43.3677 41.3438 45.1755 41.3418 47.0611C41.3418 50.8329 47.7028 58.2278 47.9743 58.5412C48.0339 58.61 48.1075 58.6651 48.1903 58.7029C48.273 58.7408 48.3629 58.7603 48.4539 58.7603C48.5449 58.7603 48.6348 58.7408 48.7175 58.7029C48.8002 58.6651 48.8739 58.61 48.9334 58.5412C49.2049 58.2278 55.566 50.8329 55.566 47.0611C55.5636 45.1756 54.8136 43.368 53.4803 42.0347C52.147 40.7015 50.3394 39.9514 48.4539 39.949ZM48.4539 57.1431C46.4646 54.7441 42.6105 49.5794 42.6105 47.0611C42.6121 45.5119 43.2283 44.0265 44.3238 42.9311C45.4193 41.8356 46.9046 41.2194 48.4539 41.2177C50.003 41.2197 51.4882 41.836 52.5836 42.9314C53.679 44.0268 54.2953 45.512 54.2973 47.0611C54.2973 49.5794 50.4444 54.7428 48.4539 57.1431Z" fill="#2A44E2"/>
<path d="M48.4534 43.9394C47.6972 43.94 46.9722 44.2407 46.4375 44.7754C45.9028 45.3101 45.6021 46.0351 45.6014 46.7913C45.6021 47.5475 45.9028 48.2725 46.4375 48.8072C46.9722 49.3419 47.6972 49.6426 48.4534 49.6432C49.2095 49.6426 49.9345 49.3419 50.4692 48.8072C51.0039 48.2725 51.3046 47.5475 51.3053 46.7913C51.3046 46.0351 51.0039 45.3101 50.4692 44.7754C49.9345 44.2407 49.2095 43.94 48.4534 43.9394ZM48.4534 48.3746C48.0444 48.3582 47.6577 48.1842 47.3741 47.8891C47.0905 47.594 46.9322 47.2006 46.9322 46.7913C46.9322 46.382 47.0905 45.9886 47.3741 45.6935C47.6577 45.3984 48.0444 45.2244 48.4534 45.208C49.3262 45.208 50.0366 45.9185 50.0366 46.7913C50.036 47.211 49.8689 47.6133 49.5722 47.9101C49.2754 48.2069 48.8731 48.3739 48.4534 48.3746ZM29.426 50.9208H27.2516V46.0872L27.6918 46.5312C27.8106 46.6507 27.9719 46.7181 28.1404 46.7185C28.3088 46.719 28.4705 46.6525 28.59 46.5338C28.7094 46.415 28.7768 46.2536 28.7773 46.0852C28.7778 45.9167 28.7113 45.755 28.5925 45.6356L27.0701 44.1081C27.0115 44.049 26.9417 44.0022 26.8648 43.9702C26.788 43.9381 26.7056 43.9216 26.6223 43.9216H26.6172C26.4371 43.9216 26.2747 43.9977 26.1605 44.1195L24.6445 45.6343C24.5839 45.6928 24.5356 45.7628 24.5023 45.8402C24.4691 45.9176 24.4516 46.0008 24.4508 46.085C24.4501 46.1693 24.4662 46.2528 24.4981 46.3308C24.5299 46.4087 24.577 46.4795 24.6366 46.5391C24.6962 46.5987 24.767 46.6458 24.8449 46.6777C24.9229 46.7095 25.0064 46.7256 25.0907 46.7249C25.1749 46.7241 25.2581 46.7066 25.3355 46.6734C25.4129 46.6401 25.4829 46.5918 25.5414 46.5312L25.9829 46.0897V50.9208H20.4148V46.0872L20.8563 46.5312C20.9151 46.5903 20.9849 46.6372 21.0619 46.6692C21.1388 46.7013 21.2213 46.7179 21.3047 46.7181C21.388 46.7183 21.4706 46.702 21.5476 46.6703C21.6247 46.6385 21.6948 46.5919 21.7538 46.5331C21.8129 46.4743 21.8598 46.4045 21.8919 46.3275C21.9239 46.2506 21.9405 46.1681 21.9407 46.0847C21.9409 46.0014 21.9246 45.9188 21.8929 45.8418C21.8612 45.7647 21.8145 45.6946 21.7557 45.6356L20.2334 44.1081C20.1747 44.049 20.1049 44.0022 20.028 43.9702C19.9512 43.9381 19.8688 43.9216 19.7855 43.9216H19.7804C19.6003 43.9216 19.4392 43.9977 19.3237 44.1195L17.8089 45.6343C17.7484 45.6928 17.7 45.7628 17.6668 45.8402C17.6335 45.9176 17.6161 46.0008 17.6153 46.085C17.6146 46.1693 17.6306 46.2528 17.6625 46.3308C17.6944 46.4087 17.7415 46.4795 17.8011 46.5391C17.8606 46.5987 17.9315 46.6458 18.0094 46.6777C18.0874 46.7095 18.1709 46.7256 18.2551 46.7249C18.3394 46.7241 18.4226 46.7066 18.5 46.6734C18.5774 46.6401 18.6474 46.5918 18.7059 46.5312L19.1461 46.091V50.9208H16.9742C16.8059 50.9208 16.6446 50.9876 16.5256 51.1066C16.4067 51.2255 16.3398 51.3869 16.3398 51.5551C16.3398 51.7233 16.4067 51.8847 16.5256 52.0037C16.6446 52.1226 16.8059 52.1894 16.9742 52.1894H29.4273C29.5955 52.1894 29.7569 52.1226 29.8758 52.0037C29.9948 51.8847 30.0616 51.7233 30.0616 51.5551C30.0616 51.3869 29.9948 51.2255 29.8758 51.1066C29.7569 50.9876 29.5943 50.9208 29.426 50.9208ZM47.4257 25.063H53.2045C53.3727 25.063 53.534 24.9962 53.653 24.8772C53.772 24.7583 53.8388 24.5969 53.8388 24.4287V18.6626C53.8388 18.4944 53.772 18.3331 53.653 18.2141C53.534 18.0952 53.3727 18.0283 53.2045 18.0283H47.4245C47.2562 18.0283 47.0949 18.0952 46.9759 18.2141C46.857 18.3331 46.7901 18.4944 46.7901 18.6626V24.4287C46.7901 24.5969 46.857 24.7583 46.9759 24.8772C47.0949 24.9962 47.2575 25.063 47.4257 25.063ZM48.0601 19.297H52.5701V23.7944H48.0588L48.0601 19.297Z" fill="#2A44E2"/>
</svg>
