<svg width="17" height="14" viewBox="0 0 17 14" fill="none" xmlns="http://www.w3.org/2000/svg">
<path d="M16.7522 2.27804C16.3036 2.93429 15.7612 3.49344 15.125 3.9555C15.1317 4.04925 15.135 4.18987 15.135 4.37737C15.135 5.24791 15.0078 6.11677 14.7533 6.98396C14.4989 7.85114 14.1122 8.68318 13.5932 9.48005C13.0742 10.2769 12.4565 10.9817 11.74 11.5944C11.0234 12.2072 10.1596 12.696 9.14844 13.061C8.13728 13.4259 7.0558 13.6084 5.90402 13.6084C4.08929 13.6084 2.42857 13.1229 0.921875 12.1519C1.15625 12.1787 1.41741 12.1921 1.70536 12.1921C3.21205 12.1921 4.55469 11.7301 5.73326 10.8059C5.03013 10.7926 4.40067 10.5766 3.84487 10.1581C3.28906 9.73954 2.90737 9.2055 2.69978 8.55594C2.92076 8.58943 3.125 8.60617 3.3125 8.60617C3.60045 8.60617 3.88504 8.56934 4.16629 8.49568C3.41629 8.34166 2.7952 7.96833 2.30301 7.3757C1.81083 6.78306 1.56473 6.09501 1.56473 5.31152V5.27135C2.02009 5.52581 2.50893 5.66309 3.03125 5.68318C2.58929 5.38853 2.23772 5.00349 1.97656 4.52804C1.7154 4.0526 1.58482 3.53697 1.58482 2.98117C1.58482 2.39188 1.73214 1.84612 2.02679 1.34389C2.83705 2.34166 3.8231 3.14021 4.98493 3.73954C6.14676 4.33887 7.39062 4.67201 8.71652 4.73898C8.66295 4.48451 8.63616 4.23675 8.63616 3.99568C8.63616 3.09835 8.95257 2.33329 9.58538 1.70047C10.2182 1.06766 10.9833 0.751256 11.8806 0.751256C12.8181 0.751256 13.6083 1.09277 14.2511 1.77581C14.981 1.63518 15.6674 1.37402 16.3103 0.992327C16.0625 1.76242 15.5871 2.3584 14.8839 2.78027C15.5067 2.71331 16.1295 2.5459 16.7522 2.27804Z" fill="#4C4C4C"/>
</svg>
